<svg width="24" height="24" viewBox="0 0 24 24" fill="none" xmlns="http://www.w3.org/2000/svg">
<path fill-rule="evenodd" clip-rule="evenodd" d="M19 12.5C19 14.985 15.866 17 12 17C8.134 17 5 14.985 5 12.5C5 10.015 8.134 8 12 8C15.866 8 19 10.015 19 12.5ZM12.6377 11.3647C12.2445 11.1317 11.7556 11.1317 11.3624 11.3647C10.9692 11.5976 10.7343 12.0265 10.7497 12.4832C10.7501 12.4945 10.7501 12.5057 10.7497 12.517C10.7343 12.9738 10.9692 13.4026 11.3624 13.6356C11.7556 13.8685 12.2445 13.8685 12.6377 13.6356C13.0309 13.4026 13.2658 12.9738 13.2503 12.517C13.2499 12.5057 13.2499 12.4945 13.2503 12.4832C13.2658 12.0265 13.0309 11.5976 12.6377 11.3647ZM10.8526 10.5043C11.5601 10.0851 12.4399 10.0851 13.1474 10.5043C13.8501 10.9206 14.2717 11.6846 14.2502 12.5001C14.2717 13.3157 13.8501 14.0796 13.1474 14.4959C12.4399 14.9151 11.5601 14.9151 10.8526 14.4959C10.15 14.0796 9.72833 13.3157 9.7498 12.5001C9.72833 11.6846 10.15 10.9206 10.8526 10.5043Z" fill="white"/>
</svg>
