<svg width="24" height="24" viewBox="0 0 24 24" fill="none" xmlns="http://www.w3.org/2000/svg">
<path fill-rule="evenodd" clip-rule="evenodd" d="M7.81884 8.6313C7.81325 8.64664 7.80875 8.66253 7.80542 8.67882L7.80474 8.68213L6.50891 14.8768L6.50807 14.8807C6.48548 14.9859 6.51129 15.0934 6.57205 15.172C6.63138 15.2486 6.71488 15.2873 6.79638 15.2885H9.39613C9.60633 15.2885 9.80688 15.3767 9.94893 15.5317C10.091 15.6866 10.1615 15.894 10.1433 16.1034C10.101 16.5905 10.2572 17.0701 10.5682 17.4284C10.8745 17.7812 11.3023 17.9844 11.75 17.9997C12.1974 17.9843 12.6249 17.7814 12.9311 17.429C13.2421 17.071 13.3985 16.5918 13.3566 16.105C13.3386 15.8957 13.4092 15.6884 13.5513 15.5337C13.6933 15.3789 13.8938 15.2908 14.1039 15.2908H16.7037C16.7851 15.2895 16.8686 15.2509 16.9279 15.1742C16.9887 15.0957 17.0145 14.9881 16.9919 14.883L16.991 14.879L15.6952 8.68207L15.6946 8.67881C15.6912 8.66252 15.6867 8.64664 15.6811 8.6313C15.2071 7.35847 14.6798 6.60048 14.0866 6.15076C13.5055 5.71018 12.7743 5.5 11.75 5.5C10.7257 5.5 9.99446 5.71018 9.41335 6.15076C8.82018 6.60048 8.29291 7.35847 7.81884 8.6313ZM8.50711 4.95546C9.42825 4.25708 10.5143 4 11.75 4C12.9857 4 14.0717 4.25708 14.9929 4.95546C15.9017 5.64451 16.5615 6.69671 17.0875 8.10965L17.0885 8.11228C17.1202 8.19836 17.1453 8.28669 17.1638 8.37648L17.1642 8.37831L18.4584 14.5679L18.4589 14.5701C18.5725 15.1019 18.4482 15.6606 18.1143 16.0921C17.7789 16.5255 17.2653 16.7864 16.7133 16.7907L16.7075 16.7908L14.8206 16.7908C14.7238 17.3871 14.4648 17.9508 14.0634 18.4127C13.4816 19.0824 12.6512 19.4791 11.7675 19.4998C11.7559 19.5001 11.7442 19.5001 11.7325 19.4998C10.8483 19.4792 10.0174 19.082 9.4355 18.4117C9.03412 17.9494 8.77524 17.3852 8.67886 16.7885H6.78665C6.23468 16.7842 5.72104 16.5233 5.3857 16.0899C5.0518 15.6583 4.9275 15.0997 5.04105 14.5679L5.04153 14.5657L6.33583 8.3783L6.33622 8.37642C6.35467 8.28665 6.37982 8.19835 6.41149 8.11229L6.41247 8.10964C6.93847 6.69671 7.59829 5.64451 8.50711 4.95546Z" fill="black"/>
<path fill-rule="evenodd" clip-rule="evenodd" d="M8.64844 16.0381C8.64844 15.6239 8.98422 15.2881 9.39844 15.2881H14.1062C14.5204 15.2881 14.8562 15.6239 14.8562 16.0381C14.8562 16.4523 14.5204 16.7881 14.1062 16.7881H9.39844C8.98422 16.7881 8.64844 16.4523 8.64844 16.0381Z" fill="black"/>
</svg>
