<svg width="48" height="24" viewBox="0 0 48 24" fill="none" xmlns="http://www.w3.org/2000/svg">
<path d="M16.75 6.46875C16.75 6.05454 16.4142 5.71875 16 5.71875C15.5858 5.71875 15.25 6.05454 15.25 6.46875H16.75ZM16 17.3507L16.75 17.3517V17.3507H16ZM16.4804 18.5145L17.0114 17.9848L17.0114 17.9848L16.4804 18.5145ZM17.643 18.9978L17.6421 19.7478H17.643V18.9978ZM30.357 18.9978L30.357 19.7478L30.3579 19.7477L30.357 18.9978ZM31.5196 18.5145L30.9886 17.9848L30.9886 17.9848L31.5196 18.5145ZM32 17.3507L31.25 17.3507L31.25 17.3517L32 17.3507ZM32 8.11575L31.25 8.11484V8.11575H32ZM31.5196 6.95197L30.9886 7.48166L30.9886 7.48166L31.5196 6.95197ZM30.357 6.46875L30.3579 5.71875H30.357V6.46875ZM24.536 5.71875C24.1218 5.71875 23.786 6.05454 23.786 6.46875C23.786 6.88296 24.1218 7.21875 24.536 7.21875V5.71875ZM15.25 6.471C15.25 6.88521 15.5858 7.221 16 7.221C16.4142 7.221 16.75 6.88521 16.75 6.471H15.25ZM16 5.647L16.75 5.647L16.75 5.64609L16 5.647ZM16.4804 4.48322L17.0114 5.01291L17.0114 5.01291L16.4804 4.48322ZM17.643 4L17.643 3.25L17.6421 3.25L17.643 4ZM22.893 4L22.8939 3.25H22.893V4ZM24.0556 4.48322L23.5246 5.01291L23.5246 5.01291L24.0556 4.48322ZM24.536 5.647L23.786 5.64609V5.647H24.536ZM23.786 6.471C23.786 6.88521 24.1218 7.221 24.536 7.221C24.9502 7.221 25.286 6.88521 25.286 6.471H23.786ZM16 5.71875C15.5858 5.71875 15.25 6.05454 15.25 6.46875C15.25 6.88296 15.5858 7.21875 16 7.21875V5.71875ZM24.536 7.21875C24.9502 7.21875 25.286 6.88296 25.286 6.46875C25.286 6.05454 24.9502 5.71875 24.536 5.71875V7.21875ZM15.25 6.46875V17.3507H16.75V6.46875H15.25ZM15.25 17.3498C15.2492 17.985 15.5008 18.5945 15.9494 19.0442L17.0114 17.9848C16.8437 17.8168 16.7497 17.589 16.75 17.3517L15.25 17.3498ZM15.9494 19.0442C16.398 19.4939 17.0069 19.747 17.6421 19.7477L17.6439 18.2478C17.4065 18.2475 17.179 18.1529 17.0114 17.9848L15.9494 19.0442ZM17.643 19.7478H30.357V18.2478H17.643V19.7478ZM30.3579 19.7477C30.9931 19.747 31.602 19.4939 32.0506 19.0442L30.9886 17.9848C30.821 18.1529 30.5935 18.2475 30.3561 18.2478L30.3579 19.7477ZM32.0506 19.0442C32.4992 18.5945 32.7508 17.985 32.75 17.3498L31.25 17.3517C31.2503 17.589 31.1563 17.8168 30.9886 17.9848L32.0506 19.0442ZM32.75 17.3507V8.11575H31.25V17.3507H32.75ZM32.75 8.11666C32.7508 7.48147 32.4992 6.87198 32.0506 6.42229L30.9886 7.48166C31.1563 7.64971 31.2503 7.87747 31.25 8.11484L32.75 8.11666ZM32.0506 6.42229C31.602 5.97259 30.9931 5.71952 30.3579 5.71875L30.3561 7.21875C30.5935 7.21904 30.821 7.31361 30.9886 7.48166L32.0506 6.42229ZM30.357 5.71875H24.536V7.21875H30.357V5.71875ZM16.75 6.471V5.647H15.25V6.471H16.75ZM16.75 5.64609C16.7497 5.40872 16.8437 5.18096 17.0114 5.01291L15.9494 3.95354C15.5008 4.40323 15.2492 5.01272 15.25 5.64791L16.75 5.64609ZM17.0114 5.01291C17.179 4.84486 17.4065 4.75029 17.6439 4.75L17.6421 3.25C17.0069 3.25077 16.398 3.50384 15.9494 3.95354L17.0114 5.01291ZM17.643 4.75H22.893V3.25H17.643V4.75ZM22.8921 4.75C23.1295 4.75029 23.357 4.84486 23.5246 5.01291L24.5866 3.95354C24.138 3.50384 23.5291 3.25077 22.8939 3.25L22.8921 4.75ZM23.5246 5.01291C23.6923 5.18096 23.7863 5.40872 23.786 5.64609L25.286 5.64791C25.2868 5.01272 25.0352 4.40323 24.5866 3.95354L23.5246 5.01291ZM23.786 5.647V6.471H25.286V5.647H23.786ZM16 7.21875H24.536V5.71875H16V7.21875Z" fill="#B3B3B3"/>
</svg>
