<svg width="14" height="20" viewBox="0 0 14 20" fill="none" xmlns="http://www.w3.org/2000/svg">
<g clip-path="url(#clip0_1818_36205)">
<path d="M7.2 6C6.75817 6 6.4 6.35817 6.4 6.8V6.8C6.4 7.24183 6.75817 7.6 7.2 7.6V7.6C7.64183 7.6 8 7.24183 8 6.8V6.8C8 6.35817 7.64183 6 7.2 6V6ZM7.2 14C7.64183 14 8 13.6418 8 13.2V13.2C8 12.7582 7.64183 12.4 7.2 12.4V12.4C6.75817 12.4 6.4 12.7582 6.4 13.2V13.2C6.4 13.6418 6.75817 14 7.2 14V14ZM7.2 9.2C6.75817 9.2 6.4 9.55817 6.4 10V10C6.4 10.4418 6.75817 10.8 7.2 10.8V10.8C7.64183 10.8 8 10.4418 8 10V10C8 9.55817 7.64183 9.2 7.2 9.2V9.2Z" fill="#999999"/>
</g>
<defs>
<clipPath id="clip0_1818_36205">
<rect width="14" height="20" fill="white"/>
</clipPath>
</defs>
</svg>
