<svg width="10" height="12" viewBox="0 0 10 12" fill="none" xmlns="http://www.w3.org/2000/svg">
<path d="M9.79942 8.47399L6.65867 11.7883C6.39122 12.0706 5.95234 12.0706 5.6849 11.7883C5.41745 11.5061 5.41745 11.043 5.6849 10.7607L7.65987 8.68385H0.685753C0.308589 8.68385 0 8.35821 0 7.9602V0.723654C0 0.325644 0.308589 0 0.685753 0C1.06292 0 1.37151 0.325644 1.37151 0.723654V7.23654H7.65987L5.6849 5.15966C5.41745 4.87743 5.41745 4.41429 5.6849 4.13207C5.95234 3.84984 6.39122 3.84984 6.65867 4.13207L9.79942 7.4464C10.0669 7.72863 10.0669 8.19177 9.79942 8.47399Z" fill="#666666"/>
</svg>
