<svg width="36" height="36" viewBox="0 0 36 36" fill="none" xmlns="http://www.w3.org/2000/svg">
<rect width="36" height="36" rx="18" fill="black" fill-opacity="0.6"/>
<path d="M10.5 17.25C10.0858 17.25 9.75 17.5858 9.75 18C9.75 18.4142 10.0858 18.75 10.5 18.75V17.25ZM18 18.75C18.4142 18.75 18.75 18.4142 18.75 18C18.75 17.5858 18.4142 17.25 18 17.25V18.75ZM18 17.25C17.5858 17.25 17.25 17.5858 17.25 18C17.25 18.4142 17.5858 18.75 18 18.75V17.25ZM25.5 18.75C25.9142 18.75 26.25 18.4142 26.25 18C26.25 17.5858 25.9142 17.25 25.5 17.25V18.75ZM18.75 18C18.75 17.5858 18.4142 17.25 18 17.25C17.5858 17.25 17.25 17.5858 17.25 18H18.75ZM17.25 25.5C17.25 25.9142 17.5858 26.25 18 26.25C18.4142 26.25 18.75 25.9142 18.75 25.5H17.25ZM17.25 18C17.25 18.4142 17.5858 18.75 18 18.75C18.4142 18.75 18.75 18.4142 18.75 18H17.25ZM18.75 10.5C18.75 10.0858 18.4142 9.75 18 9.75C17.5858 9.75 17.25 10.0858 17.25 10.5H18.75ZM10.5 18.75H18V17.25H10.5V18.75ZM18 18.75H25.5V17.25H18V18.75ZM18 18C18 18 17.25 18 17.25 18C17.25 18 17.25 18 17.25 18C17.25 18 17.25 18 17.25 18C17.25 18 17.25 18 17.25 18C17.25 18 17.25 18 17.25 18C17.25 18 17.25 18 17.25 18C17.25 18 17.25 18 17.25 18C17.25 18 17.25 18 17.25 18C17.25 18 17.25 18 17.25 18C17.25 18 17.25 18.0001 17.25 18.0001C17.25 18.0001 17.25 18.0001 17.25 18.0001C17.25 18.0001 17.25 18.0001 17.25 18.0001C17.25 18.0001 17.25 18.0001 17.25 18.0001C17.25 18.0001 17.25 18.0001 17.25 18.0002C17.25 18.0002 17.25 18.0002 17.25 18.0002C17.25 18.0002 17.25 18.0002 17.25 18.0002C17.25 18.0002 17.25 18.0003 17.25 18.0003C17.25 18.0003 17.25 18.0003 17.25 18.0003C17.25 18.0003 17.25 18.0004 17.25 18.0004C17.25 18.0004 17.25 18.0004 17.25 18.0004C17.25 18.0005 17.25 18.0005 17.25 18.0005C17.25 18.0005 17.25 18.0006 17.25 18.0006C17.25 18.0006 17.25 18.0007 17.25 18.0007C17.25 18.0007 17.25 18.0007 17.25 18.0008C17.25 18.0008 17.25 18.0008 17.25 18.0009C17.25 18.0009 17.25 18.0009 17.25 18.001C17.25 18.001 17.25 18.0011 17.25 18.0011C17.25 18.0011 17.25 18.0012 17.25 18.0012C17.25 18.0013 17.25 18.0013 17.25 18.0014C17.25 18.0014 17.25 18.0015 17.25 18.0015C17.25 18.0016 17.25 18.0016 17.25 18.0017C17.25 18.0017 17.25 18.0018 17.25 18.0018C17.25 18.0019 17.25 18.0019 17.25 18.002C17.25 18.0021 17.25 18.0021 17.25 18.0022C17.25 18.0023 17.25 18.0023 17.25 18.0024C17.25 18.0025 17.25 18.0025 17.25 18.0026C17.25 18.0027 17.25 18.0028 17.25 18.0028C17.25 18.0029 17.25 18.003 17.25 18.0031C17.25 18.0031 17.25 18.0032 17.25 18.0033C17.25 18.0034 17.25 18.0035 17.25 18.0036C17.25 18.0037 17.25 18.0038 17.25 18.0039C17.25 18.0039 17.25 18.004 17.25 18.0041C17.25 18.0042 17.25 18.0043 17.25 18.0044C17.25 18.0045 17.25 18.0047 17.25 18.0048C17.25 18.0049 17.25 18.005 17.25 18.0051C17.25 18.0052 17.25 18.0053 17.25 18.0054C17.25 18.0056 17.25 18.0057 17.25 18.0058C17.25 18.0059 17.25 18.0061 17.25 18.0062C17.25 18.0063 17.25 18.0064 17.25 18.0066C17.25 18.0067 17.25 18.0068 17.25 18.007C17.25 18.0071 17.25 18.0073 17.25 18.0074C17.25 18.0076 17.25 18.0077 17.25 18.0079C17.25 18.008 17.25 18.0082 17.25 18.0083C17.25 18.0085 17.25 18.0086 17.25 18.0088C17.25 18.009 17.25 18.0091 17.25 18.0093C17.25 18.0095 17.25 18.0096 17.25 18.0098C17.25 18.01 17.25 18.0102 17.25 18.0103C17.25 18.0105 17.25 18.0107 17.25 18.0109C17.25 18.0111 17.25 18.0113 17.25 18.0115C17.25 18.0117 17.25 18.0119 17.25 18.0121C17.25 18.0123 17.25 18.0125 17.25 18.0127C17.25 18.0129 17.25 18.0131 17.25 18.0133C17.25 18.0135 17.25 18.0138 17.25 18.014C17.25 18.0142 17.25 18.0144 17.25 18.0146C17.25 18.0149 17.25 18.0151 17.25 18.0153C17.25 18.0156 17.25 18.0158 17.25 18.0161C17.25 18.0163 17.25 18.0166 17.25 18.0168C17.25 18.0171 17.25 18.0173 17.25 18.0176C17.25 18.0178 17.25 18.0181 17.25 18.0184C17.25 18.0186 17.25 18.0189 17.25 18.0192C17.25 18.0194 17.25 18.0197 17.25 18.02C17.25 18.0203 17.25 18.0206 17.25 18.0209C17.25 18.0211 17.25 18.0214 17.25 18.0217C17.25 18.022 17.25 18.0223 17.25 18.0226C17.25 18.0229 17.25 18.0233 17.25 18.0236C17.25 18.0239 17.25 18.0242 17.25 18.0245C17.25 18.0249 17.25 18.0252 17.25 18.0255C17.25 18.0258 17.25 18.0262 17.25 18.0265C17.25 18.0269 17.25 18.0272 17.25 18.0276C17.25 18.0279 17.25 18.0283 17.25 18.0286C17.25 18.029 17.25 18.0293 17.25 18.0297C17.25 18.0301 17.25 18.0304 17.25 18.0308C17.25 18.0312 17.25 18.0316 17.25 18.032C17.25 18.0323 17.25 18.0327 17.25 18.0331C17.25 18.0335 17.25 18.0339 17.25 18.0343C17.25 18.0347 17.25 18.0351 17.25 18.0355C17.25 18.036 17.25 18.0364 17.25 18.0368C17.25 18.0372 17.25 18.0376 17.25 18.0381C17.25 18.0385 17.25 18.039 17.25 18.0394C17.25 18.0398 17.25 18.0403 17.25 18.0407C17.25 18.0412 17.25 18.0416 17.25 18.0421C17.25 18.0426 17.25 18.043 17.25 18.0435C17.25 18.044 17.25 18.0445 17.25 18.0449C17.25 18.0454 17.25 18.0459 17.25 18.0464C17.25 18.0469 17.25 18.0474 17.25 18.0479C17.25 18.0484 17.25 18.0489 17.25 18.0494C17.25 18.05 17.25 18.0505 17.25 18.051C17.25 18.0515 17.25 18.0521 17.25 18.0526C17.25 18.0531 17.25 18.0537 17.25 18.0542C17.25 18.0548 17.25 18.0553 17.25 18.0559C17.25 18.0564 17.25 18.057 17.25 18.0576C17.25 18.0581 17.25 18.0587 17.25 18.0593C17.25 18.0599 17.25 18.0605 17.25 18.0611C17.25 18.0617 17.25 18.0623 17.25 18.0629C17.25 18.0635 17.25 18.0641 17.25 18.0647C17.25 18.0653 17.25 18.0659 17.25 18.0666C17.25 18.0672 17.25 18.0678 17.25 18.0685C17.25 18.0691 17.25 18.0697 17.25 18.0704C17.25 18.071 17.25 18.0717 17.25 18.0724C17.25 18.073 17.25 18.0737 17.25 18.0744C17.25 18.0751 17.25 18.0757 17.25 18.0764C17.25 18.0771 17.25 18.0778 17.25 18.0785C17.25 18.0792 17.25 18.0799 17.25 18.0806C17.25 18.0813 17.25 18.0821 17.25 18.0828C17.25 18.0835 17.25 18.0842 17.25 18.085C17.25 18.0857 17.25 18.0865 17.25 18.0872C17.25 18.088 17.25 18.0887 17.25 18.0895C17.25 18.0903 17.25 18.091 17.25 18.0918C17.25 18.0926 17.25 18.0934 17.25 18.0942C17.25 18.095 17.25 18.0958 17.25 18.0966C17.25 18.0974 17.25 18.0982 17.25 18.099C17.25 18.0998 17.25 18.1006 17.25 18.1015C17.25 18.1023 17.25 18.1031 17.25 18.104C17.25 18.1048 17.25 18.1057 17.25 18.1065C17.25 18.1074 17.25 18.1083 17.25 18.1091C17.25 18.11 17.25 18.1109 17.25 18.1118C17.25 18.1127 17.25 18.1136 17.25 18.1145C17.25 18.1154 17.25 18.1163 17.25 18.1172C17.25 18.1181 17.25 18.119 17.25 18.12C17.25 18.1209 17.25 18.1218 17.25 18.1228C17.25 18.1237 17.25 18.1247 17.25 18.1256C17.25 18.1266 17.25 18.1275 17.25 18.1285C17.25 18.1295 17.25 18.1305 17.25 18.1315C17.25 18.1325 17.25 18.1334 17.25 18.1345C17.25 18.1355 17.25 18.1365 17.25 18.1375C17.25 18.1385 17.25 18.1395 17.25 18.1406C17.25 18.1416 17.25 18.1426 17.25 18.1437C17.25 18.1447 17.25 18.1458 17.25 18.1469C17.25 18.1479 17.25 18.149 17.25 18.1501C17.25 18.1512 17.25 18.1522 17.25 18.1533C17.25 18.1544 17.25 18.1555 17.25 18.1566C17.25 18.1578 17.25 18.1589 17.25 18.16C17.25 18.1611 17.25 18.1623 17.25 18.1634C17.25 18.1645 17.25 18.1657 17.25 18.1669C17.25 18.168 17.25 18.1692 17.25 18.1704C17.25 18.1715 17.25 18.1727 17.25 18.1739C17.25 18.1751 17.25 18.1763 17.25 18.1775C17.25 18.1787 17.25 18.1799 17.25 18.1811C17.25 18.1824 17.25 18.1836 17.25 18.1848C17.25 18.1861 17.25 18.1873 17.25 18.1886C17.25 18.1899 17.25 18.1911 17.25 18.1924C17.25 18.1937 17.25 18.1949 17.25 18.1962C17.25 18.1975 17.25 18.1988 17.25 18.2001C17.25 18.2014 17.25 18.2028 17.25 18.2041C17.25 18.2054 17.25 18.2067 17.25 18.2081C17.25 18.2094 17.25 18.2108 17.25 18.2121C17.25 18.2135 17.25 18.2149 17.25 18.2162C17.25 18.2176 17.25 18.219 17.25 18.2204C17.25 18.2218 17.25 18.2232 17.25 18.2246C17.25 18.226 17.25 18.2275 17.25 18.2289C17.25 18.2303 17.25 18.2318 17.25 18.2332C17.25 18.2346 17.25 18.2361 17.25 18.2376C17.25 18.239 17.25 18.2405 17.25 18.242C17.25 18.2435 17.25 18.245 17.25 18.2465C17.25 18.248 17.25 18.2495 17.25 18.251C17.25 18.2525 17.25 18.2541 17.25 18.2556C17.25 18.2571 17.25 18.2587 17.25 18.2603C17.25 18.2618 17.25 18.2634 17.25 18.265C17.25 18.2665 17.25 18.2681 17.25 18.2697C17.25 18.2713 17.25 18.2729 17.25 18.2745C17.25 18.2762 17.25 18.2778 17.25 18.2794C17.25 18.281 17.25 18.2827 17.25 18.2843C17.25 18.286 17.25 18.2877 17.25 18.2893C17.25 18.291 17.25 18.2927 17.25 18.2944C17.25 18.2961 17.25 18.2978 17.25 18.2995C17.25 18.3012 17.25 18.3029 17.25 18.3046C17.25 18.3064 17.25 18.3081 17.25 18.3099C17.25 18.3116 17.25 18.3134 17.25 18.3151C17.25 18.3169 17.25 18.3187 17.25 18.3205C17.25 18.3223 17.25 18.3241 17.25 18.3259C17.25 18.3277 17.25 18.3295 17.25 18.3314C17.25 18.3332 17.25 18.335 17.25 18.3369C17.25 18.3387 17.25 18.3406 17.25 18.3425C17.25 18.3443 17.25 18.3462 17.25 18.3481C17.25 18.35 17.25 18.3519 17.25 18.3538C17.25 18.3557 17.25 18.3576 17.25 18.3596C17.25 18.3615 17.25 18.3635 17.25 18.3654C17.25 18.3674 17.25 18.3693 17.25 18.3713C17.25 18.3733 17.25 18.3753 17.25 18.3773C17.25 18.3793 17.25 18.3813 17.25 18.3833C17.25 18.3853 17.25 18.3873 17.25 18.3894C17.25 18.3914 17.25 18.3934 17.25 18.3955C17.25 18.3976 17.25 18.3996 17.25 18.4017C17.25 18.4038 17.25 18.4059 17.25 18.408C17.25 18.4101 17.25 18.4122 17.25 18.4143C17.25 18.4165 17.25 18.4186 17.25 18.4207C17.25 18.4229 17.25 18.425 17.25 18.4272C17.25 18.4294 17.25 18.4316 17.25 18.4338C17.25 18.4359 17.25 18.4381 17.25 18.4404C17.25 18.4426 17.25 18.4448 17.25 18.447C17.25 18.4493 17.25 18.4515 17.25 18.4538C17.25 18.456 17.25 18.4583 17.25 18.4606C17.25 18.4629 17.25 18.4652 17.25 18.4675C17.25 18.4698 17.25 18.4721 17.25 18.4744C17.25 18.4767 17.25 18.4791 17.25 18.4814C17.25 18.4838 17.25 18.4861 17.25 18.4885C17.25 18.4909 17.25 18.4932 17.25 18.4956C17.25 18.498 17.25 18.5004 17.25 18.5029C17.25 18.5053 17.25 18.5077 17.25 18.5101C17.25 18.5126 17.25 18.515 17.25 18.5175C17.25 18.52 17.25 18.5224 17.25 18.5249C17.25 18.5274 17.25 18.5299 17.25 18.5324C17.25 18.5349 17.25 18.5375 17.25 18.54C17.25 18.5425 17.25 18.5451 17.25 18.5476C17.25 18.5502 17.25 18.5528 17.25 18.5553C17.25 18.5579 17.25 18.5605 17.25 18.5631C17.25 18.5657 17.25 18.5684 17.25 18.571C17.25 18.5736 17.25 18.5763 17.25 18.5789C17.25 18.5816 17.25 18.5842 17.25 18.5869C17.25 18.5896 17.25 18.5923 17.25 18.595C17.25 18.5977 17.25 18.6004 17.25 18.6032C17.25 18.6059 17.25 18.6086 17.25 18.6114C17.25 18.6141 17.25 18.6169 17.25 18.6197C17.25 18.6225 17.25 18.6252 17.25 18.6281C17.25 18.6309 17.25 18.6337 17.25 18.6365C17.25 18.6393 17.25 18.6422 17.25 18.645C17.25 18.6479 17.25 18.6507 17.25 18.6536C17.25 18.6565 17.25 18.6594 17.25 18.6623C17.25 18.6652 17.25 18.6681 17.25 18.6711C17.25 18.674 17.25 18.6769 17.25 18.6799C17.25 18.6828 17.25 18.6858 17.25 18.6888C17.25 18.6918 17.25 18.6948 17.25 18.6978C17.25 18.7008 17.25 18.7038 17.25 18.7068C17.25 18.7099 17.25 18.7129 17.25 18.716C17.25 18.719 17.25 18.7221 17.25 18.7252C17.25 18.7283 17.25 18.7314 17.25 18.7345C17.25 18.7376 17.25 18.7407 17.25 18.7439C17.25 18.747 17.25 18.7502 17.25 18.7533C17.25 18.7565 17.25 18.7597 17.25 18.7629C17.25 18.7661 17.25 18.7693 17.25 18.7725C17.25 18.7757 17.25 18.7789 17.25 18.7822C17.25 18.7854 17.25 18.7887 17.25 18.7919C17.25 18.7952 17.25 18.7985 17.25 18.8018C17.25 18.8051 17.25 18.8084 17.25 18.8117C17.25 18.8151 17.25 18.8184 17.25 18.8218C17.25 18.8251 17.25 18.8285 17.25 18.8319C17.25 18.8353 17.25 18.8386 17.25 18.8421C17.25 18.8455 17.25 18.8489 17.25 18.8523C17.25 18.8558 17.25 18.8592 17.25 18.8627C17.25 18.8661 17.25 18.8696 17.25 18.8731C17.25 18.8766 17.25 18.8801 17.25 18.8836C17.25 18.8872 17.25 18.8907 17.25 18.8942C17.25 18.8978 17.25 18.9013 17.25 18.9049C17.25 18.9085 17.25 18.9121 17.25 18.9157C17.25 18.9193 17.25 18.9229 17.25 18.9266C17.25 18.9302 17.25 18.9338 17.25 18.9375C17.25 18.9412 17.25 18.9448 17.25 18.9485C17.25 18.9522 17.25 18.9559 17.25 18.9596C17.25 18.9634 17.25 18.9671 17.25 18.9708C17.25 18.9746 17.25 18.9784 17.25 18.9821C17.25 18.9859 17.25 18.9897 17.25 18.9935C17.25 18.9973 17.25 19.0011 17.25 19.005C17.25 19.0088 17.25 19.0127 17.25 19.0165C17.25 19.0204 17.25 19.0243 17.25 19.0282C17.25 19.0321 17.25 19.036 17.25 19.0399C17.25 19.0438 17.25 19.0478 17.25 19.0517C17.25 19.0557 17.25 19.0596 17.25 19.0636C17.25 19.0676 17.25 19.0716 17.25 19.0756C17.25 19.0796 17.25 19.0837 17.25 19.0877C17.25 19.0917 17.25 19.0958 17.25 19.0999C17.25 19.1039 17.25 19.108 17.25 19.1121C17.25 19.1162 17.25 19.1204 17.25 19.1245C17.25 19.1286 17.25 19.1328 17.25 19.1369C17.25 19.1411 17.25 19.1453 17.25 19.1495C17.25 19.1537 17.25 19.1579 17.25 19.1621C17.25 19.1663 17.25 19.1706 17.25 19.1748C17.25 19.1791 17.25 19.1834 17.25 19.1877C17.25 19.1919 17.25 19.1962 17.25 19.2006C17.25 19.2049 17.25 19.2092 17.25 19.2136C17.25 19.2179 17.25 19.2223 17.25 19.2267C17.25 19.231 17.25 19.2354 17.25 19.2399C17.25 19.2443 17.25 19.2487 17.25 19.2531C17.25 19.2576 17.25 19.262 17.25 19.2665C17.25 19.271 17.25 19.2755 17.25 19.28C17.25 19.2845 17.25 19.289 17.25 19.2936C17.25 19.2981 17.25 19.3027 17.25 19.3072C17.25 19.3118 17.25 19.3164 17.25 19.321C17.25 19.3256 17.25 19.3302 17.25 19.3348C17.25 19.3395 17.25 19.3441 17.25 19.3488C17.25 19.3535 17.25 19.3581 17.25 19.3628C17.25 19.3675 17.25 19.3723 17.25 19.377C17.25 19.3817 17.25 19.3865 17.25 19.3912C17.25 19.396 17.25 19.4008 17.25 19.4056C17.25 19.4104 17.25 19.4152 17.25 19.42C17.25 19.4248 17.25 19.4297 17.25 19.4346C17.25 19.4394 17.25 19.4443 17.25 19.4492C17.25 19.4541 17.25 19.459 17.25 19.4639C17.25 19.4689 17.25 19.4738 17.25 19.4788C17.25 19.4837 17.25 19.4887 17.25 19.4937C17.25 19.4987 17.25 19.5037 17.25 19.5087C17.25 19.5138 17.25 19.5188 17.25 19.5239C17.25 19.5289 17.25 19.534 17.25 19.5391C17.25 19.5442 17.25 19.5493 17.25 19.5545C17.25 19.5596 17.25 19.5647 17.25 19.5699C17.25 19.5751 17.25 19.5802 17.25 19.5854C17.25 19.5906 17.25 19.5959 17.25 19.6011C17.25 19.6063 17.25 19.6116 17.25 19.6168C17.25 19.6221 17.25 19.6274 17.25 19.6327C17.25 19.638 17.25 19.6433 17.25 19.6486C17.25 19.654 17.25 19.6593 17.25 19.6647C17.25 19.6701 17.25 19.6755 17.25 19.6809C17.25 19.6863 17.25 19.6917 17.25 19.6971C17.25 19.7026 17.25 19.708 17.25 19.7135C17.25 19.719 17.25 19.7245 17.25 19.73C17.25 19.7355 17.25 19.741 17.25 19.7466C17.25 19.7521 17.25 19.7577 17.25 19.7632C17.25 19.7688 17.25 19.7744 17.25 19.78C17.25 19.7857 17.25 19.7913 17.25 19.7969C17.25 19.8026 17.25 19.8083 17.25 19.8139C17.25 19.8196 17.25 19.8253 17.25 19.8311C17.25 19.8368 17.25 19.8425 17.25 19.8483C17.25 19.854 17.25 19.8598 17.25 19.8656C17.25 19.8714 17.25 19.8772 17.25 19.883C17.25 19.8889 17.25 19.8947 17.25 19.9006C17.25 19.9064 17.25 19.9123 17.25 19.9182C17.25 19.9241 17.25 19.9301 17.25 19.936C17.25 19.9419 17.25 19.9479 17.25 19.9539C17.25 19.9598 17.25 19.9658 17.25 19.9718C17.25 19.9779 17.25 19.9839 17.25 19.9899C17.25 19.996 17.25 20.0021 17.25 20.0081C17.25 20.0142 17.25 20.0203 17.25 20.0264C17.25 20.0326 17.25 20.0387 17.25 20.0449C17.25 20.051 17.25 20.0572 17.25 20.0634C17.25 20.0696 17.25 20.0758 17.25 20.082C17.25 20.0883 17.25 20.0945 17.25 20.1008C17.25 20.1071 17.25 20.1134 17.25 20.1197C17.25 20.126 17.25 20.1323 17.25 20.1387C17.25 20.145 17.25 20.1514 17.25 20.1578C17.25 20.1641 17.25 20.1705 17.25 20.177C17.25 20.1834 17.25 20.1898 17.25 20.1963C17.25 20.2027 17.25 20.2092 17.25 20.2157C17.25 20.2222 17.25 20.2287 17.25 20.2353C17.25 20.2418 17.25 20.2484 17.25 20.2549C17.25 20.2615 17.25 20.2681 17.25 20.2747C17.25 20.2813 17.25 20.288 17.25 20.2946C17.25 20.3013 17.25 20.3079 17.25 20.3146C17.25 20.3213 17.25 20.328 17.25 20.3347C17.25 20.3415 17.25 20.3482 17.25 20.355C17.25 20.3618 17.25 20.3685 17.25 20.3754C17.25 20.3822 17.25 20.389 17.25 20.3958C17.25 20.4027 17.25 20.4095 17.25 20.4164C17.25 20.4233 17.25 20.4302 17.25 20.4371C17.25 20.4441 17.25 20.451 17.25 20.458C17.25 20.4649 17.25 20.4719 17.25 20.4789C17.25 20.4859 17.25 20.4929 17.25 20.5C17.25 20.507 17.25 20.5141 17.25 20.5212C17.25 20.5282 17.25 20.5353 17.25 20.5425C17.25 20.5496 17.25 20.5567 17.25 20.5639C17.25 20.5711 17.25 20.5782 17.25 20.5854C17.25 20.5926 17.25 20.5999 17.25 20.6071C17.25 20.6143 17.25 20.6216 17.25 20.6289C17.25 20.6362 17.25 20.6435 17.25 20.6508C17.25 20.6581 17.25 20.6655 17.25 20.6728C17.25 20.6802 17.25 20.6876 17.25 20.695C17.25 20.7024 17.25 20.7098 17.25 20.7173C17.25 20.7247 17.25 20.7322 17.25 20.7396C17.25 20.7471 17.25 20.7546 17.25 20.7622C17.25 20.7697 17.25 20.7772 17.25 20.7848C17.25 20.7924 17.25 20.8 17.25 20.8076C17.25 20.8152 17.25 20.8228 17.25 20.8305C17.25 20.8381 17.25 20.8458 17.25 20.8535C17.25 20.8612 17.25 20.8689 17.25 20.8766C17.25 20.8843 17.25 20.8921 17.25 20.8999C17.25 20.9076 17.25 20.9154 17.25 20.9233C17.25 20.9311 17.25 20.9389 17.25 20.9468C17.25 20.9546 17.25 20.9625 17.25 20.9704C17.25 20.9783 17.25 20.9862 17.25 20.9942C17.25 21.0021 17.25 21.0101 17.25 21.0181C17.25 21.026 17.25 21.034 17.25 21.0421C17.25 21.0501 17.25 21.0581 17.25 21.0662C17.25 21.0743 17.25 21.0824 17.25 21.0905C17.25 21.0986 17.25 21.1067 17.25 21.1149C17.25 21.123 17.25 21.1312 17.25 21.1394C17.25 21.1476 17.25 21.1558 17.25 21.1641C17.25 21.1723 17.25 21.1806 17.25 21.1888C17.25 21.1971 17.25 21.2054 17.25 21.2138C17.25 21.2221 17.25 21.2304 17.25 21.2388C17.25 21.2472 17.25 21.2556 17.25 21.264C17.25 21.2724 17.25 21.2808 17.25 21.2893C17.25 21.2977 17.25 21.3062 17.25 21.3147C17.25 21.3232 17.25 21.3317 17.25 21.3403C17.25 21.3488 17.25 21.3574 17.25 21.366C17.25 21.3746 17.25 21.3832 17.25 21.3918C17.25 21.4004 17.25 21.4091 17.25 21.4177C17.25 21.4264 17.25 21.4351 17.25 21.4438C17.25 21.4526 17.25 21.4613 17.25 21.4701C17.25 21.4788 17.25 21.4876 17.25 21.4964C17.25 21.5052 17.25 21.5141 17.25 21.5229C17.25 21.5318 17.25 21.5406 17.25 21.5495C17.25 21.5584 17.25 21.5673 17.25 21.5763C17.25 21.5852 17.25 21.5942 17.25 21.6032C17.25 21.6122 17.25 21.6212 17.25 21.6302C17.25 21.6392 17.25 21.6483 17.25 21.6573C17.25 21.6664 17.25 21.6755 17.25 21.6846C17.25 21.6938 17.25 21.7029 17.25 21.7121C17.25 21.7212 17.25 21.7304 17.25 21.7396C17.25 21.7488 17.25 21.7581 17.25 21.7673C17.25 21.7766 17.25 21.7859 17.25 21.7952C17.25 21.8045 17.25 21.8138 17.25 21.8231C17.25 21.8325 17.25 21.8419 17.25 21.8513C17.25 21.8607 17.25 21.8701 17.25 21.8795C17.25 21.8889 17.25 21.8984 17.25 21.9079C17.25 21.9174 17.25 21.9269 17.25 21.9364C17.25 21.946 17.25 21.9555 17.25 21.9651C17.25 21.9747 17.25 21.9843 17.25 21.9939C17.25 22.0035 17.25 22.0132 17.25 22.0228C17.25 22.0325 17.25 22.0422 17.25 22.0519C17.25 22.0616 17.25 22.0714 17.25 22.0811C17.25 22.0909 17.25 22.1007 17.25 22.1105C17.25 22.1203 17.25 22.1301 17.25 22.14C17.25 22.1498 17.25 22.1597 17.25 22.1696C17.25 22.1795 17.25 22.1895 17.25 22.1994C17.25 22.2094 17.25 22.2193 17.25 22.2293C17.25 22.2393 17.25 22.2494 17.25 22.2594C17.25 22.2695 17.25 22.2795 17.25 22.2896C17.25 22.2997 17.25 22.3098 17.25 22.32C17.25 22.3301 17.25 22.3403 17.25 22.3505C17.25 22.3606 17.25 22.3709 17.25 22.3811C17.25 22.3913 17.25 22.4016 17.25 22.4119C17.25 22.4222 17.25 22.4325 17.25 22.4428C17.25 22.4531 17.25 22.4635 17.25 22.4739C17.25 22.4842 17.25 22.4947 17.25 22.5051C17.25 22.5155 17.25 22.526 17.25 22.5364C17.25 22.5469 17.25 22.5574 17.25 22.5679C17.25 22.5785 17.25 22.589 17.25 22.5996C17.25 22.6102 17.25 22.6208 17.25 22.6314C17.25 22.642 17.25 22.6527 17.25 22.6633C17.25 22.674 17.25 22.6847 17.25 22.6954C17.25 22.7061 17.25 22.7169 17.25 22.7276C17.25 22.7384 17.25 22.7492 17.25 22.76C17.25 22.7708 17.25 22.7817 17.25 22.7926C17.25 22.8034 17.25 22.8143 17.25 22.8252C17.25 22.8361 17.25 22.8471 17.25 22.8581C17.25 22.869 17.25 22.88 17.25 22.891C17.25 22.902 17.25 22.9131 17.25 22.9242C17.25 22.9352 17.25 22.9463 17.25 22.9574C17.25 22.9685 17.25 22.9797 17.25 22.9908C17.25 23.002 17.25 23.0132 17.25 23.0244C17.25 23.0356 17.25 23.0469 17.25 23.0581C17.25 23.0694 17.25 23.0807 17.25 23.092C17.25 23.1033 17.25 23.1147 17.25 23.126C17.25 23.1374 17.25 23.1488 17.25 23.1602C17.25 23.1716 17.25 23.1831 17.25 23.1945C17.25 23.206 17.25 23.2175 17.25 23.229C17.25 23.2405 17.25 23.2521 17.25 23.2636C17.25 23.2752 17.25 23.2868 17.25 23.2984C17.25 23.31 17.25 23.3217 17.25 23.3333C17.25 23.345 17.25 23.3567 17.25 23.3684C17.25 23.3802 17.25 23.3919 17.25 23.4037C17.25 23.4155 17.25 23.4272 17.25 23.4391C17.25 23.4509 17.25 23.4627 17.25 23.4746C17.25 23.4865 17.25 23.4984 17.25 23.5103C17.25 23.5223 17.25 23.5342 17.25 23.5462C17.25 23.5582 17.25 23.5702 17.25 23.5822C17.25 23.5942 17.25 23.6063 17.25 23.6184C17.25 23.6305 17.25 23.6426 17.25 23.6547C17.25 23.6668 17.25 23.679 17.25 23.6912C17.25 23.7034 17.25 23.7156 17.25 23.7278C17.25 23.7401 17.25 23.7523 17.25 23.7646C17.25 23.7769 17.25 23.7892 17.25 23.8016C17.25 23.8139 17.25 23.8263 17.25 23.8387C17.25 23.8511 17.25 23.8635 17.25 23.8759C17.25 23.8884 17.25 23.9009 17.25 23.9134C17.25 23.9259 17.25 23.9384 17.25 23.951C17.25 23.9635 17.25 23.9761 17.25 23.9887C17.25 24.0013 17.25 24.0139 17.25 24.0266C17.25 24.0393 17.25 24.0519 17.25 24.0647C17.25 24.0774 17.25 24.0901 17.25 24.1029C17.25 24.1157 17.25 24.1284 17.25 24.1413C17.25 24.1541 17.25 24.1669 17.25 24.1798C17.25 24.1927 17.25 24.2056 17.25 24.2185C17.25 24.2314 17.25 24.2444 17.25 24.2574C17.25 24.2704 17.25 24.2834 17.25 24.2964C17.25 24.3094 17.25 24.3225 17.25 24.3356C17.25 24.3487 17.25 24.3618 17.25 24.3749C17.25 24.3881 17.25 24.4013 17.25 24.4145C17.25 24.4277 17.25 24.4409 17.25 24.4541C17.25 24.4674 17.25 24.4807 17.25 24.494C17.25 24.5073 17.25 24.5206 17.25 24.534C17.25 24.5473 17.25 24.5607 17.25 24.5742C17.25 24.5876 17.25 24.601 17.25 24.6145C17.25 24.628 17.25 24.6415 17.25 24.655C17.25 24.6685 17.25 24.6821 17.25 24.6956C17.25 24.7092 17.25 24.7228 17.25 24.7365C17.25 24.7501 17.25 24.7638 17.25 24.7775C17.25 24.7912 17.25 24.8049 17.25 24.8186C17.25 24.8324 17.25 24.8461 17.25 24.8599C17.25 24.8737 17.25 24.8876 17.25 24.9014C17.25 24.9153 17.25 24.9292 17.25 24.9431C17.25 24.957 17.25 24.9709 17.25 24.9849C17.25 24.9989 17.25 25.0129 17.25 25.0269C17.25 25.0409 17.25 25.055 17.25 25.0691C17.25 25.0832 17.25 25.0973 17.25 25.1114C17.25 25.1255 17.25 25.1397 17.25 25.1539C17.25 25.1681 17.25 25.1823 17.25 25.1966C17.25 25.2108 17.25 25.2251 17.25 25.2394C17.25 25.2537 17.25 25.268 17.25 25.2824C17.25 25.2968 17.25 25.3112 17.25 25.3256C17.25 25.34 17.25 25.3545 17.25 25.3689C17.25 25.3834 17.25 25.3979 17.25 25.4125C17.25 25.427 17.25 25.4415 17.25 25.4561C17.25 25.4707 17.25 25.4854 17.25 25.5H18.75C18.75 25.4854 18.75 25.4707 18.75 25.4561C18.75 25.4415 18.75 25.427 18.75 25.4125C18.75 25.3979 18.75 25.3834 18.75 25.3689C18.75 25.3545 18.75 25.34 18.75 25.3256C18.75 25.3112 18.75 25.2968 18.75 25.2824C18.75 25.268 18.75 25.2537 18.75 25.2394C18.75 25.2251 18.75 25.2108 18.75 25.1966C18.75 25.1823 18.75 25.1681 18.75 25.1539C18.75 25.1397 18.75 25.1255 18.75 25.1114C18.75 25.0973 18.75 25.0832 18.75 25.0691C18.75 25.055 18.75 25.0409 18.75 25.0269C18.75 25.0129 18.75 24.9989 18.75 24.9849C18.75 24.9709 18.75 24.957 18.75 24.9431C18.75 24.9292 18.75 24.9153 18.75 24.9014C18.75 24.8876 18.75 24.8737 18.75 24.8599C18.75 24.8461 18.75 24.8324 18.75 24.8186C18.75 24.8049 18.75 24.7912 18.75 24.7775C18.75 24.7638 18.75 24.7501 18.75 24.7365C18.75 24.7228 18.75 24.7092 18.75 24.6956C18.75 24.6821 18.75 24.6685 18.75 24.655C18.75 24.6415 18.75 24.628 18.75 24.6145C18.75 24.601 18.75 24.5876 18.75 24.5742C18.75 24.5607 18.75 24.5473 18.75 24.534C18.75 24.5206 18.75 24.5073 18.75 24.494C18.75 24.4807 18.75 24.4674 18.75 24.4541C18.75 24.4409 18.75 24.4277 18.75 24.4145C18.75 24.4013 18.75 24.3881 18.75 24.3749C18.75 24.3618 18.75 24.3487 18.75 24.3356C18.75 24.3225 18.75 24.3094 18.75 24.2964C18.75 24.2834 18.75 24.2704 18.75 24.2574C18.75 24.2444 18.75 24.2314 18.75 24.2185C18.75 24.2056 18.75 24.1927 18.75 24.1798C18.75 24.1669 18.75 24.1541 18.75 24.1413C18.75 24.1284 18.75 24.1157 18.75 24.1029C18.75 24.0901 18.75 24.0774 18.75 24.0647C18.75 24.0519 18.75 24.0393 18.75 24.0266C18.75 24.0139 18.75 24.0013 18.75 23.9887C18.75 23.9761 18.75 23.9635 18.75 23.951C18.75 23.9384 18.75 23.9259 18.75 23.9134C18.75 23.9009 18.75 23.8884 18.75 23.8759C18.75 23.8635 18.75 23.8511 18.75 23.8387C18.75 23.8263 18.75 23.8139 18.75 23.8016C18.75 23.7892 18.75 23.7769 18.75 23.7646C18.75 23.7523 18.75 23.7401 18.75 23.7278C18.75 23.7156 18.75 23.7034 18.75 23.6912C18.75 23.679 18.75 23.6668 18.75 23.6547C18.75 23.6426 18.75 23.6305 18.75 23.6184C18.75 23.6063 18.75 23.5942 18.75 23.5822C18.75 23.5702 18.75 23.5582 18.75 23.5462C18.75 23.5342 18.75 23.5223 18.75 23.5103C18.75 23.4984 18.75 23.4865 18.75 23.4746C18.75 23.4627 18.75 23.4509 18.75 23.4391C18.75 23.4272 18.75 23.4155 18.75 23.4037C18.75 23.3919 18.75 23.3802 18.75 23.3684C18.75 23.3567 18.75 23.345 18.75 23.3333C18.75 23.3217 18.75 23.31 18.75 23.2984C18.75 23.2868 18.75 23.2752 18.75 23.2636C18.75 23.2521 18.75 23.2405 18.75 23.229C18.75 23.2175 18.75 23.206 18.75 23.1945C18.75 23.1831 18.75 23.1716 18.75 23.1602C18.75 23.1488 18.75 23.1374 18.75 23.126C18.75 23.1147 18.75 23.1033 18.75 23.092C18.75 23.0807 18.75 23.0694 18.75 23.0581C18.75 23.0469 18.75 23.0356 18.75 23.0244C18.75 23.0132 18.75 23.002 18.75 22.9908C18.75 22.9797 18.75 22.9685 18.75 22.9574C18.75 22.9463 18.75 22.9352 18.75 22.9242C18.75 22.9131 18.75 22.902 18.75 22.891C18.75 22.88 18.75 22.869 18.75 22.8581C18.75 22.8471 18.75 22.8361 18.75 22.8252C18.75 22.8143 18.75 22.8034 18.75 22.7926C18.75 22.7817 18.75 22.7708 18.75 22.76C18.75 22.7492 18.75 22.7384 18.75 22.7276C18.75 22.7169 18.75 22.7061 18.75 22.6954C18.75 22.6847 18.75 22.674 18.75 22.6633C18.75 22.6527 18.75 22.642 18.75 22.6314C18.75 22.6208 18.75 22.6102 18.75 22.5996C18.75 22.589 18.75 22.5785 18.75 22.5679C18.75 22.5574 18.75 22.5469 18.75 22.5364C18.75 22.526 18.75 22.5155 18.75 22.5051C18.75 22.4947 18.75 22.4842 18.75 22.4739C18.75 22.4635 18.75 22.4531 18.75 22.4428C18.75 22.4325 18.75 22.4222 18.75 22.4119C18.75 22.4016 18.75 22.3913 18.75 22.3811C18.75 22.3709 18.75 22.3606 18.75 22.3505C18.75 22.3403 18.75 22.3301 18.75 22.32C18.75 22.3098 18.75 22.2997 18.75 22.2896C18.75 22.2795 18.75 22.2695 18.75 22.2594C18.75 22.2494 18.75 22.2393 18.75 22.2293C18.75 22.2193 18.75 22.2094 18.75 22.1994C18.75 22.1895 18.75 22.1795 18.75 22.1696C18.75 22.1597 18.75 22.1498 18.75 22.14C18.75 22.1301 18.75 22.1203 18.75 22.1105C18.75 22.1007 18.75 22.0909 18.75 22.0811C18.75 22.0714 18.75 22.0616 18.75 22.0519C18.75 22.0422 18.75 22.0325 18.75 22.0228C18.75 22.0132 18.75 22.0035 18.75 21.9939C18.75 21.9843 18.75 21.9747 18.75 21.9651C18.75 21.9555 18.75 21.946 18.75 21.9364C18.75 21.9269 18.75 21.9174 18.75 21.9079C18.75 21.8984 18.75 21.8889 18.75 21.8795C18.75 21.8701 18.75 21.8607 18.75 21.8513C18.75 21.8419 18.75 21.8325 18.75 21.8231C18.75 21.8138 18.75 21.8045 18.75 21.7952C18.75 21.7859 18.75 21.7766 18.75 21.7673C18.75 21.7581 18.75 21.7488 18.75 21.7396C18.75 21.7304 18.75 21.7212 18.75 21.7121C18.75 21.7029 18.75 21.6938 18.75 21.6846C18.75 21.6755 18.75 21.6664 18.75 21.6573C18.75 21.6483 18.75 21.6392 18.75 21.6302C18.75 21.6212 18.75 21.6122 18.75 21.6032C18.75 21.5942 18.75 21.5852 18.75 21.5763C18.75 21.5673 18.75 21.5584 18.75 21.5495C18.75 21.5406 18.75 21.5318 18.75 21.5229C18.75 21.5141 18.75 21.5052 18.75 21.4964C18.75 21.4876 18.75 21.4788 18.75 21.4701C18.75 21.4613 18.75 21.4526 18.75 21.4438C18.75 21.4351 18.75 21.4264 18.75 21.4177C18.75 21.4091 18.75 21.4004 18.75 21.3918C18.75 21.3832 18.75 21.3746 18.75 21.366C18.75 21.3574 18.75 21.3488 18.75 21.3403C18.75 21.3317 18.75 21.3232 18.75 21.3147C18.75 21.3062 18.75 21.2977 18.75 21.2893C18.75 21.2808 18.75 21.2724 18.75 21.264C18.75 21.2556 18.75 21.2472 18.75 21.2388C18.75 21.2304 18.75 21.2221 18.75 21.2138C18.75 21.2054 18.75 21.1971 18.75 21.1888C18.75 21.1806 18.75 21.1723 18.75 21.1641C18.75 21.1558 18.75 21.1476 18.75 21.1394C18.75 21.1312 18.75 21.123 18.75 21.1149C18.75 21.1067 18.75 21.0986 18.75 21.0905C18.75 21.0824 18.75 21.0743 18.75 21.0662C18.75 21.0581 18.75 21.0501 18.75 21.0421C18.75 21.034 18.75 21.026 18.75 21.0181C18.75 21.0101 18.75 21.0021 18.75 20.9942C18.75 20.9862 18.75 20.9783 18.75 20.9704C18.75 20.9625 18.75 20.9546 18.75 20.9468C18.75 20.9389 18.75 20.9311 18.75 20.9233C18.75 20.9154 18.75 20.9076 18.75 20.8999C18.75 20.8921 18.75 20.8843 18.75 20.8766C18.75 20.8689 18.75 20.8612 18.75 20.8535C18.75 20.8458 18.75 20.8381 18.75 20.8305C18.75 20.8228 18.75 20.8152 18.75 20.8076C18.75 20.8 18.75 20.7924 18.75 20.7848C18.75 20.7772 18.75 20.7697 18.75 20.7622C18.75 20.7546 18.75 20.7471 18.75 20.7396C18.75 20.7322 18.75 20.7247 18.75 20.7173C18.75 20.7098 18.75 20.7024 18.75 20.695C18.75 20.6876 18.75 20.6802 18.75 20.6728C18.75 20.6655 18.75 20.6581 18.75 20.6508C18.75 20.6435 18.75 20.6362 18.75 20.6289C18.75 20.6216 18.75 20.6143 18.75 20.6071C18.75 20.5999 18.75 20.5926 18.75 20.5854C18.75 20.5782 18.75 20.5711 18.75 20.5639C18.75 20.5567 18.75 20.5496 18.75 20.5425C18.75 20.5353 18.75 20.5282 18.75 20.5212C18.75 20.5141 18.75 20.507 18.75 20.5C18.75 20.4929 18.75 20.4859 18.75 20.4789C18.75 20.4719 18.75 20.4649 18.75 20.458C18.75 20.451 18.75 20.4441 18.75 20.4371C18.75 20.4302 18.75 20.4233 18.75 20.4164C18.75 20.4095 18.75 20.4027 18.75 20.3958C18.75 20.389 18.75 20.3822 18.75 20.3754C18.75 20.3685 18.75 20.3618 18.75 20.355C18.75 20.3482 18.75 20.3415 18.75 20.3347C18.75 20.328 18.75 20.3213 18.75 20.3146C18.75 20.3079 18.75 20.3013 18.75 20.2946C18.75 20.288 18.75 20.2813 18.75 20.2747C18.75 20.2681 18.75 20.2615 18.75 20.2549C18.75 20.2484 18.75 20.2418 18.75 20.2353C18.75 20.2287 18.75 20.2222 18.75 20.2157C18.75 20.2092 18.75 20.2027 18.75 20.1963C18.75 20.1898 18.75 20.1834 18.75 20.177C18.75 20.1705 18.75 20.1641 18.75 20.1578C18.75 20.1514 18.75 20.145 18.75 20.1387C18.75 20.1323 18.75 20.126 18.75 20.1197C18.75 20.1134 18.75 20.1071 18.75 20.1008C18.75 20.0945 18.75 20.0883 18.75 20.082C18.75 20.0758 18.75 20.0696 18.75 20.0634C18.75 20.0572 18.75 20.051 18.75 20.0449C18.75 20.0387 18.75 20.0326 18.75 20.0264C18.75 20.0203 18.75 20.0142 18.75 20.0081C18.75 20.0021 18.75 19.996 18.75 19.9899C18.75 19.9839 18.75 19.9779 18.75 19.9718C18.75 19.9658 18.75 19.9598 18.75 19.9539C18.75 19.9479 18.75 19.9419 18.75 19.936C18.75 19.9301 18.75 19.9241 18.75 19.9182C18.75 19.9123 18.75 19.9064 18.75 19.9006C18.75 19.8947 18.75 19.8889 18.75 19.883C18.75 19.8772 18.75 19.8714 18.75 19.8656C18.75 19.8598 18.75 19.854 18.75 19.8483C18.75 19.8425 18.75 19.8368 18.75 19.8311C18.75 19.8253 18.75 19.8196 18.75 19.8139C18.75 19.8083 18.75 19.8026 18.75 19.7969C18.75 19.7913 18.75 19.7857 18.75 19.78C18.75 19.7744 18.75 19.7688 18.75 19.7632C18.75 19.7577 18.75 19.7521 18.75 19.7466C18.75 19.741 18.75 19.7355 18.75 19.73C18.75 19.7245 18.75 19.719 18.75 19.7135C18.75 19.708 18.75 19.7026 18.75 19.6971C18.75 19.6917 18.75 19.6863 18.75 19.6809C18.75 19.6755 18.75 19.6701 18.75 19.6647C18.75 19.6593 18.75 19.654 18.75 19.6486C18.75 19.6433 18.75 19.638 18.75 19.6327C18.75 19.6274 18.75 19.6221 18.75 19.6168C18.75 19.6116 18.75 19.6063 18.75 19.6011C18.75 19.5959 18.75 19.5906 18.75 19.5854C18.75 19.5802 18.75 19.5751 18.75 19.5699C18.75 19.5647 18.75 19.5596 18.75 19.5545C18.75 19.5493 18.75 19.5442 18.75 19.5391C18.75 19.534 18.75 19.5289 18.75 19.5239C18.75 19.5188 18.75 19.5138 18.75 19.5087C18.75 19.5037 18.75 19.4987 18.75 19.4937C18.75 19.4887 18.75 19.4837 18.75 19.4788C18.75 19.4738 18.75 19.4689 18.75 19.4639C18.75 19.459 18.75 19.4541 18.75 19.4492C18.75 19.4443 18.75 19.4394 18.75 19.4346C18.75 19.4297 18.75 19.4248 18.75 19.42C18.75 19.4152 18.75 19.4104 18.75 19.4056C18.75 19.4008 18.75 19.396 18.75 19.3912C18.75 19.3865 18.75 19.3817 18.75 19.377C18.75 19.3723 18.75 19.3675 18.75 19.3628C18.75 19.3581 18.75 19.3535 18.75 19.3488C18.75 19.3441 18.75 19.3395 18.75 19.3348C18.75 19.3302 18.75 19.3256 18.75 19.321C18.75 19.3164 18.75 19.3118 18.75 19.3072C18.75 19.3027 18.75 19.2981 18.75 19.2936C18.75 19.289 18.75 19.2845 18.75 19.28C18.75 19.2755 18.75 19.271 18.75 19.2665C18.75 19.262 18.75 19.2576 18.75 19.2531C18.75 19.2487 18.75 19.2443 18.75 19.2399C18.75 19.2354 18.75 19.231 18.75 19.2267C18.75 19.2223 18.75 19.2179 18.75 19.2136C18.75 19.2092 18.75 19.2049 18.75 19.2006C18.75 19.1962 18.75 19.1919 18.75 19.1877C18.75 19.1834 18.75 19.1791 18.75 19.1748C18.75 19.1706 18.75 19.1663 18.75 19.1621C18.75 19.1579 18.75 19.1537 18.75 19.1495C18.75 19.1453 18.75 19.1411 18.75 19.1369C18.75 19.1328 18.75 19.1286 18.75 19.1245C18.75 19.1204 18.75 19.1162 18.75 19.1121C18.75 19.108 18.75 19.1039 18.75 19.0999C18.75 19.0958 18.75 19.0917 18.75 19.0877C18.75 19.0837 18.75 19.0796 18.75 19.0756C18.75 19.0716 18.75 19.0676 18.75 19.0636C18.75 19.0596 18.75 19.0557 18.75 19.0517C18.75 19.0478 18.75 19.0438 18.75 19.0399C18.75 19.036 18.75 19.0321 18.75 19.0282C18.75 19.0243 18.75 19.0204 18.75 19.0165C18.75 19.0127 18.75 19.0088 18.75 19.005C18.75 19.0011 18.75 18.9973 18.75 18.9935C18.75 18.9897 18.75 18.9859 18.75 18.9821C18.75 18.9784 18.75 18.9746 18.75 18.9708C18.75 18.9671 18.75 18.9634 18.75 18.9596C18.75 18.9559 18.75 18.9522 18.75 18.9485C18.75 18.9448 18.75 18.9412 18.75 18.9375C18.75 18.9338 18.75 18.9302 18.75 18.9266C18.75 18.9229 18.75 18.9193 18.75 18.9157C18.75 18.9121 18.75 18.9085 18.75 18.9049C18.75 18.9013 18.75 18.8978 18.75 18.8942C18.75 18.8907 18.75 18.8872 18.75 18.8836C18.75 18.8801 18.75 18.8766 18.75 18.8731C18.75 18.8696 18.75 18.8661 18.75 18.8627C18.75 18.8592 18.75 18.8558 18.75 18.8523C18.75 18.8489 18.75 18.8455 18.75 18.8421C18.75 18.8386 18.75 18.8353 18.75 18.8319C18.75 18.8285 18.75 18.8251 18.75 18.8218C18.75 18.8184 18.75 18.8151 18.75 18.8117C18.75 18.8084 18.75 18.8051 18.75 18.8018C18.75 18.7985 18.75 18.7952 18.75 18.7919C18.75 18.7887 18.75 18.7854 18.75 18.7822C18.75 18.7789 18.75 18.7757 18.75 18.7725C18.75 18.7693 18.75 18.7661 18.75 18.7629C18.75 18.7597 18.75 18.7565 18.75 18.7533C18.75 18.7502 18.75 18.747 18.75 18.7439C18.75 18.7407 18.75 18.7376 18.75 18.7345C18.75 18.7314 18.75 18.7283 18.75 18.7252C18.75 18.7221 18.75 18.719 18.75 18.716C18.75 18.7129 18.75 18.7099 18.75 18.7068C18.75 18.7038 18.75 18.7008 18.75 18.6978C18.75 18.6948 18.75 18.6918 18.75 18.6888C18.75 18.6858 18.75 18.6828 18.75 18.6799C18.75 18.6769 18.75 18.674 18.75 18.6711C18.75 18.6681 18.75 18.6652 18.75 18.6623C18.75 18.6594 18.75 18.6565 18.75 18.6536C18.75 18.6507 18.75 18.6479 18.75 18.645C18.75 18.6422 18.75 18.6393 18.75 18.6365C18.75 18.6337 18.75 18.6309 18.75 18.6281C18.75 18.6252 18.75 18.6225 18.75 18.6197C18.75 18.6169 18.75 18.6141 18.75 18.6114C18.75 18.6086 18.75 18.6059 18.75 18.6032C18.75 18.6004 18.75 18.5977 18.75 18.595C18.75 18.5923 18.75 18.5896 18.75 18.5869C18.75 18.5842 18.75 18.5816 18.75 18.5789C18.75 18.5763 18.75 18.5736 18.75 18.571C18.75 18.5684 18.75 18.5657 18.75 18.5631C18.75 18.5605 18.75 18.5579 18.75 18.5553C18.75 18.5528 18.75 18.5502 18.75 18.5476C18.75 18.5451 18.75 18.5425 18.75 18.54C18.75 18.5375 18.75 18.5349 18.75 18.5324C18.75 18.5299 18.75 18.5274 18.75 18.5249C18.75 18.5224 18.75 18.52 18.75 18.5175C18.75 18.515 18.75 18.5126 18.75 18.5101C18.75 18.5077 18.75 18.5053 18.75 18.5029C18.75 18.5004 18.75 18.498 18.75 18.4956C18.75 18.4932 18.75 18.4909 18.75 18.4885C18.75 18.4861 18.75 18.4838 18.75 18.4814C18.75 18.4791 18.75 18.4767 18.75 18.4744C18.75 18.4721 18.75 18.4698 18.75 18.4675C18.75 18.4652 18.75 18.4629 18.75 18.4606C18.75 18.4583 18.75 18.456 18.75 18.4538C18.75 18.4515 18.75 18.4493 18.75 18.447C18.75 18.4448 18.75 18.4426 18.75 18.4404C18.75 18.4381 18.75 18.4359 18.75 18.4338C18.75 18.4316 18.75 18.4294 18.75 18.4272C18.75 18.425 18.75 18.4229 18.75 18.4207C18.75 18.4186 18.75 18.4165 18.75 18.4143C18.75 18.4122 18.75 18.4101 18.75 18.408C18.75 18.4059 18.75 18.4038 18.75 18.4017C18.75 18.3996 18.75 18.3976 18.75 18.3955C18.75 18.3934 18.75 18.3914 18.75 18.3894C18.75 18.3873 18.75 18.3853 18.75 18.3833C18.75 18.3813 18.75 18.3793 18.75 18.3773C18.75 18.3753 18.75 18.3733 18.75 18.3713C18.75 18.3693 18.75 18.3674 18.75 18.3654C18.75 18.3635 18.75 18.3615 18.75 18.3596C18.75 18.3576 18.75 18.3557 18.75 18.3538C18.75 18.3519 18.75 18.35 18.75 18.3481C18.75 18.3462 18.75 18.3443 18.75 18.3425C18.75 18.3406 18.75 18.3387 18.75 18.3369C18.75 18.335 18.75 18.3332 18.75 18.3314C18.75 18.3295 18.75 18.3277 18.75 18.3259C18.75 18.3241 18.75 18.3223 18.75 18.3205C18.75 18.3187 18.75 18.3169 18.75 18.3151C18.75 18.3134 18.75 18.3116 18.75 18.3099C18.75 18.3081 18.75 18.3064 18.75 18.3046C18.75 18.3029 18.75 18.3012 18.75 18.2995C18.75 18.2978 18.75 18.2961 18.75 18.2944C18.75 18.2927 18.75 18.291 18.75 18.2893C18.75 18.2877 18.75 18.286 18.75 18.2843C18.75 18.2827 18.75 18.281 18.75 18.2794C18.75 18.2778 18.75 18.2762 18.75 18.2745C18.75 18.2729 18.75 18.2713 18.75 18.2697C18.75 18.2681 18.75 18.2665 18.75 18.265C18.75 18.2634 18.75 18.2618 18.75 18.2603C18.75 18.2587 18.75 18.2571 18.75 18.2556C18.75 18.2541 18.75 18.2525 18.75 18.251C18.75 18.2495 18.75 18.248 18.75 18.2465C18.75 18.245 18.75 18.2435 18.75 18.242C18.75 18.2405 18.75 18.239 18.75 18.2376C18.75 18.2361 18.75 18.2346 18.75 18.2332C18.75 18.2318 18.75 18.2303 18.75 18.2289C18.75 18.2275 18.75 18.226 18.75 18.2246C18.75 18.2232 18.75 18.2218 18.75 18.2204C18.75 18.219 18.75 18.2176 18.75 18.2162C18.75 18.2149 18.75 18.2135 18.75 18.2121C18.75 18.2108 18.75 18.2094 18.75 18.2081C18.75 18.2067 18.75 18.2054 18.75 18.2041C18.75 18.2028 18.75 18.2014 18.75 18.2001C18.75 18.1988 18.75 18.1975 18.75 18.1962C18.75 18.1949 18.75 18.1937 18.75 18.1924C18.75 18.1911 18.75 18.1899 18.75 18.1886C18.75 18.1873 18.75 18.1861 18.75 18.1848C18.75 18.1836 18.75 18.1824 18.75 18.1811C18.75 18.1799 18.75 18.1787 18.75 18.1775C18.75 18.1763 18.75 18.1751 18.75 18.1739C18.75 18.1727 18.75 18.1715 18.75 18.1704C18.75 18.1692 18.75 18.168 18.75 18.1669C18.75 18.1657 18.75 18.1645 18.75 18.1634C18.75 18.1623 18.75 18.1611 18.75 18.16C18.75 18.1589 18.75 18.1578 18.75 18.1566C18.75 18.1555 18.75 18.1544 18.75 18.1533C18.75 18.1522 18.75 18.1512 18.75 18.1501C18.75 18.149 18.75 18.1479 18.75 18.1469C18.75 18.1458 18.75 18.1447 18.75 18.1437C18.75 18.1426 18.75 18.1416 18.75 18.1406C18.75 18.1395 18.75 18.1385 18.75 18.1375C18.75 18.1365 18.75 18.1355 18.75 18.1345C18.75 18.1334 18.75 18.1325 18.75 18.1315C18.75 18.1305 18.75 18.1295 18.75 18.1285C18.75 18.1275 18.75 18.1266 18.75 18.1256C18.75 18.1247 18.75 18.1237 18.75 18.1228C18.75 18.1218 18.75 18.1209 18.75 18.12C18.75 18.119 18.75 18.1181 18.75 18.1172C18.75 18.1163 18.75 18.1154 18.75 18.1145C18.75 18.1136 18.75 18.1127 18.75 18.1118C18.75 18.1109 18.75 18.11 18.75 18.1091C18.75 18.1083 18.75 18.1074 18.75 18.1065C18.75 18.1057 18.75 18.1048 18.75 18.104C18.75 18.1031 18.75 18.1023 18.75 18.1015C18.75 18.1006 18.75 18.0998 18.75 18.099C18.75 18.0982 18.75 18.0974 18.75 18.0966C18.75 18.0958 18.75 18.095 18.75 18.0942C18.75 18.0934 18.75 18.0926 18.75 18.0918C18.75 18.091 18.75 18.0903 18.75 18.0895C18.75 18.0887 18.75 18.088 18.75 18.0872C18.75 18.0865 18.75 18.0857 18.75 18.085C18.75 18.0842 18.75 18.0835 18.75 18.0828C18.75 18.0821 18.75 18.0813 18.75 18.0806C18.75 18.0799 18.75 18.0792 18.75 18.0785C18.75 18.0778 18.75 18.0771 18.75 18.0764C18.75 18.0757 18.75 18.0751 18.75 18.0744C18.75 18.0737 18.75 18.073 18.75 18.0724C18.75 18.0717 18.75 18.071 18.75 18.0704C18.75 18.0697 18.75 18.0691 18.75 18.0685C18.75 18.0678 18.75 18.0672 18.75 18.0666C18.75 18.0659 18.75 18.0653 18.75 18.0647C18.75 18.0641 18.75 18.0635 18.75 18.0629C18.75 18.0623 18.75 18.0617 18.75 18.0611C18.75 18.0605 18.75 18.0599 18.75 18.0593C18.75 18.0587 18.75 18.0581 18.75 18.0576C18.75 18.057 18.75 18.0564 18.75 18.0559C18.75 18.0553 18.75 18.0548 18.75 18.0542C18.75 18.0537 18.75 18.0531 18.75 18.0526C18.75 18.0521 18.75 18.0515 18.75 18.051C18.75 18.0505 18.75 18.05 18.75 18.0494C18.75 18.0489 18.75 18.0484 18.75 18.0479C18.75 18.0474 18.75 18.0469 18.75 18.0464C18.75 18.0459 18.75 18.0454 18.75 18.0449C18.75 18.0445 18.75 18.044 18.75 18.0435C18.75 18.043 18.75 18.0426 18.75 18.0421C18.75 18.0416 18.75 18.0412 18.75 18.0407C18.75 18.0403 18.75 18.0398 18.75 18.0394C18.75 18.039 18.75 18.0385 18.75 18.0381C18.75 18.0376 18.75 18.0372 18.75 18.0368C18.75 18.0364 18.75 18.036 18.75 18.0355C18.75 18.0351 18.75 18.0347 18.75 18.0343C18.75 18.0339 18.75 18.0335 18.75 18.0331C18.75 18.0327 18.75 18.0323 18.75 18.032C18.75 18.0316 18.75 18.0312 18.75 18.0308C18.75 18.0304 18.75 18.0301 18.75 18.0297C18.75 18.0293 18.75 18.029 18.75 18.0286C18.75 18.0283 18.75 18.0279 18.75 18.0276C18.75 18.0272 18.75 18.0269 18.75 18.0265C18.75 18.0262 18.75 18.0258 18.75 18.0255C18.75 18.0252 18.75 18.0249 18.75 18.0245C18.75 18.0242 18.75 18.0239 18.75 18.0236C18.75 18.0233 18.75 18.0229 18.75 18.0226C18.75 18.0223 18.75 18.022 18.75 18.0217C18.75 18.0214 18.75 18.0211 18.75 18.0209C18.75 18.0206 18.75 18.0203 18.75 18.02C18.75 18.0197 18.75 18.0194 18.75 18.0192C18.75 18.0189 18.75 18.0186 18.75 18.0184C18.75 18.0181 18.75 18.0178 18.75 18.0176C18.75 18.0173 18.75 18.0171 18.75 18.0168C18.75 18.0166 18.75 18.0163 18.75 18.0161C18.75 18.0158 18.75 18.0156 18.75 18.0153C18.75 18.0151 18.75 18.0149 18.75 18.0146C18.75 18.0144 18.75 18.0142 18.75 18.014C18.75 18.0138 18.75 18.0135 18.75 18.0133C18.75 18.0131 18.75 18.0129 18.75 18.0127C18.75 18.0125 18.75 18.0123 18.75 18.0121C18.75 18.0119 18.75 18.0117 18.75 18.0115C18.75 18.0113 18.75 18.0111 18.75 18.0109C18.75 18.0107 18.75 18.0105 18.75 18.0103C18.75 18.0102 18.75 18.01 18.75 18.0098C18.75 18.0096 18.75 18.0095 18.75 18.0093C18.75 18.0091 18.75 18.009 18.75 18.0088C18.75 18.0086 18.75 18.0085 18.75 18.0083C18.75 18.0082 18.75 18.008 18.75 18.0079C18.75 18.0077 18.75 18.0076 18.75 18.0074C18.75 18.0073 18.75 18.0071 18.75 18.007C18.75 18.0068 18.75 18.0067 18.75 18.0066C18.75 18.0064 18.75 18.0063 18.75 18.0062C18.75 18.0061 18.75 18.0059 18.75 18.0058C18.75 18.0057 18.75 18.0056 18.75 18.0054C18.75 18.0053 18.75 18.0052 18.75 18.0051C18.75 18.005 18.75 18.0049 18.75 18.0048C18.75 18.0047 18.75 18.0045 18.75 18.0044C18.75 18.0043 18.75 18.0042 18.75 18.0041C18.75 18.004 18.75 18.0039 18.75 18.0039C18.75 18.0038 18.75 18.0037 18.75 18.0036C18.75 18.0035 18.75 18.0034 18.75 18.0033C18.75 18.0032 18.75 18.0031 18.75 18.0031C18.75 18.003 18.75 18.0029 18.75 18.0028C18.75 18.0028 18.75 18.0027 18.75 18.0026C18.75 18.0025 18.75 18.0025 18.75 18.0024C18.75 18.0023 18.75 18.0023 18.75 18.0022C18.75 18.0021 18.75 18.0021 18.75 18.002C18.75 18.0019 18.75 18.0019 18.75 18.0018C18.75 18.0018 18.75 18.0017 18.75 18.0017C18.75 18.0016 18.75 18.0016 18.75 18.0015C18.75 18.0015 18.75 18.0014 18.75 18.0014C18.75 18.0013 18.75 18.0013 18.75 18.0012C18.75 18.0012 18.75 18.0011 18.75 18.0011C18.75 18.0011 18.75 18.001 18.75 18.001C18.75 18.0009 18.75 18.0009 18.75 18.0009C18.75 18.0008 18.75 18.0008 18.75 18.0008C18.75 18.0007 18.75 18.0007 18.75 18.0007C18.75 18.0007 18.75 18.0006 18.75 18.0006C18.75 18.0006 18.75 18.0005 18.75 18.0005C18.75 18.0005 18.75 18.0005 18.75 18.0004C18.75 18.0004 18.75 18.0004 18.75 18.0004C18.75 18.0004 18.75 18.0003 18.75 18.0003C18.75 18.0003 18.75 18.0003 18.75 18.0003C18.75 18.0003 18.75 18.0002 18.75 18.0002C18.75 18.0002 18.75 18.0002 18.75 18.0002C18.75 18.0002 18.75 18.0002 18.75 18.0002C18.75 18.0001 18.75 18.0001 18.75 18.0001C18.75 18.0001 18.75 18.0001 18.75 18.0001C18.75 18.0001 18.75 18.0001 18.75 18.0001C18.75 18.0001 18.75 18.0001 18.75 18.0001C18.75 18.0001 18.75 18 18.75 18C18.75 18 18.75 18 18.75 18C18.75 18 18.75 18 18.75 18C18.75 18 18.75 18 18.75 18C18.75 18 18.75 18 18.75 18C18.75 18 18.75 18 18.75 18C18.75 18 18.75 18 18.75 18C18.75 18 18.75 18 18.75 18C18.75 18 18.75 18 18.75 18C18.75 18 18 18 18 18ZM18.75 18V10.5H17.25V18H18.75Z" fill="white"/>
</svg>
