<svg width="24" height="24" viewBox="0 0 24 24" fill="none" xmlns="http://www.w3.org/2000/svg">
<path fill-rule="evenodd" clip-rule="evenodd" d="M15.8771 8.82985C14.8921 6.4525 12.3648 5.10208 9.84094 5.60447C7.3171 6.10687 5.49961 8.32214 5.5 10.8955V10.8955C5.50012 12.326 6.06856 13.6979 7.08024 14.7092L7.08027 14.7092C8.90011 16.5287 11.7518 16.8092 13.8913 15.3793C16.0308 13.9493 16.8622 11.2072 15.8771 8.82985ZM9.5481 4.13334C12.7738 3.49124 16.0039 5.21718 17.2629 8.25564C18.5219 11.2941 17.4592 14.7988 14.7248 16.6264C11.9903 18.454 8.34563 18.0954 6.01973 15.77C4.72669 14.4774 4.00017 12.724 4 10.8957M9.5481 4.13334C6.32243 4.77543 3.99953 7.60672 4 10.8957Z" fill="black"/>
<path fill-rule="evenodd" clip-rule="evenodd" d="M14.708 14.7103C15.0008 14.4174 15.4757 14.4174 15.7686 14.7103L19.2796 18.2213C19.5725 18.5142 19.5725 18.989 19.2796 19.2819C18.9867 19.5748 18.5118 19.5748 18.219 19.2819L14.708 15.7709C14.4151 15.478 14.4151 15.0032 14.708 14.7103Z" fill="black"/>
</svg>
