<svg width="24" height="24" viewBox="0 0 24 24" fill="none" xmlns="http://www.w3.org/2000/svg">
<path fill-rule="evenodd" clip-rule="evenodd" d="M5 12.0002C5.00024 8.66068 7.35944 5.78639 10.6348 5.1351C13.9102 4.48382 17.1895 6.23693 18.4673 9.32231C19.7451 12.4077 18.6655 15.966 15.8887 17.8212C13.1119 19.6764 9.41127 19.3117 7.05 16.9502C5.73728 15.6373 4.99987 13.8568 5 12.0002Z" fill="#B3B3B3" stroke="#B3B3B3" stroke-width="1.5" stroke-linecap="round" stroke-linejoin="round"/>
<path d="M8.84477 14.0936C8.55182 14.3864 8.55173 14.8613 8.84457 15.1543C9.13741 15.4472 9.61228 15.4473 9.90523 15.1545L8.84477 14.0936ZM12.5302 12.5305C12.8232 12.2376 12.8233 11.7627 12.5304 11.4698C12.2376 11.1768 11.7627 11.1768 11.4698 11.4696L12.5302 12.5305ZM11.4695 11.4699C11.1767 11.7629 11.1769 12.2378 11.4699 12.5306C11.7629 12.8233 12.2378 12.8232 12.5305 12.5302L11.4695 11.4699ZM15.1545 9.90415C15.4473 9.61115 15.4471 9.13627 15.1541 8.84349C14.8611 8.55071 14.3862 8.55089 14.0935 8.8439L15.1545 9.90415ZM12.5302 11.4696C12.2373 11.1768 11.7624 11.1768 11.4696 11.4698C11.1767 11.7627 11.1768 12.2376 11.4698 12.5305L12.5302 11.4696ZM14.0948 15.1545C14.3877 15.4473 14.8626 15.4472 15.1554 15.1543C15.4483 14.8613 15.4482 14.3864 15.1552 14.0936L14.0948 15.1545ZM11.4696 12.5303C11.7624 12.8232 12.2373 12.8233 12.5302 12.5305C12.8232 12.2376 12.8233 11.7627 12.5304 11.4698L11.4696 12.5303ZM9.90543 8.84379C9.61259 8.55085 9.13772 8.55075 8.84477 8.84359C8.55182 9.13643 8.55173 9.6113 8.84457 9.90425L9.90543 8.84379ZM9.90523 15.1545L12.5302 12.5305L11.4698 11.4696L8.84477 14.0936L9.90523 15.1545ZM12.5305 12.5302L15.1545 9.90415L14.0935 8.8439L11.4695 11.4699L12.5305 12.5302ZM11.4698 12.5305L14.0948 15.1545L15.1552 14.0936L12.5302 11.4696L11.4698 12.5305ZM12.5304 11.4698L9.90543 8.84379L8.84457 9.90425L11.4696 12.5303L12.5304 11.4698Z" fill="white"/>
</svg>
