<svg width="12" height="16" viewBox="0 0 12 16" fill="none" xmlns="http://www.w3.org/2000/svg">
<path fill-rule="evenodd" clip-rule="evenodd" d="M7.58356 6.68931C7.1967 5.7549 6.20365 5.2239 5.21172 5.42102C4.2198 5.61815 3.50525 6.48851 3.50506 7.49984C3.50495 8.0621 3.72822 8.60138 4.12575 8.99901C4.84077 9.71422 5.96144 9.82475 6.80241 9.26302C7.64337 8.70128 7.97043 7.62371 7.58356 6.68931ZM5.07968 4.7566C6.38858 4.49648 7.69896 5.19717 8.20946 6.43017C8.71995 7.66317 8.28838 9.08508 7.17868 9.82632C6.06897 10.5676 4.59019 10.4217 3.64668 9.47796C3.12212 8.95325 2.8275 8.24165 2.82764 7.49971C2.82789 6.16521 3.77078 5.01672 5.07968 4.7566Z" fill="#0059FF"/>
<path fill-rule="evenodd" clip-rule="evenodd" d="M6.28529 7.22679C6.15485 6.91166 5.81997 6.73256 5.48545 6.79902C5.15093 6.86547 4.90993 7.15897 4.90984 7.50002C4.90979 7.68965 4.98508 7.87152 5.11913 8.00563C5.36025 8.24684 5.73818 8.28414 6.0218 8.09472C6.30541 7.9053 6.41574 7.54192 6.28529 7.22679ZM5.35346 6.13458C6.00496 6.00516 6.65716 6.35397 6.91121 6.9677C7.16525 7.58143 6.9504 8.28915 6.39803 8.65806C5.84566 9.02697 5.10962 8.95432 4.64003 8.48455C4.37894 8.22336 4.23232 7.86914 4.23242 7.49984C4.2326 6.83561 4.70196 6.264 5.35346 6.13458Z" fill="#0059FF"/>
<path fill-rule="evenodd" clip-rule="evenodd" d="M5.625 4C5.81206 4 5.96371 4.15165 5.96371 4.33871V5.04142C5.96371 5.22848 5.81206 5.38013 5.625 5.38013C5.43794 5.38013 5.28629 5.22848 5.28629 5.04142V4.33871C5.28629 4.15165 5.43794 4 5.625 4ZM2.125 7.5C2.125 7.31294 2.27665 7.16129 2.46371 7.16129H3.16642C3.35348 7.16129 3.50513 7.31294 3.50513 7.5C3.50513 7.68706 3.35348 7.83871 3.16642 7.83871H2.46371C2.27665 7.83871 2.125 7.68706 2.125 7.5ZM7.74487 7.5C7.74487 7.31294 7.89652 7.16129 8.08358 7.16129H8.78629C8.97335 7.16129 9.125 7.31294 9.125 7.5C9.125 7.68706 8.97335 7.83871 8.78629 7.83871H8.08358C7.89652 7.83871 7.74487 7.68706 7.74487 7.5ZM5.625 9.61987C5.81206 9.61987 5.96371 9.77152 5.96371 9.95858V10.6613C5.96371 10.8484 5.81206 11 5.625 11C5.43794 11 5.28629 10.8484 5.28629 10.6613V9.95858C5.28629 9.77152 5.43794 9.61987 5.625 9.61987Z" fill="#0059FF"/>
</svg>
