<svg width="24" height="24" viewBox="0 0 24 24" fill="none" xmlns="http://www.w3.org/2000/svg">
<path d="M4.75 6.46875C4.75 6.05454 4.41421 5.71875 4 5.71875C3.58579 5.71875 3.25 6.05454 3.25 6.46875H4.75ZM4 17.3507L4.75 17.3517V17.3507H4ZM4.4804 18.5145L5.01137 17.9848L4.4804 18.5145ZM5.643 18.9978L5.64209 19.7478H5.643V18.9978ZM18.357 18.9978V19.7478L18.3579 19.7477L18.357 18.9978ZM19.5196 18.5145L18.9886 17.9848L19.5196 18.5145ZM20 17.3507H19.25L19.25 17.3517L20 17.3507ZM20 8.11575L19.25 8.11484V8.11575H20ZM19.5196 6.95197L18.9886 7.48166V7.48166L19.5196 6.95197ZM18.357 6.46875L18.3579 5.71875H18.357V6.46875ZM12.536 5.71875C12.1218 5.71875 11.786 6.05454 11.786 6.46875C11.786 6.88296 12.1218 7.21875 12.536 7.21875V5.71875ZM3.25 6.471C3.25 6.88521 3.58579 7.221 4 7.221C4.41421 7.221 4.75 6.88521 4.75 6.471H3.25ZM4 5.647H4.75L4.75 5.64609L4 5.647ZM4.4804 4.48322L5.01137 5.01291V5.01291L4.4804 4.48322ZM5.643 4V3.25L5.64209 3.25L5.643 4ZM10.893 4L10.8939 3.25H10.893V4ZM12.0556 4.48322L11.5246 5.01291L12.0556 4.48322ZM12.536 5.647L11.786 5.64609V5.647H12.536ZM11.786 6.471C11.786 6.88521 12.1218 7.221 12.536 7.221C12.9502 7.221 13.286 6.88521 13.286 6.471H11.786ZM4 5.71875C3.58579 5.71875 3.25 6.05454 3.25 6.46875C3.25 6.88296 3.58579 7.21875 4 7.21875V5.71875ZM12.536 7.21875C12.9502 7.21875 13.286 6.88296 13.286 6.46875C13.286 6.05454 12.9502 5.71875 12.536 5.71875V7.21875ZM3.25 6.46875V17.3507H4.75V6.46875H3.25ZM3.25 17.3498C3.24923 17.985 3.50082 18.5945 3.94942 19.0442L5.01137 17.9848C4.84373 17.8168 4.74971 17.589 4.75 17.3517L3.25 17.3498ZM3.94942 19.0442C4.39802 19.4939 5.0069 19.747 5.64209 19.7477L5.64391 18.2478C5.40654 18.2475 5.17901 18.1529 5.01137 17.9848L3.94942 19.0442ZM5.643 19.7478H18.357V18.2478H5.643V19.7478ZM18.3579 19.7477C18.9931 19.747 19.602 19.4939 20.0506 19.0442L18.9886 17.9848C18.821 18.1529 18.5935 18.2475 18.3561 18.2478L18.3579 19.7477ZM20.0506 19.0442C20.4992 18.5945 20.7508 17.985 20.75 17.3498L19.25 17.3517C19.2503 17.589 19.1563 17.8168 18.9886 17.9848L20.0506 19.0442ZM20.75 17.3507V8.11575H19.25V17.3507H20.75ZM20.75 8.11666C20.7508 7.48147 20.4992 6.87198 20.0506 6.42229L18.9886 7.48166C19.1563 7.64971 19.2503 7.87747 19.25 8.11484L20.75 8.11666ZM20.0506 6.42229C19.602 5.97259 18.9931 5.71952 18.3579 5.71875L18.3561 7.21875C18.5935 7.21904 18.821 7.31361 18.9886 7.48166L20.0506 6.42229ZM18.357 5.71875H12.536V7.21875H18.357V5.71875ZM4.75 6.471V5.647H3.25V6.471H4.75ZM4.75 5.64609C4.74971 5.40872 4.84373 5.18096 5.01137 5.01291L3.94942 3.95354C3.50082 4.40323 3.24923 5.01272 3.25 5.64791L4.75 5.64609ZM5.01137 5.01291C5.17901 4.84486 5.40654 4.75029 5.64391 4.75L5.64209 3.25C5.0069 3.25077 4.39803 3.50384 3.94942 3.95354L5.01137 5.01291ZM5.643 4.75H10.893V3.25H5.643V4.75ZM10.8921 4.75C11.1295 4.75029 11.357 4.84486 11.5246 5.01291L12.5866 3.95354C12.138 3.50384 11.5291 3.25077 10.8939 3.25L10.8921 4.75ZM11.5246 5.01291C11.6923 5.18096 11.7863 5.40872 11.786 5.64609L13.286 5.64791C13.2868 5.01272 13.0352 4.40323 12.5866 3.95354L11.5246 5.01291ZM11.786 5.647V6.471H13.286V5.647H11.786ZM4 7.21875H12.536V5.71875H4V7.21875Z" fill="#B3B3B3"/>
</svg>
