<svg width="10" height="13" viewBox="0 0 10 13" fill="none" xmlns="http://www.w3.org/2000/svg">
<g id="Frame">
<path id="Vector" d="M5 8.42857C4.64399 8.42857 4.29598 8.31546 3.99997 8.10355C3.70396 7.89163 3.47325 7.59043 3.33702 7.23803C3.20078 6.88563 3.16513 6.49786 3.23459 6.12375C3.30404 5.74965 3.47547 5.40601 3.72721 5.13629C3.97894 4.86658 4.29967 4.6829 4.64884 4.60849C4.998 4.53407 5.35992 4.57226 5.68883 4.71823C6.01774 4.8642 6.29886 5.11139 6.49665 5.42854C6.69443 5.74569 6.8 6.11856 6.8 6.5C6.8 7.01149 6.61036 7.50203 6.27279 7.86371C5.93523 8.22538 5.47739 8.42857 5 8.42857ZM5 3.5C2.2 3.5 1 6.5 1 6.5C1 6.5 2.2 9.5 5 9.5C7.8 9.5 9 6.5 9 6.5C9 6.5 7.8 3.5 5 3.5Z" fill="#4D4D4D"/>
<path id="Vector_2" d="M5 7.5C5.55228 7.5 6 7.05228 6 6.5C6 5.94772 5.55228 5.5 5 5.5C4.44772 5.5 4 5.94772 4 6.5C4 7.05228 4.44772 7.5 5 7.5Z" fill="#4D4D4D"/>
</g>
</svg>
