<svg width="24" height="24" viewBox="0 0 24 24" fill="none" xmlns="http://www.w3.org/2000/svg">
<path fill-rule="evenodd" clip-rule="evenodd" d="M5 12C5 14.485 8.134 16.5 12 16.5C15.866 16.5 19 14.485 19 12C19 9.515 15.866 7.5 12 7.5C8.134 7.5 5 9.515 5 12ZM11.3623 10.8647C11.7555 10.6317 12.2444 10.6317 12.6376 10.8647C13.0308 11.0976 13.2657 11.5265 13.2503 11.9832C13.2499 11.9945 13.2499 12.0057 13.2503 12.017C13.2657 12.4738 13.0308 12.9026 12.6376 13.1356C12.2444 13.3685 11.7555 13.3685 11.3623 13.1356C10.9691 12.9026 10.7342 12.4738 10.7497 12.017C10.7501 12.0057 10.7501 11.9945 10.7497 11.9832C10.7342 11.5265 10.9691 11.0976 11.3623 10.8647ZM13.1474 10.0043C12.4399 9.58515 11.5601 9.58515 10.8526 10.0043C10.1499 10.4206 9.72828 11.1846 9.74975 12.0001C9.72828 12.8157 10.1499 13.5796 10.8526 13.9959C11.5601 14.4151 12.4399 14.4151 13.1474 13.9959C13.85 13.5796 14.2717 12.8157 14.2502 12.0001C14.2717 11.1846 13.85 10.4206 13.1474 10.0043Z" fill="white"/>
</svg>
