<svg width="10" height="13" viewBox="0 0 10 13" fill="none" xmlns="http://www.w3.org/2000/svg">
<g id="Xnix/Line/like">
<g id="Vector">
<path id="Vector-69" fill-rule="evenodd" clip-rule="evenodd" d="M3.00624 6.93611C2.84154 6.57334 2.47892 6.34133 2.08052 6.34384C1.53105 6.33658 1.07969 6.77604 1.07227 7.32551V9.2898C1.08096 9.83835 1.53195 10.2764 2.08052 10.2691C2.51326 10.2726 2.89972 9.99895 3.04028 9.58966M3.00635 6.9375C3.06089 7.06007 3.08902 7.19275 3.08889 7.32691V9.29119C3.0896 9.39361 3.07386 9.49549 3.04226 9.59292M3.47258 6.93543C3.55118 6.7775 3.66397 6.63906 3.80276 6.53016C3.88726 6.46835 3.94918 6.38055 3.97904 6.2802L4.48317 4.32151C4.60636 3.89819 5.04579 3.65141 5.47137 3.76655C5.67552 3.81662 5.85097 3.94667 5.95824 4.12744C6.06551 4.30821 6.0956 4.52452 6.04172 4.72771L5.75352 5.77374C5.7226 5.89323 5.74932 6.02031 5.82575 6.11724C5.90217 6.21416 6.01951 6.26979 6.14292 6.26761H7.79008C8.1068 6.26325 8.41228 6.38493 8.63925 6.60587C8.86622 6.82681 8.99609 7.12889 9.00027 7.44562V9.01583C8.99597 9.33247 8.86605 9.63444 8.63909 9.85527C8.41213 10.0761 8.10673 10.1977 7.79008 10.1934H4.56338C4.12834 10.1956 3.72531 9.96507 3.50662 9.58898" fill="#4D4D4D"/>
</g>
</g>
</svg>
