<svg width="24" height="24" viewBox="0 0 24 24" fill="none" xmlns="http://www.w3.org/2000/svg">
<path fill-rule="evenodd" clip-rule="evenodd" d="M14.4769 14H9.52294C8.06488 14.0724 6.7731 14.963 6.18693 16.3C5.47993 17.688 6.89093 19 8.53193 19H15.4679C17.1099 19 18.5209 17.688 17.8129 16.3C17.2268 14.963 15.935 14.0724 14.4769 14Z" stroke="#B3B3B3" stroke-width="1.5" stroke-linecap="round" stroke-linejoin="round"/>
<path fill-rule="evenodd" clip-rule="evenodd" d="M14.9999 8C14.9999 9.65685 13.6568 11 11.9999 11C10.3431 11 8.99994 9.65685 8.99994 8C8.99994 6.34315 10.3431 5 11.9999 5C12.7956 5 13.5587 5.31607 14.1213 5.87868C14.6839 6.44129 14.9999 7.20435 14.9999 8Z" stroke="#B3B3B3" stroke-width="1.5" stroke-linecap="round" stroke-linejoin="round"/>
</svg>
