<svg width="17" height="20" viewBox="0 0 17 20" fill="none" xmlns="http://www.w3.org/2000/svg">
<path d="M9.49145 4.69956C9.81521 4.29561 9.7502 3.70568 9.34624 3.38193C8.94229 3.05817 8.35236 3.12318 8.0286 3.52714L9.49145 4.69956ZM1.38869 13.3107L2.09862 13.9227C2.10594 13.9142 2.1131 13.9056 2.12011 13.8969L1.38869 13.3107ZM1.17497 13.8331L0.239607 13.7721C0.239224 13.7779 0.238896 13.7838 0.238624 13.7897L1.17497 13.8331ZM1 17.6112L0.0636513 17.5679C0.0614958 17.6144 0.0628138 17.661 0.0675943 17.7074L1 17.6112ZM1.98359 18.4698L2.01424 19.4067C2.07675 19.4046 2.1389 19.3963 2.19976 19.3819L1.98359 18.4698ZM5.733 17.5812L5.94917 18.4933C5.95404 18.4922 5.95889 18.491 5.96374 18.4897L5.733 17.5812ZM6.21418 17.2763L6.93732 17.8728L6.94544 17.8627L6.21418 17.2763ZM14.4943 8.44917C14.8181 8.0453 14.7533 7.45536 14.3494 7.13149C13.9455 6.80763 13.3556 6.87248 13.0317 7.27635L14.4943 8.44917ZM8.03019 3.52526C7.7063 3.9291 7.77111 4.51905 8.17496 4.84294C8.5788 5.16684 9.16875 5.10202 9.49265 4.69817L8.03019 3.52526ZM10.7461 1.63711L11.4773 2.22356C11.4897 2.2082 11.5015 2.19246 11.5128 2.17635L10.7461 1.63711ZM12.782 1.23717L13.3817 0.516731C13.3518 0.491884 13.3205 0.468916 13.2878 0.44796L12.782 1.23717ZM15.5778 3.5643L16.2413 2.9021C16.2209 2.88172 16.1996 2.86229 16.1775 2.84386L15.5778 3.5643ZM15.9989 4.59023L16.9363 4.59538L16.9363 4.59538L15.9989 4.59023ZM15.5666 5.61148L14.9105 4.94203C14.8839 4.96807 14.8589 4.99567 14.8356 5.02468L15.5666 5.61148ZM13.0297 7.27433C12.7056 7.67802 12.7701 8.268 13.1738 8.59208C13.5775 8.91616 14.1675 8.85162 14.4916 8.44792L13.0297 7.27433ZM9.68848 3.97444C9.61176 3.46247 9.13453 3.10963 8.62256 3.18635C8.11059 3.26307 7.75775 3.7403 7.83447 4.25227L9.68848 3.97444ZM13.8869 8.79158C14.3999 8.72188 14.7592 8.24953 14.6895 7.73656C14.6198 7.22359 14.1475 6.86424 13.6345 6.93394L13.8869 8.79158ZM8.0286 3.52714L0.657263 12.7244L2.12011 13.8969L9.49145 4.69956L8.0286 3.52714ZM0.678762 12.6986C0.419602 12.9992 0.265436 13.376 0.239607 13.7721L2.11034 13.8941C2.10965 13.9046 2.10553 13.9147 2.09862 13.9227L0.678762 12.6986ZM0.238624 13.7897L0.0636513 17.5679L1.93635 17.6546L2.11132 13.8764L0.238624 13.7897ZM0.0675943 17.7074C0.169673 18.6971 1.01984 19.4392 2.01424 19.4067L1.95295 17.533C1.94895 17.5331 1.94699 17.5325 1.94571 17.5321C1.94393 17.5314 1.94157 17.5302 1.93915 17.5281C1.93673 17.526 1.93516 17.5238 1.93428 17.5221C1.93365 17.5209 1.93282 17.519 1.93241 17.5151L0.0675943 17.7074ZM2.19976 19.3819L5.94917 18.4933L5.51684 16.6691L1.76743 17.5578L2.19976 19.3819ZM5.96374 18.4897C6.34557 18.3928 6.68656 18.1767 6.93725 17.8728L5.4911 16.6798C5.49398 16.6763 5.49789 16.6738 5.50226 16.6727L5.96374 18.4897ZM6.94544 17.8627L14.4943 8.44917L13.0317 7.27635L5.48291 16.6899L6.94544 17.8627ZM9.49265 4.69817L11.4773 2.22356L10.0149 1.05065L8.03019 3.52526L9.49265 4.69817ZM11.5128 2.17635C11.6861 1.92999 12.0227 1.86387 12.2763 2.02638L13.2878 0.44796C12.1889 -0.256251 10.7303 0.0302804 9.9794 1.09786L11.5128 2.17635ZM12.1824 1.95761L14.9782 4.28474L16.1775 2.84386L13.3817 0.516731L12.1824 1.95761ZM14.9144 4.2265C15.0094 4.3216 15.0623 4.45071 15.0616 4.58509L16.9363 4.59538C16.9398 3.96084 16.6895 3.35122 16.2413 2.9021L14.9144 4.2265ZM15.0616 4.58508C15.0609 4.71946 15.0065 4.84797 14.9105 4.94203L16.2227 6.28092C16.6759 5.83677 16.9328 5.22993 16.9363 4.59538L15.0616 4.58508ZM14.8356 5.02468L13.0297 7.27433L14.4916 8.44792L16.2976 6.19827L14.8356 5.02468ZM7.83447 4.25227C8.27109 7.16592 10.9675 9.18825 13.8869 8.79158L13.6345 6.93394C11.7311 7.19256 9.97314 5.87406 9.68848 3.97444L7.83447 4.25227Z" fill="white"/>
</svg>
