<svg width="116" height="46" viewBox="0 0 116 46" fill="none" xmlns="http://www.w3.org/2000/svg">
<rect width="116" height="46" rx="23" fill="white"/>
<path d="M36 13H22.7666C19.0387 13 16.0163 15.9822 16 19.6672H29.235C32.9629 19.6672 35.9853 22.6494 36 26.3344V13Z" fill="#0059FF"/>
<path d="M16 19.6929V32.9999H29.2888C32.9955 32.9999 36 30.0273 36 26.3601C36 26.3504 36 26.3423 36 26.3327H22.7128C19.0061 26.3327 16 23.3601 16 19.6929Z" fill="#0059FF"/>
<path d="M22.7112 26.3327H35.9984C35.9837 22.6477 32.9613 19.6655 29.2334 19.6655H16C16 19.6752 16 19.6833 16 19.6929C16 23.3602 19.0045 26.3327 22.7112 26.3327Z" fill="#0059FF"/>
<path d="M35.3467 13.6611H22.9882C19.5067 13.6611 16.6842 16.4462 16.6689 19.8875H29.029C32.5104 19.8875 35.333 22.6725 35.3467 26.1139V13.6611Z" fill="#8AB7FF"/>
<path d="M16.6689 19.9121V32.3393H29.0792C32.5408 32.3393 35.3467 29.5633 35.3467 26.1385C35.3467 26.1295 35.3467 26.1219 35.3467 26.1129H22.938C19.4763 26.1129 16.6689 23.3369 16.6689 19.9121Z" fill="#8AB7FF"/>
<path d="M22.936 26.1126H35.3446C35.331 22.6712 32.5084 19.8862 29.0269 19.8862H16.6685C16.6685 19.8953 16.6685 19.9028 16.6685 19.9118C16.6685 23.3366 19.4743 26.1126 22.936 26.1126Z" fill="#0059FF"/>
<rect x="24.5146" y="18.3682" width="7.65642" height="1.51243" fill="white"/>
<rect x="19.9209" y="18.3682" width="3.06257" height="1.51243" fill="white"/>
<rect x="24.5146" y="22.1489" width="7.65642" height="1.51243" fill="white"/>
<rect x="19.9209" y="22.1489" width="3.06257" height="1.51243" fill="white"/>
<rect x="24.5146" y="25.9302" width="7.65642" height="1.51243" fill="white"/>
<rect x="19.9209" y="25.9302" width="3.06257" height="1.51243" fill="white"/>
<path d="M51.7656 18.2031C51.7656 18.9271 51.9844 19.6328 52.4219 20.3203C52.8646 21.0078 53.474 21.6016 54.25 22.1016C55.026 22.5964 55.8958 22.9271 56.8594 23.0938L56.0781 24.5469C54.8958 24.2969 53.8438 23.8359 52.9219 23.1641C52.0052 22.487 51.3177 21.6719 50.8594 20.7188C50.3906 21.6667 49.6953 22.4792 48.7734 23.1562C47.8516 23.8281 46.8021 24.2917 45.625 24.5469L44.8594 23.0938C45.8125 22.9219 46.6719 22.5885 47.4375 22.0938C48.2083 21.5938 48.8125 21 49.25 20.3125C49.6927 19.625 49.9167 18.9219 49.9219 18.2031V17.1562H51.7656V18.2031ZM57.375 28.5938H44.4688V27.1562H57.375V28.5938ZM70.375 24.9062H68.7188V21.2969H67.4219V24.8281H65.7969V16.4688H67.4219V19.875H68.7188V16.2812H70.375V24.9062ZM70.375 30.3906H68.6406V26.9219H60.5V25.5312H70.375V30.3906ZM65.0156 18.875H64V22.6797C64.5312 22.6328 64.9375 22.5885 65.2188 22.5469L65.2969 23.8438C63.6562 24.1458 61.349 24.2969 58.375 24.2969L58.1875 22.875C58.724 22.875 59.1458 22.8724 59.4531 22.8672V18.875H58.4531V17.4375H65.0156V18.875ZM61.0469 22.8359C61.5052 22.8255 61.9635 22.8099 62.4219 22.7891V18.875H61.0469V22.8359ZM85.0312 28.6875H72.125V27.2656H77.6875V24.5156H73.5469V17.2031H75.2812V19.5156H81.8281V17.2031H83.5625V24.5156H79.4062V27.2656H85.0312V28.6875ZM81.8281 23.1094V20.9062H75.2812V23.1094H81.8281ZM97.75 30.3906H96V16.2656H97.75V30.3906ZM93.5312 17.7656C93.5312 20.0104 93.0234 21.9818 92.0078 23.6797C90.9922 25.3724 89.3073 26.776 86.9531 27.8906L86.0469 26.5C87.8646 25.6354 89.2318 24.6016 90.1484 23.3984C91.0703 22.1901 91.6094 20.7708 91.7656 19.1406H86.7656V17.7656H93.5312Z" fill="#0059FF"/>
</svg>
