<svg width="24" height="24" viewBox="0 0 24 24" fill="none" xmlns="http://www.w3.org/2000/svg">
<path fill-rule="evenodd" clip-rule="evenodd" d="M21 11.7857C21 14.9807 16.9706 17.5714 12 17.5714C7.02943 17.5714 3 14.9807 3 11.7857C3 8.59071 7.02943 6 12 6C16.9706 6 21 8.59071 21 11.7857Z" stroke="white" stroke-width="1.5" stroke-linecap="round" stroke-linejoin="round"/>
<path fill-rule="evenodd" clip-rule="evenodd" d="M14.25 11.7857C14.2778 12.6077 13.8551 13.3794 13.1475 13.7987C12.4399 14.2179 11.5601 14.2179 10.8525 13.7987C10.1449 13.3794 9.72221 12.6077 9.75 11.7857C9.72221 10.9637 10.1449 10.192 10.8525 9.77277C11.5601 9.35355 12.4399 9.35355 13.1475 9.77277C13.8551 10.192 14.2778 10.9637 14.25 11.7857Z" stroke="white" stroke-width="1.5" stroke-linecap="round" stroke-linejoin="round"/>
</svg>
