<svg width="24" height="24" viewBox="0 0 24 24" fill="none" xmlns="http://www.w3.org/2000/svg">
<path fill-rule="evenodd" clip-rule="evenodd" d="M13.6155 19H9.38547C7.48448 18.9677 5.96928 17.401 6.00047 15.5V12C5.98314 10.4263 7.02358 9.03658 8.53847 8.61V8.15C8.48798 6.46276 9.81332 5.0533 11.5005 5C13.1876 5.0533 14.513 6.46276 14.4625 8.15V8.61C15.9774 9.03658 17.0178 10.4263 17.0005 12V15.5C17.0317 17.401 15.5165 18.9677 13.6155 19Z" stroke="#0059FF" stroke-width="1.5" stroke-linecap="round" stroke-linejoin="round"/>
<path d="M10.7506 15.5C10.7506 15.9142 11.0863 16.25 11.5006 16.25C11.9148 16.25 12.2506 15.9142 12.2506 15.5H10.7506ZM12.2506 13.75C12.2506 13.3358 11.9148 13 11.5006 13C11.0863 13 10.7506 13.3358 10.7506 13.75H12.2506ZM14.2701 9.33489C14.6704 9.44118 15.0811 9.2028 15.1874 8.80246C15.2937 8.40212 15.0554 7.99141 14.655 7.88512L14.2701 9.33489ZM13.6166 8.5L13.6166 9.25L13.6172 9.25L13.6166 8.5ZM9.38555 8.5L9.38486 9.25H9.38555V8.5ZM8.34709 7.88512C7.94675 7.99141 7.70837 8.40212 7.81467 8.80246C7.92096 9.2028 8.33167 9.44118 8.73201 9.33489L8.34709 7.88512ZM12.2506 15.5V13.75H10.7506V15.5H12.2506ZM14.655 7.88512C14.316 7.7951 13.9666 7.74968 13.6159 7.75L13.6172 9.25C13.8376 9.2498 14.0571 9.27833 14.2701 9.33489L14.655 7.88512ZM13.6166 7.75H9.38555V9.25H13.6166V7.75ZM9.38624 7.75C9.03546 7.74968 8.68613 7.7951 8.34709 7.88512L8.73201 9.33489C8.94501 9.27833 9.16448 9.2498 9.38486 9.25L9.38624 7.75Z" fill="#0059FF"/>
</svg>
