<svg width="24" height="24" viewBox="0 0 24 24" fill="none" xmlns="http://www.w3.org/2000/svg">
<path fill-rule="evenodd" clip-rule="evenodd" d="M10.386 8.35696C10.2722 8.28865 10.1423 8.25176 10.0096 8.25006C9.87686 8.24837 9.74607 8.28192 9.63056 8.3473C9.51505 8.41268 9.41896 8.50755 9.3521 8.62221C9.28524 8.73687 9.25001 8.86723 9.25 8.99996V15C9.25001 15.1327 9.28524 15.263 9.3521 15.3777C9.41896 15.4924 9.51505 15.5872 9.63056 15.6526C9.74607 15.718 9.87686 15.7516 10.0096 15.7499C10.1423 15.7482 10.2722 15.7113 10.386 15.643L15.386 12.643C15.497 12.5763 15.5889 12.4821 15.6526 12.3694C15.7164 12.2567 15.7499 12.1294 15.7499 12C15.7499 11.8705 15.7164 11.7432 15.6526 11.6305C15.5889 11.5179 15.497 11.4236 15.386 11.357L10.386 8.35696ZM13.542 12L10.75 13.675V10.325L13.542 12Z" fill="white"/>
<path fill-rule="evenodd" clip-rule="evenodd" d="M17.0299 4.64101C13.6817 4.3791 10.3181 4.3791 6.96989 4.64101L4.72889 4.81701C4.06672 4.86863 3.44087 5.14034 2.95103 5.58887C2.46118 6.0374 2.13551 6.63695 2.02589 7.29201C1.50504 10.4091 1.50504 13.591 2.02589 16.708C2.13551 17.3631 2.46118 17.9626 2.95103 18.4112C3.44087 18.8597 4.06672 19.1314 4.72889 19.183L6.96889 19.359C10.3179 19.621 13.6819 19.621 17.0309 19.359L19.2709 19.183C19.9331 19.1314 20.5589 18.8597 21.0488 18.4112C21.5386 17.9626 21.8643 17.3631 21.9739 16.708C22.4939 13.591 22.4939 10.409 21.9739 7.29201C21.8643 6.63695 21.5386 6.0374 21.0488 5.58887C20.5589 5.14034 19.9331 4.86863 19.2709 4.81701L17.0299 4.64101ZM7.08689 6.13701C10.3579 5.88109 13.6439 5.88109 16.9149 6.13701L19.1549 6.31201C19.8309 6.36501 20.3839 6.87201 20.4949 7.54001C20.9882 10.4929 20.9882 13.5071 20.4949 16.46C20.4407 16.7849 20.2794 17.0824 20.0365 17.3049C19.7937 17.5275 19.4833 17.6623 19.1549 17.688L16.9149 17.863C13.6439 18.119 10.3579 18.119 7.08689 17.863L4.84689 17.688C4.51849 17.6623 4.20812 17.5275 3.96527 17.3049C3.72242 17.0824 3.56105 16.7849 3.50689 16.46C3.01357 13.5071 3.01357 10.4929 3.50689 7.54001C3.56105 7.21509 3.72242 6.91765 3.96527 6.69509C4.20812 6.47254 4.51849 6.33768 4.84689 6.31201L7.08689 6.13701Z" fill="white"/>
</svg>
