<svg width="20" height="21" viewBox="0 0 20 21" fill="none" xmlns="http://www.w3.org/2000/svg">
<path d="M1.6665 3.95222C1.6665 3.47862 1.85464 3.02441 2.18953 2.68953C2.52441 2.35464 2.97862 2.1665 3.45222 2.1665H7.02365C7.49725 2.1665 7.95145 2.35464 8.28634 2.68953C8.62122 3.02441 8.80936 3.47862 8.80936 3.95222V7.52365C8.80936 7.99725 8.62122 8.45145 8.28634 8.78634C7.95145 9.12122 7.49725 9.30936 7.02365 9.30936H3.45222C2.97862 9.30936 2.52441 9.12122 2.18953 8.78634C1.85464 8.45145 1.6665 7.99725 1.6665 7.52365V3.95222ZM3.45222 3.35698C3.29435 3.35698 3.14295 3.41969 3.03132 3.53132C2.91969 3.64295 2.85698 3.79435 2.85698 3.95222V7.52365C2.85698 7.68151 2.91969 7.83291 3.03132 7.94454C3.14295 8.05617 3.29435 8.11889 3.45222 8.11889H7.02365C7.18151 8.11889 7.33291 8.05617 7.44454 7.94454C7.55617 7.83291 7.61889 7.68151 7.61889 7.52365V3.95222C7.61889 3.79435 7.55617 3.64295 7.44454 3.53132C7.33291 3.41969 7.18151 3.35698 7.02365 3.35698H3.45222ZM11.1903 3.95222C11.1903 3.47862 11.3785 3.02441 11.7133 2.68953C12.0482 2.35464 12.5024 2.1665 12.976 2.1665H16.5475C17.0211 2.1665 17.4753 2.35464 17.8101 2.68953C18.145 3.02441 18.3332 3.47862 18.3332 3.95222V7.52365C18.3332 7.99725 18.145 8.45145 17.8101 8.78634C17.4753 9.12122 17.0211 9.30936 16.5475 9.30936H12.976C12.5024 9.30936 12.0482 9.12122 11.7133 8.78634C11.3785 8.45145 11.1903 7.99725 11.1903 7.52365V3.95222ZM12.976 3.35698C12.8182 3.35698 12.6668 3.41969 12.5551 3.53132C12.4435 3.64295 12.3808 3.79435 12.3808 3.95222V7.52365C12.3808 7.68151 12.4435 7.83291 12.5551 7.94454C12.6668 8.05617 12.8182 8.11889 12.976 8.11889H16.5475C16.7053 8.11889 16.8567 8.05617 16.9684 7.94454C17.08 7.83291 17.1427 7.68151 17.1427 7.52365V3.95222C17.1427 3.79435 17.08 3.64295 16.9684 3.53132C16.8567 3.41969 16.7053 3.35698 16.5475 3.35698H12.976ZM1.6665 13.476C1.6665 13.0024 1.85464 12.5482 2.18953 12.2133C2.52441 11.8785 2.97862 11.6903 3.45222 11.6903H7.02365C7.49725 11.6903 7.95145 11.8785 8.28634 12.2133C8.62122 12.5482 8.80936 13.0024 8.80936 13.476V17.0475C8.80936 17.5211 8.62122 17.9753 8.28634 18.3101C7.95145 18.645 7.49725 18.8332 7.02365 18.8332H3.45222C2.97862 18.8332 2.52441 18.645 2.18953 18.3101C1.85464 17.9753 1.6665 17.5211 1.6665 17.0475V13.476ZM3.45222 12.8808C3.29435 12.8808 3.14295 12.9435 3.03132 13.0551C2.91969 13.1668 2.85698 13.3182 2.85698 13.476V17.0475C2.85698 17.2053 2.91969 17.3567 3.03132 17.4684C3.14295 17.58 3.29435 17.6427 3.45222 17.6427H7.02365C7.18151 17.6427 7.33291 17.58 7.44454 17.4684C7.55617 17.3567 7.61889 17.2053 7.61889 17.0475V13.476C7.61889 13.3182 7.55617 13.1668 7.44454 13.0551C7.33291 12.9435 7.18151 12.8808 7.02365 12.8808H3.45222ZM11.1903 13.476C11.1903 13.0024 11.3785 12.5482 11.7133 12.2133C12.0482 11.8785 12.5024 11.6903 12.976 11.6903H16.5475C17.0211 11.6903 17.4753 11.8785 17.8101 12.2133C18.145 12.5482 18.3332 13.0024 18.3332 13.476V17.0475C18.3332 17.5211 18.145 17.9753 17.8101 18.3101C17.4753 18.645 17.0211 18.8332 16.5475 18.8332H12.976C12.5024 18.8332 12.0482 18.645 11.7133 18.3101C11.3785 17.9753 11.1903 17.5211 11.1903 17.0475V13.476ZM12.976 12.8808C12.8182 12.8808 12.6668 12.9435 12.5551 13.0551C12.4435 13.1668 12.3808 13.3182 12.3808 13.476V17.0475C12.3808 17.2053 12.4435 17.3567 12.5551 17.4684C12.6668 17.58 12.8182 17.6427 12.976 17.6427H16.5475C16.7053 17.6427 16.8567 17.58 16.9684 17.4684C17.08 17.3567 17.1427 17.2053 17.1427 17.0475V13.476C17.1427 13.3182 17.08 13.1668 16.9684 13.0551C16.8567 12.9435 16.7053 12.8808 16.5475 12.8808H12.976Z" fill="#999999"/>
</svg>
