<svg width="24" height="24" viewBox="0 0 24 24" fill="none" xmlns="http://www.w3.org/2000/svg">
<path d="M18.4968 16.5521L18.6428 10.2715C18.567 9.58974 18.7142 8.45132 17.4413 8.14202C16.2858 7.86126 15.1001 9.36807 15.1001 9.36807L12.7411 5.39795C12.173 4.53397 11.0986 4.63794 10.6896 4.88758C10.1064 5.24359 9.94873 5.88935 9.94873 5.88935C9.94873 5.88935 10.0302 5.88935 9.58545 5.24482C9.14074 4.60029 8.21067 4.4712 7.52881 4.8874C6.62707 5.43781 6.67334 6.61005 7.07764 7.28974C7.03939 7.24844 6.54063 7.00531 5.73584 7.44795C5.03271 7.83466 4.93337 8.93037 5.2029 9.52802C5.47243 10.1257 5.54832 10.2839 5.54832 10.2839C5.54832 10.2839 4.91767 10.1233 4.31248 10.53C3.74532 10.9111 3.52712 11.8483 3.9731 12.7858C3.9731 12.7858 4.8863 14.8132 5.62458 16.1726C6.36287 17.5319 7.5113 19.3601 7.5113 19.3601C9.58552 22.6061 13.5185 23.0366 15.9125 21.5823C17.5448 20.5908 18.6523 18.4954 18.4968 16.5521Z" fill="url(#paint0_linear_2197_38666)"/>
<path d="M18.4968 16.5521L18.6428 10.2715C18.567 9.58974 18.7142 8.45132 17.4413 8.14202C16.2858 7.86126 15.1001 9.36807 15.1001 9.36807L12.7411 5.39795C12.173 4.53397 11.0986 4.63794 10.6896 4.88758C10.1064 5.24359 9.94873 5.88935 9.94873 5.88935C9.94873 5.88935 10.0302 5.88935 9.58545 5.24482C9.14074 4.60029 8.21067 4.4712 7.52881 4.8874C6.62707 5.43781 6.67334 6.61005 7.07764 7.28974C7.03939 7.24844 6.54063 7.00531 5.73584 7.44795C5.03271 7.83466 4.93337 8.93037 5.2029 9.52802C5.47243 10.1257 5.54832 10.2839 5.54832 10.2839C5.54832 10.2839 4.91767 10.1233 4.31248 10.53C3.74532 10.9111 3.52712 11.8483 3.9731 12.7858C3.9731 12.7858 4.8863 14.8132 5.62458 16.1726C6.36287 17.5319 7.5113 19.3601 7.5113 19.3601C9.58552 22.6061 13.5185 23.0366 15.9125 21.5823C17.5448 20.5908 18.6523 18.4954 18.4968 16.5521Z" fill="url(#paint1_radial_2197_38666)"/>
<path d="M18.4968 16.5521L18.6428 10.2715C18.567 9.58974 18.7142 8.45132 17.4413 8.14202C16.2858 7.86126 15.1001 9.36807 15.1001 9.36807L12.7411 5.39795C12.173 4.53397 11.0986 4.63794 10.6896 4.88758C10.1064 5.24359 9.94873 5.88935 9.94873 5.88935C9.94873 5.88935 10.0302 5.88935 9.58545 5.24482C9.14074 4.60029 8.21067 4.4712 7.52881 4.8874C6.62707 5.43781 6.67334 6.61005 7.07764 7.28974C7.03939 7.24844 6.54063 7.00531 5.73584 7.44795C5.03271 7.83466 4.93337 8.93037 5.2029 9.52802C5.47243 10.1257 5.54832 10.2839 5.54832 10.2839C5.54832 10.2839 4.91767 10.1233 4.31248 10.53C3.74532 10.9111 3.52712 11.8483 3.9731 12.7858C3.9731 12.7858 4.8863 14.8132 5.62458 16.1726C6.36287 17.5319 7.5113 19.3601 7.5113 19.3601C9.58552 22.6061 13.5185 23.0366 15.9125 21.5823C17.5448 20.5908 18.6523 18.4954 18.4968 16.5521Z" fill="url(#paint2_radial_2197_38666)"/>
<path d="M18.4968 16.5521L18.6428 10.2715C18.567 9.58974 18.7142 8.45132 17.4413 8.14202C16.2858 7.86126 15.1001 9.36807 15.1001 9.36807L12.7411 5.39795C12.173 4.53397 11.0986 4.63794 10.6896 4.88758C10.1064 5.24359 9.94873 5.88935 9.94873 5.88935C9.94873 5.88935 10.0302 5.88935 9.58545 5.24482C9.14074 4.60029 8.21067 4.4712 7.52881 4.8874C6.62707 5.43781 6.67334 6.61005 7.07764 7.28974C7.03939 7.24844 6.54063 7.00531 5.73584 7.44795C5.03271 7.83466 4.93337 8.93037 5.2029 9.52802C5.47243 10.1257 5.54832 10.2839 5.54832 10.2839C5.54832 10.2839 4.91767 10.1233 4.31248 10.53C3.74532 10.9111 3.52712 11.8483 3.9731 12.7858C3.9731 12.7858 4.8863 14.8132 5.62458 16.1726C6.36287 17.5319 7.5113 19.3601 7.5113 19.3601C9.58552 22.6061 13.5185 23.0366 15.9125 21.5823C17.5448 20.5908 18.6523 18.4954 18.4968 16.5521Z" fill="url(#paint3_radial_2197_38666)"/>
<path d="M5.79418 7.40717C4.96274 7.8369 4.96923 9.00743 5.17883 9.48723C5.38844 9.96703 5.55138 10.2823 5.55138 10.2823C5.55138 10.2823 6.11472 10.3144 6.51534 10.9045C6.51534 10.9045 6.62423 11.0264 7.38892 12.6332C7.38892 12.6332 9.5246 14.2825 9.80635 14.0505C10.5921 13.4036 10.007 12.3624 9.92603 12.1352C9.66839 11.4118 8.50367 8.90751 7.9573 8.06923C7.41092 7.23094 6.7256 6.92576 5.79418 7.40717Z" fill="url(#paint4_radial_2197_38666)"/>
<path d="M5.79418 7.40717C4.96274 7.8369 4.96923 9.00743 5.17883 9.48723C5.38844 9.96703 5.55138 10.2823 5.55138 10.2823C5.55138 10.2823 6.11472 10.3144 6.51534 10.9045C6.51534 10.9045 6.62423 11.0264 7.38892 12.6332C7.38892 12.6332 9.5246 14.2825 9.80635 14.0505C10.5921 13.4036 10.007 12.3624 9.92603 12.1352C9.66839 11.4118 8.50367 8.90751 7.9573 8.06923C7.41092 7.23094 6.7256 6.92576 5.79418 7.40717Z" fill="url(#paint5_radial_2197_38666)"/>
<path d="M5.79418 7.40717C4.96274 7.8369 4.96923 9.00743 5.17883 9.48723C5.38844 9.96703 5.55138 10.2823 5.55138 10.2823C5.55138 10.2823 6.11472 10.3144 6.51534 10.9045C6.51534 10.9045 6.62423 11.0264 7.38892 12.6332C7.38892 12.6332 9.5246 14.2825 9.80635 14.0505C10.5921 13.4036 10.007 12.3624 9.92603 12.1352C9.66839 11.4118 8.50367 8.90751 7.9573 8.06923C7.41092 7.23094 6.7256 6.92576 5.79418 7.40717Z" fill="url(#paint6_radial_2197_38666)"/>
<path d="M7.56454 4.86078C6.69149 5.31288 6.71003 6.46862 6.91964 6.94842C7.12924 7.42822 7.07158 7.25969 7.07158 7.25969C7.07158 7.25969 7.71611 7.52336 8.19072 8.46672C8.19072 8.46672 8.29321 8.67047 9.05791 10.2773C9.05791 10.2773 11.295 11.7361 11.5767 11.5041C12.3624 10.8572 11.7773 9.81605 11.6964 9.5888C11.4387 8.86538 10.4423 6.71871 9.86677 5.65378C9.2912 4.58884 8.43784 4.40855 7.56454 4.86078Z" fill="url(#paint7_radial_2197_38666)"/>
<path d="M7.56454 4.86078C6.69149 5.31288 6.71003 6.46862 6.91964 6.94842C7.12924 7.42822 7.07158 7.25969 7.07158 7.25969C7.07158 7.25969 7.71611 7.52336 8.19072 8.46672C8.19072 8.46672 8.29321 8.67047 9.05791 10.2773C9.05791 10.2773 11.295 11.7361 11.5767 11.5041C12.3624 10.8572 11.7773 9.81605 11.6964 9.5888C11.4387 8.86538 10.4423 6.71871 9.86677 5.65378C9.2912 4.58884 8.43784 4.40855 7.56454 4.86078Z" fill="url(#paint8_radial_2197_38666)"/>
<path d="M7.56454 4.86078C6.69149 5.31288 6.71003 6.46862 6.91964 6.94842C7.12924 7.42822 7.07158 7.25969 7.07158 7.25969C7.07158 7.25969 7.71611 7.52336 8.19072 8.46672C8.19072 8.46672 8.29321 8.67047 9.05791 10.2773C9.05791 10.2773 11.295 11.7361 11.5767 11.5041C12.3624 10.8572 11.7773 9.81605 11.6964 9.5888C11.4387 8.86538 10.4423 6.71871 9.86677 5.65378C9.2912 4.58884 8.43784 4.40855 7.56454 4.86078Z" fill="url(#paint9_radial_2197_38666)"/>
<path d="M10.7928 4.82845C9.89611 5.23152 9.66413 6.62981 9.90179 7.09635C10.1395 7.56289 10.254 7.50586 10.254 7.50586C10.254 7.50586 10.913 7.73088 11.4427 8.64445C11.4427 8.64445 11.5571 8.84177 12.4157 10.4004C12.4157 10.4004 14.7352 11.7242 15.0027 11.4759C15.7487 10.7835 15.103 9.77887 15.0087 9.55682C14.7086 8.84993 13.6747 7.44758 13.1362 6.05253C12.5976 4.65748 11.4417 4.53683 10.7928 4.82845Z" fill="#D4A68A"/>
<path d="M21.9759 16.3648C21.8434 14.023 21.7546 13.0954 21.8317 11.9602C21.9088 10.825 22.4868 8.42968 20.6183 8.17718C18.8577 7.93926 18.6435 9.81887 18.6435 9.81887C18.6435 9.81887 16.553 6.38092 15.8206 5.6304C15.0881 4.87989 14.3062 4.94426 13.7171 5.30385C13.1279 5.66343 13.0491 6.43348 13.0491 6.43348C13.0491 6.43348 12.6799 6.02918 12.2405 5.63074C11.801 5.23231 11.0217 5.09168 10.4182 5.4491C9.92878 5.73897 9.29909 6.55067 9.93776 7.60535C9.93776 7.60535 9.46968 7.50975 8.92409 7.89832C8.31571 8.3316 8.2151 9.35731 8.49049 9.80262C8.76588 10.2479 8.97699 10.5473 8.97699 10.5473C8.97699 10.5473 8.59463 10.338 7.79339 10.8754C7.35415 11.1701 6.97233 12.1523 7.55862 13.043C8.1449 13.9336 8.7776 14.6489 9.53932 15.7856C10.301 16.9223 12.3167 20.1098 12.3167 20.1098C13.969 22.2661 17.0247 23.0962 19.4426 21.6274C21.0913 20.6259 22.1083 18.7066 21.9759 16.3648Z" fill="url(#paint10_radial_2197_38666)"/>
<path d="M21.9759 16.3648C21.8434 14.023 21.7546 13.0954 21.8317 11.9602C21.9088 10.825 22.4868 8.42968 20.6183 8.17718C18.8577 7.93926 18.6435 9.81887 18.6435 9.81887C18.6435 9.81887 16.553 6.38092 15.8206 5.6304C15.0881 4.87989 14.3062 4.94426 13.7171 5.30385C13.1279 5.66343 13.0491 6.43348 13.0491 6.43348C13.0491 6.43348 12.6799 6.02918 12.2405 5.63074C11.801 5.23231 11.0217 5.09168 10.4182 5.4491C9.92878 5.73897 9.29909 6.55067 9.93776 7.60535C9.93776 7.60535 9.46968 7.50975 8.92409 7.89832C8.31571 8.3316 8.2151 9.35731 8.49049 9.80262C8.76588 10.2479 8.97699 10.5473 8.97699 10.5473C8.97699 10.5473 8.59463 10.338 7.79339 10.8754C7.35415 11.1701 6.97233 12.1523 7.55862 13.043C8.1449 13.9336 8.7776 14.6489 9.53932 15.7856C10.301 16.9223 12.3167 20.1098 12.3167 20.1098C13.969 22.2661 17.0247 23.0962 19.4426 21.6274C21.0913 20.6259 22.1083 18.7066 21.9759 16.3648Z" fill="url(#paint11_radial_2197_38666)"/>
<path d="M21.9759 16.3648C21.8434 14.023 21.7546 13.0954 21.8317 11.9602C21.9088 10.825 22.4868 8.42968 20.6183 8.17718C18.8577 7.93926 18.6435 9.81887 18.6435 9.81887C18.6435 9.81887 16.553 6.38092 15.8206 5.6304C15.0881 4.87989 14.3062 4.94426 13.7171 5.30385C13.1279 5.66343 13.0491 6.43348 13.0491 6.43348C13.0491 6.43348 12.6799 6.02918 12.2405 5.63074C11.801 5.23231 11.0217 5.09168 10.4182 5.4491C9.92878 5.73897 9.29909 6.55067 9.93776 7.60535C9.93776 7.60535 9.46968 7.50975 8.92409 7.89832C8.31571 8.3316 8.2151 9.35731 8.49049 9.80262C8.76588 10.2479 8.97699 10.5473 8.97699 10.5473C8.97699 10.5473 8.59463 10.338 7.79339 10.8754C7.35415 11.1701 6.97233 12.1523 7.55862 13.043C8.1449 13.9336 8.7776 14.6489 9.53932 15.7856C10.301 16.9223 12.3167 20.1098 12.3167 20.1098C13.969 22.2661 17.0247 23.0962 19.4426 21.6274C21.0913 20.6259 22.1083 18.7066 21.9759 16.3648Z" fill="url(#paint12_radial_2197_38666)"/>
<path d="M21.9759 16.3648C21.8434 14.023 21.7546 13.0954 21.8317 11.9602C21.9088 10.825 22.4868 8.42968 20.6183 8.17718C18.8577 7.93926 18.6435 9.81887 18.6435 9.81887C18.6435 9.81887 16.553 6.38092 15.8206 5.6304C15.0881 4.87989 14.3062 4.94426 13.7171 5.30385C13.1279 5.66343 13.0491 6.43348 13.0491 6.43348C13.0491 6.43348 12.6799 6.02918 12.2405 5.63074C11.801 5.23231 11.0217 5.09168 10.4182 5.4491C9.92878 5.73897 9.29909 6.55067 9.93776 7.60535C9.93776 7.60535 9.46968 7.50975 8.92409 7.89832C8.31571 8.3316 8.2151 9.35731 8.49049 9.80262C8.76588 10.2479 8.97699 10.5473 8.97699 10.5473C8.97699 10.5473 8.59463 10.338 7.79339 10.8754C7.35415 11.1701 6.97233 12.1523 7.55862 13.043C8.1449 13.9336 8.7776 14.6489 9.53932 15.7856C10.301 16.9223 12.3167 20.1098 12.3167 20.1098C13.969 22.2661 17.0247 23.0962 19.4426 21.6274C21.0913 20.6259 22.1083 18.7066 21.9759 16.3648Z" fill="url(#paint13_radial_2197_38666)"/>
<path d="M21.9759 16.3648C21.8434 14.023 21.7546 13.0954 21.8317 11.9602C21.9088 10.825 22.4868 8.42968 20.6183 8.17718C18.8577 7.93926 18.6435 9.81887 18.6435 9.81887C18.6435 9.81887 16.553 6.38092 15.8206 5.6304C15.0881 4.87989 14.3062 4.94426 13.7171 5.30385C13.1279 5.66343 13.0491 6.43348 13.0491 6.43348C13.0491 6.43348 12.6799 6.02918 12.2405 5.63074C11.801 5.23231 11.0217 5.09168 10.4182 5.4491C9.92878 5.73897 9.29909 6.55067 9.93776 7.60535C9.93776 7.60535 9.46968 7.50975 8.92409 7.89832C8.31571 8.3316 8.2151 9.35731 8.49049 9.80262C8.76588 10.2479 8.97699 10.5473 8.97699 10.5473C8.97699 10.5473 8.59463 10.338 7.79339 10.8754C7.35415 11.1701 6.97233 12.1523 7.55862 13.043C8.1449 13.9336 8.7776 14.6489 9.53932 15.7856C10.301 16.9223 12.3167 20.1098 12.3167 20.1098C13.969 22.2661 17.0247 23.0962 19.4426 21.6274C21.0913 20.6259 22.1083 18.7066 21.9759 16.3648Z" fill="url(#paint14_radial_2197_38666)"/>
<path d="M21.9759 16.3648C21.8434 14.023 21.7546 13.0954 21.8317 11.9602C21.9088 10.825 22.4868 8.42968 20.6183 8.17718C18.8577 7.93926 18.6435 9.81887 18.6435 9.81887C18.6435 9.81887 16.553 6.38092 15.8206 5.6304C15.0881 4.87989 14.3062 4.94426 13.7171 5.30385C13.1279 5.66343 13.0491 6.43348 13.0491 6.43348C13.0491 6.43348 12.6799 6.02918 12.2405 5.63074C11.801 5.23231 11.0217 5.09168 10.4182 5.4491C9.92878 5.73897 9.29909 6.55067 9.93776 7.60535C9.93776 7.60535 9.46968 7.50975 8.92409 7.89832C8.31571 8.3316 8.2151 9.35731 8.49049 9.80262C8.76588 10.2479 8.97699 10.5473 8.97699 10.5473C8.97699 10.5473 8.59463 10.338 7.79339 10.8754C7.35415 11.1701 6.97233 12.1523 7.55862 13.043C8.1449 13.9336 8.7776 14.6489 9.53932 15.7856C10.301 16.9223 12.3167 20.1098 12.3167 20.1098C13.969 22.2661 17.0247 23.0962 19.4426 21.6274C21.0913 20.6259 22.1083 18.7066 21.9759 16.3648Z" fill="url(#paint15_radial_2197_38666)"/>
<path d="M21.8313 11.9601C21.9084 10.8249 22.4864 8.42957 20.6179 8.17707C18.8572 7.93915 18.6431 9.81876 18.6431 9.81876L21.9023 15.1758C21.9023 14.1107 21.7589 13.0253 21.8313 11.9601Z" fill="url(#paint16_radial_2197_38666)"/>
<path d="M21.8313 11.9601C21.9084 10.8249 22.4864 8.42957 20.6179 8.17707C18.8572 7.93915 18.6431 9.81876 18.6431 9.81876L21.9023 15.1758C21.9023 14.1107 21.7589 13.0253 21.8313 11.9601Z" fill="url(#paint17_radial_2197_38666)"/>
<path d="M21.8313 11.9601C21.9084 10.8249 22.4864 8.42957 20.6179 8.17707C18.8572 7.93915 18.6431 9.81876 18.6431 9.81876L21.9023 15.1758C21.9023 14.1107 21.7589 13.0253 21.8313 11.9601Z" fill="url(#paint18_radial_2197_38666)"/>
<path d="M9.93735 7.60512C9.93735 7.60512 9.46927 7.50952 8.92368 7.89809C8.3153 8.33137 8.2147 9.35708 8.49009 9.80239C8.76548 10.2477 8.97678 10.5471 8.97678 10.5471C8.97678 10.5471 9.45654 10.5471 9.93664 11.0746C9.93664 11.0746 10.8745 12.1929 11.8589 13.6753C12.2958 14.3332 13.4761 13.9448 13.7222 13.6753C14.4084 12.9237 13.9165 11.7911 13.8042 11.5776C13.4468 10.8979 11.1528 8.24994 11.0034 8.07959C10.5874 7.60512 9.93735 7.60512 9.93735 7.60512Z" fill="url(#paint19_radial_2197_38666)"/>
<path d="M9.93735 7.60512C9.93735 7.60512 9.46927 7.50952 8.92368 7.89809C8.3153 8.33137 8.2147 9.35708 8.49009 9.80239C8.76548 10.2477 8.97678 10.5471 8.97678 10.5471C8.97678 10.5471 9.45654 10.5471 9.93664 11.0746C9.93664 11.0746 10.8745 12.1929 11.8589 13.6753C12.2958 14.3332 13.4761 13.9448 13.7222 13.6753C14.4084 12.9237 13.9165 11.7911 13.8042 11.5776C13.4468 10.8979 11.1528 8.24994 11.0034 8.07959C10.5874 7.60512 9.93735 7.60512 9.93735 7.60512Z" fill="url(#paint20_radial_2197_38666)"/>
<path d="M9.93735 7.60512C9.93735 7.60512 9.46927 7.50952 8.92368 7.89809C8.3153 8.33137 8.2147 9.35708 8.49009 9.80239C8.76548 10.2477 8.97678 10.5471 8.97678 10.5471C8.97678 10.5471 9.45654 10.5471 9.93664 11.0746C9.93664 11.0746 10.8745 12.1929 11.8589 13.6753C12.2958 14.3332 13.4761 13.9448 13.7222 13.6753C14.4084 12.9237 13.9165 11.7911 13.8042 11.5776C13.4468 10.8979 11.1528 8.24994 11.0034 8.07959C10.5874 7.60512 9.93735 7.60512 9.93735 7.60512Z" fill="url(#paint21_linear_2197_38666)"/>
<path d="M13.0487 6.43375C13.0487 6.43375 12.6796 6.02945 12.2401 5.63101C11.8007 5.23257 11.0214 5.09195 10.4179 5.44937C9.92841 5.73924 9.29872 6.55094 9.93739 7.60562C9.93739 7.60562 10.5474 7.60562 10.9458 8.01562C10.9458 8.01562 12.673 9.91127 13.7583 11.5547C14.4387 12.585 16.5265 11.9591 16.2544 10.7285C16.1165 10.105 13.2661 6.7207 13.0487 6.43375Z" fill="url(#paint22_radial_2197_38666)"/>
<path d="M13.0487 6.43375C13.0487 6.43375 12.6796 6.02945 12.2401 5.63101C11.8007 5.23257 11.0214 5.09195 10.4179 5.44937C9.92841 5.73924 9.29872 6.55094 9.93739 7.60562C9.93739 7.60562 10.5474 7.60562 10.9458 8.01562C10.9458 8.01562 12.673 9.91127 13.7583 11.5547C14.4387 12.585 16.5265 11.9591 16.2544 10.7285C16.1165 10.105 13.2661 6.7207 13.0487 6.43375Z" fill="url(#paint23_radial_2197_38666)"/>
<path d="M13.0487 6.43375C13.0487 6.43375 12.6796 6.02945 12.2401 5.63101C11.8007 5.23257 11.0214 5.09195 10.4179 5.44937C9.92841 5.73924 9.29872 6.55094 9.93739 7.60562C9.93739 7.60562 10.5474 7.60562 10.9458 8.01562C10.9458 8.01562 12.673 9.91127 13.7583 11.5547C14.4387 12.585 16.5265 11.9591 16.2544 10.7285C16.1165 10.105 13.2661 6.7207 13.0487 6.43375Z" fill="url(#paint24_linear_2197_38666)"/>
<path d="M19.418 11.127C19.0547 10.4297 16.5527 6.38092 15.8203 5.6304C15.0879 4.87989 14.3059 4.94426 13.7168 5.30385C13.1277 5.66343 13.0488 6.43348 13.0488 6.43348C13.526 7.02627 15.4623 9.41705 16.3535 10.6758C17.5118 12.3116 19.418 11.127 19.418 11.127Z" fill="url(#paint25_radial_2197_38666)"/>
<path d="M19.418 11.127C19.0547 10.4297 16.5527 6.38092 15.8203 5.6304C15.0879 4.87989 14.3059 4.94426 13.7168 5.30385C13.1277 5.66343 13.0488 6.43348 13.0488 6.43348C13.526 7.02627 15.4623 9.41705 16.3535 10.6758C17.5118 12.3116 19.418 11.127 19.418 11.127Z" fill="url(#paint26_radial_2197_38666)"/>
<path d="M19.418 11.127C19.0547 10.4297 16.5527 6.38092 15.8203 5.6304C15.0879 4.87989 14.3059 4.94426 13.7168 5.30385C13.1277 5.66343 13.0488 6.43348 13.0488 6.43348C13.526 7.02627 15.4623 9.41705 16.3535 10.6758C17.5118 12.3116 19.418 11.127 19.418 11.127Z" fill="url(#paint27_linear_2197_38666)"/>
<path d="M19.418 11.127C19.0547 10.4297 16.5527 6.38092 15.8203 5.6304C15.0879 4.87989 14.3059 4.94426 13.7168 5.30385C13.1277 5.66343 13.0488 6.43348 13.0488 6.43348C13.526 7.02627 15.4623 9.41705 16.3535 10.6758C17.5118 12.3116 19.418 11.127 19.418 11.127Z" fill="url(#paint28_radial_2197_38666)"/>
<path d="M5.01665 5.85557L3.64315 5.27959C3.429 5.19097 3.36993 4.91775 3.53238 4.74791L4.24867 3.98732C4.40374 3.81748 4.68435 3.86178 4.78773 4.06855L5.44494 5.40512C5.57048 5.67834 5.29725 5.97372 5.01665 5.85557Z" fill="#1A80EA"/>
<path d="M5.01665 5.85557L3.64315 5.27959C3.429 5.19097 3.36993 4.91775 3.53238 4.74791L4.24867 3.98732C4.40374 3.81748 4.68435 3.86178 4.78773 4.06855L5.44494 5.40512C5.57048 5.67834 5.29725 5.97372 5.01665 5.85557Z" fill="url(#paint29_linear_2197_38666)"/>
<path d="M5.01665 5.85557L3.64315 5.27959C3.429 5.19097 3.36993 4.91775 3.53238 4.74791L4.24867 3.98732C4.40374 3.81748 4.68435 3.86178 4.78773 4.06855L5.44494 5.40512C5.57048 5.67834 5.29725 5.97372 5.01665 5.85557Z" fill="url(#paint30_linear_2197_38666)"/>
<path d="M5.01665 5.85557L3.64315 5.27959C3.429 5.19097 3.36993 4.91775 3.53238 4.74791L4.24867 3.98732C4.40374 3.81748 4.68435 3.86178 4.78773 4.06855L5.44494 5.40512C5.57048 5.67834 5.29725 5.97372 5.01665 5.85557Z" fill="url(#paint31_linear_2197_38666)"/>
<path d="M6.84392 4.60303L5.97121 3.42162C5.8353 3.23703 5.92114 2.9712 6.13574 2.90474L7.10859 2.60201C7.32319 2.53556 7.53779 2.71277 7.52348 2.94167L7.42334 4.42583C7.39472 4.72857 7.02275 4.8467 6.84392 4.60303Z" fill="#1A80EA"/>
<path d="M6.84392 4.60303L5.97121 3.42162C5.8353 3.23703 5.92114 2.9712 6.13574 2.90474L7.10859 2.60201C7.32319 2.53556 7.53779 2.71277 7.52348 2.94167L7.42334 4.42583C7.39472 4.72857 7.02275 4.8467 6.84392 4.60303Z" fill="url(#paint32_linear_2197_38666)"/>
<path d="M6.84392 4.60303L5.97121 3.42162C5.8353 3.23703 5.92114 2.9712 6.13574 2.90474L7.10859 2.60201C7.32319 2.53556 7.53779 2.71277 7.52348 2.94167L7.42334 4.42583C7.39472 4.72857 7.02275 4.8467 6.84392 4.60303Z" fill="url(#paint33_linear_2197_38666)"/>
<path d="M6.84392 4.60303L5.97121 3.42162C5.8353 3.23703 5.92114 2.9712 6.13574 2.90474L7.10859 2.60201C7.32319 2.53556 7.53779 2.71277 7.52348 2.94167L7.42334 4.42583C7.39472 4.72857 7.02275 4.8467 6.84392 4.60303Z" fill="url(#paint34_linear_2197_38666)"/>
<path d="M4.2375 7.84222L2.75172 8.03573C2.52143 8.0655 2.33571 7.8571 2.38771 7.62638L2.63286 6.5993C2.68486 6.37602 2.9523 6.27183 3.14546 6.39836L4.38608 7.23193C4.63866 7.41055 4.54208 7.80501 4.2375 7.84222Z" fill="#1A80EA"/>
<path d="M4.2375 7.84222L2.75172 8.03573C2.52143 8.0655 2.33571 7.8571 2.38771 7.62638L2.63286 6.5993C2.68486 6.37602 2.9523 6.27183 3.14546 6.39836L4.38608 7.23193C4.63866 7.41055 4.54208 7.80501 4.2375 7.84222Z" fill="url(#paint35_linear_2197_38666)"/>
<path d="M4.2375 7.84222L2.75172 8.03573C2.52143 8.0655 2.33571 7.8571 2.38771 7.62638L2.63286 6.5993C2.68486 6.37602 2.9523 6.27183 3.14546 6.39836L4.38608 7.23193C4.63866 7.41055 4.54208 7.80501 4.2375 7.84222Z" fill="url(#paint36_linear_2197_38666)"/>
<path d="M4.2375 7.84222L2.75172 8.03573C2.52143 8.0655 2.33571 7.8571 2.38771 7.62638L2.63286 6.5993C2.68486 6.37602 2.9523 6.27183 3.14546 6.39836L4.38608 7.23193C4.63866 7.41055 4.54208 7.80501 4.2375 7.84222Z" fill="url(#paint37_linear_2197_38666)"/>
<defs>
<linearGradient id="paint0_linear_2197_38666" x1="13.7808" y1="22.7822" x2="9.28076" y2="11.7197" gradientUnits="userSpaceOnUse">
<stop offset="0.122196" stop-color="#99607B"/>
<stop offset="1" stop-color="#B98481"/>
</linearGradient>
<radialGradient id="paint1_radial_2197_38666" cx="0" cy="0" r="1" gradientUnits="userSpaceOnUse" gradientTransform="translate(5.67139 11.1572) rotate(76.185) scale(2.94456 2.47595)">
<stop offset="0.126711" stop-color="#D5A797"/>
<stop offset="1" stop-color="#B98280" stop-opacity="0"/>
</radialGradient>
<radialGradient id="paint2_radial_2197_38666" cx="0" cy="0" r="1" gradientUnits="userSpaceOnUse" gradientTransform="translate(12.2808 14.0635) rotate(59.3715) scale(9.66078 5.57068)">
<stop offset="0.505939" stop-color="#9B635A"/>
<stop offset="1" stop-color="#9B635A" stop-opacity="0"/>
</radialGradient>
<radialGradient id="paint3_radial_2197_38666" cx="0" cy="0" r="1" gradientUnits="userSpaceOnUse" gradientTransform="translate(17.9292 9.00098) rotate(96.3402) scale(2.12236 1.7846)">
<stop stop-color="#B78281"/>
<stop offset="1" stop-color="#B78281" stop-opacity="0"/>
</radialGradient>
<radialGradient id="paint4_radial_2197_38666" cx="0" cy="0" r="1" gradientUnits="userSpaceOnUse" gradientTransform="translate(6.93652 8.20264) rotate(55.6197) scale(3.23743 2.79787)">
<stop offset="0.186792" stop-color="#DBAF9C"/>
<stop offset="0.82956" stop-color="#B17B76"/>
</radialGradient>
<radialGradient id="paint5_radial_2197_38666" cx="0" cy="0" r="1" gradientUnits="userSpaceOnUse" gradientTransform="translate(8.76465 10.1245) rotate(88.977) scale(2.62542 2.35892)">
<stop offset="0.0267379" stop-color="#8C5040"/>
<stop offset="1" stop-color="#A7716E" stop-opacity="0"/>
</radialGradient>
<radialGradient id="paint6_radial_2197_38666" cx="0" cy="0" r="1" gradientUnits="userSpaceOnUse" gradientTransform="translate(6.46777 11.812) rotate(60.8324) scale(6.92498 2.8026)">
<stop offset="0.161122" stop-color="#8C5040"/>
<stop offset="0.344055" stop-color="#B37E76" stop-opacity="0"/>
</radialGradient>
<radialGradient id="paint7_radial_2197_38666" cx="0" cy="0" r="1" gradientUnits="userSpaceOnUse" gradientTransform="translate(8.90674 5.57861) rotate(56.3099) scale(3.21119 2.77583)">
<stop offset="0.186792" stop-color="#EDC3AD"/>
<stop offset="0.82956" stop-color="#BB8783"/>
</radialGradient>
<radialGradient id="paint8_radial_2197_38666" cx="0" cy="0" r="1" gradientUnits="userSpaceOnUse" gradientTransform="translate(9.75049 7.73486) rotate(65.7723) scale(2.0561 1.37581)">
<stop offset="0.0267379" stop-color="#995F53"/>
<stop offset="1" stop-color="#B58176" stop-opacity="0"/>
</radialGradient>
<radialGradient id="paint9_radial_2197_38666" cx="0" cy="0" r="1" gradientUnits="userSpaceOnUse" gradientTransform="translate(7.68799 8.71924) rotate(62.0302) scale(7.69578 3.11676)">
<stop offset="0.161122" stop-color="#8C5447"/>
<stop offset="0.290305" stop-color="#C7968D" stop-opacity="0"/>
</radialGradient>
<radialGradient id="paint10_radial_2197_38666" cx="0" cy="0" r="1" gradientUnits="userSpaceOnUse" gradientTransform="translate(16.7808 11.3437) rotate(57.1596) scale(24.5482 15.4201)">
<stop offset="0.174074" stop-color="#FFD7BA"/>
<stop offset="0.456741" stop-color="#F0BCAE"/>
<stop offset="0.730967" stop-color="#BC7E96"/>
</radialGradient>
<radialGradient id="paint11_radial_2197_38666" cx="0" cy="0" r="1" gradientUnits="userSpaceOnUse" gradientTransform="translate(21.0698 12.7266) rotate(90) scale(5.625 1.38281)">
<stop stop-color="#FFE3C8"/>
<stop offset="1" stop-color="#FFE3C8" stop-opacity="0"/>
</radialGradient>
<radialGradient id="paint12_radial_2197_38666" cx="0" cy="0" r="1" gradientUnits="userSpaceOnUse" gradientTransform="translate(10.0776 12.5625) rotate(53.6606) scale(5.06272 1.12374)">
<stop stop-color="#FFD7BE"/>
<stop offset="1" stop-color="#FFD7BE" stop-opacity="0"/>
</radialGradient>
<radialGradient id="paint13_radial_2197_38666" cx="0" cy="0" r="1" gradientUnits="userSpaceOnUse" gradientTransform="translate(14.0386 11.6484) rotate(53.3659) scale(2.27814 1.22829)">
<stop stop-color="#F3B297"/>
<stop offset="1" stop-color="#FBD4B9" stop-opacity="0"/>
</radialGradient>
<radialGradient id="paint14_radial_2197_38666" cx="0" cy="0" r="1" gradientUnits="userSpaceOnUse" gradientTransform="translate(10.9683 6.75) rotate(72.7725) scale(25.3236 21.5318)">
<stop offset="0.63763" stop-color="#C98D9B" stop-opacity="0"/>
<stop offset="0.703717" stop-color="#C98D9B"/>
</radialGradient>
<radialGradient id="paint15_radial_2197_38666" cx="0" cy="0" r="1" gradientUnits="userSpaceOnUse" gradientTransform="translate(9.84326 19.3125) rotate(47.7621) scale(15.132 4.79625)">
<stop offset="0.332283" stop-color="#C48692"/>
<stop offset="1" stop-color="#F6C5B6" stop-opacity="0"/>
</radialGradient>
<radialGradient id="paint16_radial_2197_38666" cx="0" cy="0" r="1" gradientUnits="userSpaceOnUse" gradientTransform="translate(21.1406 10.5937) rotate(87.7382) scale(21.1571 4.82735)">
<stop offset="0.0491183" stop-color="#FFE4C9"/>
<stop offset="0.363874" stop-color="#E29F81"/>
<stop offset="0.510416" stop-color="#BC7352"/>
</radialGradient>
<radialGradient id="paint17_radial_2197_38666" cx="0" cy="0" r="1" gradientUnits="userSpaceOnUse" gradientTransform="translate(20.5781 14.1562) rotate(64.3196) scale(3.22478 1.70709)">
<stop offset="0.52378" stop-color="#FFD7BA"/>
<stop offset="1" stop-color="#FFD7BA" stop-opacity="0"/>
</radialGradient>
<radialGradient id="paint18_radial_2197_38666" cx="0" cy="0" r="1" gradientUnits="userSpaceOnUse" gradientTransform="translate(21.0469 13.0312) rotate(89.0179) scale(4.10217 0.737657)">
<stop offset="0.241007" stop-color="#FFE0C4"/>
<stop offset="1" stop-color="#FFE0C4" stop-opacity="0"/>
</radialGradient>
<radialGradient id="paint19_radial_2197_38666" cx="0" cy="0" r="1" gradientUnits="userSpaceOnUse" gradientTransform="translate(12.3276 10.2651) rotate(52.9945) scale(31.697 4.54697)">
<stop offset="0.117759" stop-color="#FFD5BA"/>
<stop offset="0.392418" stop-color="#F5BBA4"/>
<stop offset="0.602637" stop-color="#EBA48A"/>
</radialGradient>
<radialGradient id="paint20_radial_2197_38666" cx="0" cy="0" r="1" gradientUnits="userSpaceOnUse" gradientTransform="translate(10.2651 11.9995) rotate(52.1555) scale(7.71674 1.9848)">
<stop stop-color="#A9684D"/>
<stop offset="0.498616" stop-color="#E2A38B" stop-opacity="0"/>
</radialGradient>
<linearGradient id="paint21_linear_2197_38666" x1="14.5308" y1="13.4526" x2="12.3683" y2="12.2221" gradientUnits="userSpaceOnUse">
<stop offset="0.147947" stop-color="#FCD1B8"/>
<stop offset="1" stop-color="#FCD1B8" stop-opacity="0"/>
</linearGradient>
<radialGradient id="paint22_radial_2197_38666" cx="0" cy="0" r="1" gradientUnits="userSpaceOnUse" gradientTransform="translate(13.8822 8.16965) rotate(54.4286) scale(31.7372 4.82607)">
<stop offset="0.0126503" stop-color="#FFD7BB"/>
<stop offset="0.296062" stop-color="#F0B59C"/>
<stop offset="0.602637" stop-color="#E8A387"/>
</radialGradient>
<radialGradient id="paint23_radial_2197_38666" cx="0" cy="0" r="1" gradientUnits="userSpaceOnUse" gradientTransform="translate(11.2271 8.88281) rotate(50.0937) scale(11.9465 1.669)">
<stop offset="0.101813" stop-color="#C58064"/>
<stop offset="0.540918" stop-color="#DF9E82" stop-opacity="0"/>
</radialGradient>
<linearGradient id="paint24_linear_2197_38666" x1="16.6411" y1="12.0732" x2="13.9692" y2="9.75" gradientUnits="userSpaceOnUse">
<stop offset="0.28671" stop-color="#FFD7BA"/>
<stop offset="1" stop-color="#FFD7BA" stop-opacity="0"/>
</linearGradient>
<radialGradient id="paint25_radial_2197_38666" cx="0" cy="0" r="1" gradientUnits="userSpaceOnUse" gradientTransform="translate(17.1094 7.82813) rotate(55.5194) scale(19.7891 4.80567)">
<stop offset="0.118483" stop-color="#FFD7BA"/>
<stop offset="0.402194" stop-color="#F1AC8F"/>
<stop offset="1" stop-color="#CF876B"/>
</radialGradient>
<radialGradient id="paint26_radial_2197_38666" cx="0" cy="0" r="1" gradientUnits="userSpaceOnUse" gradientTransform="translate(14.6016 8.69531) rotate(52.0523) scale(9.71891 1.36203)">
<stop stop-color="#D08366"/>
<stop offset="0.609651" stop-color="#D08366" stop-opacity="0"/>
</radialGradient>
<linearGradient id="paint27_linear_2197_38666" x1="18.7962" y1="11.8958" x2="16.8374" y2="9.18729" gradientUnits="userSpaceOnUse">
<stop offset="0.487226" stop-color="#FFD7BA"/>
<stop offset="1" stop-color="#FFD7BA" stop-opacity="0"/>
</linearGradient>
<radialGradient id="paint28_radial_2197_38666" cx="0" cy="0" r="1" gradientUnits="userSpaceOnUse" gradientTransform="translate(16.6406 8.76562) rotate(53.0382) scale(17.5406 7.95176)">
<stop offset="0.239356" stop-color="#CF896C" stop-opacity="0"/>
<stop offset="0.300451" stop-color="#CF896C"/>
</radialGradient>
<linearGradient id="paint29_linear_2197_38666" x1="3.68655" y1="4.45828" x2="4.09457" y2="4.84123" gradientUnits="userSpaceOnUse">
<stop stop-color="#2065A3"/>
<stop offset="1" stop-color="#2067AE" stop-opacity="0"/>
</linearGradient>
<linearGradient id="paint30_linear_2197_38666" x1="4.21154" y1="5.964" x2="4.43964" y2="5.43689" gradientUnits="userSpaceOnUse">
<stop offset="0.605233" stop-color="#1C60FF"/>
<stop offset="1" stop-color="#1963FF" stop-opacity="0"/>
</linearGradient>
<linearGradient id="paint31_linear_2197_38666" x1="5.07113" y1="4.48135" x2="4.77314" y2="4.63889" gradientUnits="userSpaceOnUse">
<stop stop-color="#2093F1"/>
<stop offset="1" stop-color="#2294F3" stop-opacity="0"/>
</linearGradient>
<linearGradient id="paint32_linear_2197_38666" x1="6.57211" y1="2.50965" x2="6.75941" y2="3.12812" gradientUnits="userSpaceOnUse">
<stop stop-color="#2065A3"/>
<stop offset="1" stop-color="#2067AE" stop-opacity="0"/>
</linearGradient>
<linearGradient id="paint33_linear_2197_38666" x1="6.35974" y1="4.43769" x2="6.74913" y2="4.15314" gradientUnits="userSpaceOnUse">
<stop offset="0.605233" stop-color="#1C60FF"/>
<stop offset="1" stop-color="#1963FF" stop-opacity="0"/>
</linearGradient>
<linearGradient id="paint34_linear_2197_38666" x1="7.47745" y1="3.33675" x2="7.28143" y2="3.32659" gradientUnits="userSpaceOnUse">
<stop stop-color="#2093F1"/>
<stop offset="1" stop-color="#2294F3" stop-opacity="0"/>
</linearGradient>
<linearGradient id="paint35_linear_2197_38666" x1="2.37891" y1="7.19116" x2="2.86081" y2="7.30756" gradientUnits="userSpaceOnUse">
<stop stop-color="#2065A3"/>
<stop offset="1" stop-color="#2067AE" stop-opacity="0"/>
</linearGradient>
<linearGradient id="paint36_linear_2197_38666" x1="3.45478" y1="8.30498" x2="3.40995" y2="7.73342" gradientUnits="userSpaceOnUse">
<stop offset="0.605233" stop-color="#1C60FF"/>
<stop offset="1" stop-color="#1963FF" stop-opacity="0"/>
</linearGradient>
<linearGradient id="paint37_linear_2197_38666" x1="3.74897" y1="6.69957" x2="3.54164" y2="7.00216" gradientUnits="userSpaceOnUse">
<stop stop-color="#2093F1"/>
<stop offset="1" stop-color="#2294F3" stop-opacity="0"/>
</linearGradient>
</defs>
</svg>
