<svg width="20" height="20" viewBox="0 0 20 20" fill="none" xmlns="http://www.w3.org/2000/svg">
<g id="icon">
<g id="Vector">
<path id="Vector_2" fill-rule="evenodd" clip-rule="evenodd" d="M15.8334 10.4165C15.8334 12.4873 13.2217 14.1665 10.0001 14.1665C6.77841 14.1665 4.16675 12.4873 4.16675 10.4165C4.16675 8.34567 6.77841 6.6665 10.0001 6.6665C13.2217 6.6665 15.8334 8.34567 15.8334 10.4165Z" fill="white"/>
<path id="Vector-2" fill-rule="evenodd" clip-rule="evenodd" d="M11.4575 10.4167C11.4756 10.9494 11.2016 11.4496 10.743 11.7214C10.2844 11.9931 9.71406 11.9931 9.25544 11.7214C8.79681 11.4496 8.52286 10.9494 8.54088 10.4167C8.52286 9.88391 8.79681 9.38371 9.25544 9.11199C9.71406 8.84027 10.2844 8.84027 10.743 9.11199C11.2016 9.38371 11.4756 9.88391 11.4575 10.4167Z" fill="white" stroke="#808080" stroke-linecap="round" stroke-linejoin="round"/>
</g>
</g>
</svg>
