<svg width="25" height="25" viewBox="0 0 25 25" fill="none" xmlns="http://www.w3.org/2000/svg">
<g id="filter">
<g id="Icon">
<path id="Vector" d="M6.09521 10.377H18.0952" stroke="#0059FF" stroke-linecap="round"/>
<path id="Vector_2" d="M6.09521 15.377H18.0952" stroke="#0059FF" stroke-linecap="round"/>
<path id="Vector_3" d="M16.2952 10.1771C16.2952 11.0608 15.5789 11.7771 14.6952 11.7771C13.8116 11.7771 13.0952 11.0608 13.0952 10.1771C13.0952 9.29349 13.8116 8.57715 14.6952 8.57715C15.5789 8.57715 16.2952 9.29349 16.2952 10.1771Z" fill="#FEFEFE" stroke="#0059FF" stroke-linecap="round"/>
<path id="Vector_4" d="M11.2952 15.3773C11.2952 16.261 10.5789 16.9773 9.69521 16.9773C8.81156 16.9773 8.09521 16.261 8.09521 15.3773C8.09521 14.4937 8.81156 13.7773 9.69521 13.7773C10.5789 13.7773 11.2952 14.4937 11.2952 15.3773Z" fill="#FEFEFE" stroke="#0059FF" stroke-linecap="round"/>
</g>
</g>
</svg>
