<svg width="70" height="17" viewBox="0 0 70 17" fill="none" xmlns="http://www.w3.org/2000/svg">
<g id="sfac 1" clip-path="url(#clip0_2347_7521)">
<g id="Layer_1-2">
<g id="Group">
<g id="Group_2">
<path id="Vector" d="M56.9139 14.1385C58.4907 15.5225 60.6301 16.3768 62.9918 16.3768C65.5236 16.3768 67.7981 15.393 69.4002 13.8281L63.3266 8.28955L56.9139 14.1372V14.1385Z" fill="#8AB7FF"/>
<path id="Vector_2" d="M62.992 0.376953C60.6782 0.376953 58.581 1.19914 57.0126 2.5344L63.3268 8.2923L69.3104 2.83583C67.7139 1.32356 65.476 0.378236 62.992 0.378236V0.376953Z" fill="#8AB7FF"/>
<path id="Vector_3" d="M57.0135 2.5332C55.2975 3.99288 54.2186 6.06824 54.2186 8.37704C54.2186 10.6858 55.2553 12.683 56.9136 14.1388L63.3263 8.2911L57.0121 2.5332H57.0135Z" fill="#0059FF"/>
</g>
<g id="Group_3">
<path id="Vector_4" d="M37.7496 5.04623V0.379883H27.1538H20.4894V5.04623V6.82401V11.4134V16.2952H27.1538V11.4134H33.8182V6.82401H27.1538V5.04623H37.7496Z" fill="#0059FF"/>
<g id="Group_4">
<path id="Vector_5" d="M27.1538 11.4141H20.4894V16.2946H27.1538V11.4141Z" fill="#8AB7FF"/>
<path id="Vector_6" d="M27.1538 5.04541H20.4894V6.82319H27.1538V5.04541Z" fill="#8AB7FF"/>
<path id="Vector_7" d="M37.7513 0.379883H27.1555V5.04623H37.7513V0.379883Z" fill="#8AB7FF"/>
<path id="Vector_8" d="M33.82 6.82373H27.1556V11.4144H33.82V6.82373Z" fill="#8AB7FF"/>
</g>
</g>
<g id="Group_5">
<g id="Group_6">
<path id="Vector_9" d="M17.6657 0.433105H6.24145C3.02318 0.433105 0.413968 2.80604 0.399902 5.73822H11.8256C15.0439 5.73822 17.6531 8.11116 17.6657 11.0433V0.433105Z" fill="#8AB7FF"/>
<path id="Vector_10" d="M0.399902 5.7583V16.3467H11.872C15.072 16.3467 17.6657 13.9815 17.6657 11.0634C17.6657 11.0557 17.6657 11.0493 17.6657 11.0416H6.19503C2.99505 11.0416 0.399902 8.67637 0.399902 5.7583Z" fill="#8AB7FF"/>
</g>
<path id="Vector_11" d="M6.19362 11.0444H17.6643C17.6517 8.11219 15.0424 5.73926 11.8242 5.73926H0.399902C0.399902 5.74695 0.399902 5.75337 0.399902 5.76106C0.399902 8.67913 2.99364 11.0444 6.19362 11.0444Z" fill="#0059FF"/>
</g>
<g id="Group_7">
<path id="Vector_12" d="M35.7614 16.2952H44.4386V0.379883L35.7614 16.2952Z" fill="#8AB7FF"/>
<path id="Vector_13" d="M44.4395 16.2952H53.1182L44.4395 0.379883V16.2952Z" fill="#0059FF"/>
</g>
</g>
</g>
</g>
<defs>
<clipPath id="clip0_2347_7521">
<rect width="69" height="16" fill="white" transform="translate(0.399902 0.376953)"/>
</clipPath>
</defs>
</svg>
