<svg width="24" height="24" viewBox="0 0 24 24" fill="none" xmlns="http://www.w3.org/2000/svg">
<path fill-rule="evenodd" clip-rule="evenodd" d="M7.5761 4.24158L20.1026 11.591C20.3375 11.7177 20.4971 11.966 20.4971 12.2516C20.4971 12.5376 20.337 12.7862 20.1015 12.9127L7.57613 20.2615C7.01256 20.5988 6.30498 20.5818 5.75818 20.2174C5.21 19.8521 4.92186 19.2032 5.01844 18.5516C5.02577 18.5021 5.03804 18.4535 5.05507 18.4064L7.28176 12.2516L5.05507 6.09671C5.03804 6.04965 5.02577 6.00101 5.01844 5.95151C4.92186 5.29987 5.21 4.65102 5.75818 4.2857C6.30497 3.9213 7.01253 3.90427 7.5761 4.24158ZM8.60556 13.0016L6.50086 18.8193C6.50627 18.8793 6.53845 18.9348 6.59003 18.9692C6.65509 19.0126 6.73932 19.0145 6.80629 18.9741L6.81377 18.9696L16.9859 13.0016H8.60556ZM16.986 11.5016L6.80626 5.52902C6.7393 5.48867 6.65509 5.49055 6.59003 5.53391C6.53845 5.56828 6.50627 5.6238 6.50086 5.68387L8.60558 11.5016H16.986Z" fill="black"/>
</svg>
