<svg width="14" height="14" viewBox="0 0 14 14" fill="none" xmlns="http://www.w3.org/2000/svg">
<g id="Vector">
<path id="Vector-90 (Stroke)" fill-rule="evenodd" clip-rule="evenodd" d="M6.89989 1.7915C4.02341 1.7915 1.69156 4.12335 1.69156 6.99984C1.69156 9.87632 4.02341 12.2082 6.89989 12.2082C9.77638 12.2082 12.1082 9.87632 12.1082 6.99984C12.1082 5.6185 11.5595 4.29374 10.5827 3.31699C9.60599 2.34024 8.28123 1.7915 6.89989 1.7915ZM0.441559 6.99984C0.441559 3.433 3.33305 0.541504 6.89989 0.541504C8.61275 0.541504 10.2555 1.22193 11.4666 2.43311C12.6778 3.64428 13.3582 5.28698 13.3582 6.99984C13.3582 10.5667 10.4667 13.4582 6.89989 13.4582C3.33305 13.4582 0.441559 10.5667 0.441559 6.99984Z" fill="#CCCCCC"/>
<path id="Vector-65 (Stroke)" fill-rule="evenodd" clip-rule="evenodd" d="M6.8999 6.37484C7.24508 6.37484 7.5249 6.65466 7.5249 6.99984L7.5249 10.3332C7.5249 10.6783 7.24508 10.9582 6.8999 10.9582C6.55472 10.9582 6.2749 10.6783 6.2749 10.3332L6.2749 6.99984C6.2749 6.65466 6.55472 6.37484 6.8999 6.37484ZM6.8999 3.0415C7.24508 3.0415 7.5249 3.32133 7.5249 3.6665L7.5249 4.49984C7.5249 4.84502 7.24508 5.12484 6.8999 5.12484C6.55472 5.12484 6.2749 4.84502 6.2749 4.49984L6.2749 3.6665C6.2749 3.32133 6.55472 3.0415 6.8999 3.0415Z" fill="#CCCCCC"/>
</g>
</svg>
