<svg width="48" height="24" viewBox="0 0 48 24" fill="none" xmlns="http://www.w3.org/2000/svg">
<path fill-rule="evenodd" clip-rule="evenodd" d="M26.4769 14H21.5229C20.0649 14.0724 18.7731 14.963 18.1869 16.3C17.4799 17.688 18.8909 19 20.5319 19H27.4679C29.1099 19 30.5209 17.688 29.8129 16.3C29.2268 14.963 27.935 14.0724 26.4769 14Z" stroke="#B3B3B3" stroke-width="1.5" stroke-linecap="round" stroke-linejoin="round"/>
<path fill-rule="evenodd" clip-rule="evenodd" d="M27 8C27 9.65685 25.6569 11 24 11C22.3431 11 21 9.65685 21 8C21 6.34315 22.3431 5 24 5C24.7956 5 25.5587 5.31607 26.1213 5.87868C26.6839 6.44129 27 7.20435 27 8Z" stroke="#B3B3B3" stroke-width="1.5" stroke-linecap="round" stroke-linejoin="round"/>
</svg>
