<svg width="48" height="24" viewBox="0 0 48 24" fill="none" xmlns="http://www.w3.org/2000/svg">
<path fill-rule="evenodd" clip-rule="evenodd" d="M21.418 10.0001H18.582C18.1659 9.99659 17.7654 10.1586 17.4687 10.4504C17.172 10.7422 17.0034 11.1399 17 11.5561V17.4451C17.0077 18.3112 17.7158 19.0073 18.582 19.0001H21.418C21.8341 19.0035 22.2346 18.8415 22.5313 18.5497C22.828 18.2579 22.9966 17.8602 23 17.4441V11.5561C22.9966 11.1399 22.828 10.7422 22.5313 10.4504C22.2346 10.1586 21.8341 9.99659 21.418 10.0001Z" stroke="#B3B3B3" stroke-width="1.5" stroke-linecap="round" stroke-linejoin="round"/>
<path fill-rule="evenodd" clip-rule="evenodd" d="M21.418 4.0006H18.582C17.7333 3.97706 17.0256 4.64492 17 5.4936V6.5076C17.0256 7.35629 17.7333 8.02415 18.582 8.0006H21.418C22.2667 8.02415 22.9744 7.35629 23 6.5076V5.4936C22.9744 4.64492 22.2667 3.97706 21.418 4.0006Z" stroke="#B3B3B3" stroke-width="1.5" stroke-linecap="round" stroke-linejoin="round"/>
<path fill-rule="evenodd" clip-rule="evenodd" d="M26.582 13.0001H29.417C29.8333 13.0038 30.234 12.8419 30.5309 12.5501C30.8278 12.2582 30.9966 11.8604 31 11.4441V5.55605C30.9966 5.13993 30.828 4.74221 30.5313 4.4504C30.2346 4.15859 29.8341 3.99659 29.418 4.00005H26.582C26.1659 3.99659 25.7654 4.15859 25.4687 4.4504C25.172 4.74221 25.0034 5.13993 25 5.55605V11.4441C25.0034 11.8602 25.172 12.2579 25.4687 12.5497C25.7654 12.8415 26.1659 13.0035 26.582 13.0001Z" stroke="#B3B3B3" stroke-width="1.5" stroke-linecap="round" stroke-linejoin="round"/>
<path fill-rule="evenodd" clip-rule="evenodd" d="M26.582 19.0006H29.417C30.2661 19.0247 30.9744 18.3567 31 17.5076V16.4936C30.9744 15.6449 30.2667 14.9771 29.418 15.0006H26.582C25.7333 14.9771 25.0256 15.6449 25 16.4936V17.5066C25.025 18.3557 25.7329 19.0241 26.582 19.0006Z" stroke="#B3B3B3" stroke-width="1.5" stroke-linecap="round" stroke-linejoin="round"/>
</svg>
