<svg width="6" height="6" viewBox="0 0 6 6" fill="none" xmlns="http://www.w3.org/2000/svg">
<path fill-rule="evenodd" clip-rule="evenodd" d="M0.109835 0.109835C0.256282 -0.0366117 0.493718 -0.0366117 0.640165 0.109835L2.875 2.34467L5.10984 0.109835C5.25628 -0.0366117 5.49372 -0.0366117 5.64016 0.109835C5.78661 0.256282 5.78661 0.493718 5.64016 0.640165L3.40533 2.875L5.64016 5.10984C5.78661 5.25628 5.78661 5.49372 5.64016 5.64016C5.49372 5.78661 5.25628 5.78661 5.10984 5.64016L2.875 3.40533L0.640165 5.64016C0.493718 5.78661 0.256282 5.78661 0.109835 5.64016C-0.0366117 5.49372 -0.0366117 5.25628 0.109835 5.10984L2.34467 2.875L0.109835 0.640165C-0.0366117 0.493718 -0.0366117 0.256282 0.109835 0.109835Z" fill="black"/>
</svg>
