<svg width="30" height="30" viewBox="0 0 30 30" fill="none" xmlns="http://www.w3.org/2000/svg">
<path d="M8.75 14.25C8.33579 14.25 8 14.5858 8 15C8 15.4142 8.33579 15.75 8.75 15.75V14.25ZM15 15.75C15.4142 15.75 15.75 15.4142 15.75 15C15.75 14.5858 15.4142 14.25 15 14.25V15.75ZM15 14.25C14.5858 14.25 14.25 14.5858 14.25 15C14.25 15.4142 14.5858 15.75 15 15.75V14.25ZM21.25 15.75C21.6642 15.75 22 15.4142 22 15C22 14.5858 21.6642 14.25 21.25 14.25V15.75ZM15.75 15C15.75 14.5858 15.4142 14.25 15 14.25C14.5858 14.25 14.25 14.5858 14.25 15H15.75ZM14.25 21.25C14.25 21.6642 14.5858 22 15 22C15.4142 22 15.75 21.6642 15.75 21.25H14.25ZM14.25 15C14.25 15.4142 14.5858 15.75 15 15.75C15.4142 15.75 15.75 15.4142 15.75 15H14.25ZM15.75 8.75C15.75 8.33579 15.4142 8 15 8C14.5858 8 14.25 8.33579 14.25 8.75H15.75ZM8.75 15.75H15V14.25H8.75V15.75ZM15 15.75H21.25V14.25H15V15.75ZM15 15H14.25C14.25 15 14.25 15 14.25 15C14.25 15 14.25 15 14.25 15C14.25 15 14.25 15 14.25 15C14.25 15 14.25 15 14.25 15C14.25 15 14.25 15 14.25 15C14.25 15 14.25 15 14.25 15C14.25 15 14.25 15 14.25 15C14.25 15 14.25 15 14.25 15C14.25 15 14.25 15 14.25 15C14.25 15.0001 14.25 15.0001 14.25 15.0001C14.25 15.0001 14.25 15.0001 14.25 15.0001C14.25 15.0001 14.25 15.0001 14.25 15.0001C14.25 15.0001 14.25 15.0001 14.25 15.0001C14.25 15.0001 14.25 15.0001 14.25 15.0002C14.25 15.0002 14.25 15.0002 14.25 15.0002C14.25 15.0002 14.25 15.0002 14.25 15.0002C14.25 15.0002 14.25 15.0003 14.25 15.0003C14.25 15.0003 14.25 15.0003 14.25 15.0003C14.25 15.0003 14.25 15.0004 14.25 15.0004C14.25 15.0004 14.25 15.0004 14.25 15.0004C14.25 15.0005 14.25 15.0005 14.25 15.0005C14.25 15.0005 14.25 15.0005 14.25 15.0006C14.25 15.0006 14.25 15.0006 14.25 15.0006C14.25 15.0007 14.25 15.0007 14.25 15.0007C14.25 15.0008 14.25 15.0008 14.25 15.0008C14.25 15.0008 14.25 15.0009 14.25 15.0009C14.25 15.001 14.25 15.001 14.25 15.001C14.25 15.0011 14.25 15.0011 14.25 15.0011C14.25 15.0012 14.25 15.0012 14.25 15.0013C14.25 15.0013 14.25 15.0013 14.25 15.0014C14.25 15.0014 14.25 15.0015 14.25 15.0015C14.25 15.0016 14.25 15.0016 14.25 15.0017C14.25 15.0017 14.25 15.0018 14.25 15.0018C14.25 15.0019 14.25 15.0019 14.25 15.002C14.25 15.0021 14.25 15.0021 14.25 15.0022C14.25 15.0022 14.25 15.0023 14.25 15.0024C14.25 15.0024 14.25 15.0025 14.25 15.0026C14.25 15.0026 14.25 15.0027 14.25 15.0028C14.25 15.0028 14.25 15.0029 14.25 15.003C14.25 15.0031 14.25 15.0031 14.25 15.0032C14.25 15.0033 14.25 15.0034 14.25 15.0034C14.25 15.0035 14.25 15.0036 14.25 15.0037C14.25 15.0038 14.25 15.0039 14.25 15.004C14.25 15.0041 14.25 15.0041 14.25 15.0042C14.25 15.0043 14.25 15.0044 14.25 15.0045C14.25 15.0046 14.25 15.0047 14.25 15.0048C14.25 15.0049 14.25 15.005 14.25 15.0051C14.25 15.0053 14.25 15.0054 14.25 15.0055C14.25 15.0056 14.25 15.0057 14.25 15.0058C14.25 15.0059 14.25 15.0061 14.25 15.0062C14.25 15.0063 14.25 15.0064 14.25 15.0065C14.25 15.0067 14.25 15.0068 14.25 15.0069C14.25 15.0071 14.25 15.0072 14.25 15.0073C14.25 15.0075 14.25 15.0076 14.25 15.0077C14.25 15.0079 14.25 15.008 14.25 15.0082C14.25 15.0083 14.25 15.0085 14.25 15.0086C14.25 15.0088 14.25 15.0089 14.25 15.0091C14.25 15.0092 14.25 15.0094 14.25 15.0096C14.25 15.0097 14.25 15.0099 14.25 15.0101C14.25 15.0102 14.25 15.0104 14.25 15.0106C14.25 15.0107 14.25 15.0109 14.25 15.0111C14.25 15.0113 14.25 15.0115 14.25 15.0116C14.25 15.0118 14.25 15.012 14.25 15.0122C14.25 15.0124 14.25 15.0126 14.25 15.0128C14.25 15.013 14.25 15.0132 14.25 15.0134C14.25 15.0136 14.25 15.0138 14.25 15.014C14.25 15.0142 14.25 15.0144 14.25 15.0146C14.25 15.0149 14.25 15.0151 14.25 15.0153C14.25 15.0155 14.25 15.0157 14.25 15.016C14.25 15.0162 14.25 15.0164 14.25 15.0167C14.25 15.0169 14.25 15.0171 14.25 15.0174C14.25 15.0176 14.25 15.0179 14.25 15.0181C14.25 15.0184 14.25 15.0186 14.25 15.0189C14.25 15.0191 14.25 15.0194 14.25 15.0196C14.25 15.0199 14.25 15.0202 14.25 15.0204C14.25 15.0207 14.25 15.021 14.25 15.0213C14.25 15.0215 14.25 15.0218 14.25 15.0221C14.25 15.0224 14.25 15.0227 14.25 15.023C14.25 15.0232 14.25 15.0235 14.25 15.0238C14.25 15.0241 14.25 15.0244 14.25 15.0247C14.25 15.0251 14.25 15.0254 14.25 15.0257C14.25 15.026 14.25 15.0263 14.25 15.0266C14.25 15.0269 14.25 15.0273 14.25 15.0276C14.25 15.0279 14.25 15.0283 14.25 15.0286C14.25 15.0289 14.25 15.0293 14.25 15.0296C14.25 15.03 14.25 15.0303 14.25 15.0307C14.25 15.031 14.25 15.0314 14.25 15.0317C14.25 15.0321 14.25 15.0325 14.25 15.0328C14.25 15.0332 14.25 15.0336 14.25 15.0339C14.25 15.0343 14.25 15.0347 14.25 15.0351C14.25 15.0355 14.25 15.0359 14.25 15.0363C14.25 15.0367 14.25 15.0371 14.25 15.0375C14.25 15.0379 14.25 15.0383 14.25 15.0387C14.25 15.0391 14.25 15.0395 14.25 15.0399C14.25 15.0403 14.25 15.0408 14.25 15.0412C14.25 15.0416 14.25 15.0421 14.25 15.0425C14.25 15.0429 14.25 15.0434 14.25 15.0438C14.25 15.0443 14.25 15.0447 14.25 15.0452C14.25 15.0456 14.25 15.0461 14.25 15.0466C14.25 15.047 14.25 15.0475 14.25 15.048C14.25 15.0485 14.25 15.0489 14.25 15.0494C14.25 15.0499 14.25 15.0504 14.25 15.0509C14.25 15.0514 14.25 15.0519 14.25 15.0524C14.25 15.0529 14.25 15.0534 14.25 15.0539C14.25 15.0544 14.25 15.0549 14.25 15.0555C14.25 15.056 14.25 15.0565 14.25 15.057C14.25 15.0576 14.25 15.0581 14.25 15.0587C14.25 15.0592 14.25 15.0598 14.25 15.0603C14.25 15.0609 14.25 15.0614 14.25 15.062C14.25 15.0625 14.25 15.0631 14.25 15.0637C14.25 15.0643 14.25 15.0648 14.25 15.0654C14.25 15.066 14.25 15.0666 14.25 15.0672C14.25 15.0678 14.25 15.0684 14.25 15.069C14.25 15.0696 14.25 15.0702 14.25 15.0708C14.25 15.0714 14.25 15.0721 14.25 15.0727C14.25 15.0733 14.25 15.0739 14.25 15.0746C14.25 15.0752 14.25 15.0759 14.25 15.0765C14.25 15.0772 14.25 15.0778 14.25 15.0785C14.25 15.0791 14.25 15.0798 14.25 15.0805C14.25 15.0811 14.25 15.0818 14.25 15.0825C14.25 15.0832 14.25 15.0839 14.25 15.0846C14.25 15.0852 14.25 15.0859 14.25 15.0867C14.25 15.0874 14.25 15.0881 14.25 15.0888C14.25 15.0895 14.25 15.0902 14.25 15.0909C14.25 15.0917 14.25 15.0924 14.25 15.0931C14.25 15.0939 14.25 15.0946 14.25 15.0954C14.25 15.0961 14.25 15.0969 14.25 15.0977C14.25 15.0984 14.25 15.0992 14.25 15.1C14.25 15.1007 14.25 15.1015 14.25 15.1023C14.25 15.1031 14.25 15.1039 14.25 15.1047C14.25 15.1055 14.25 15.1063 14.25 15.1071C14.25 15.1079 14.25 15.1087 14.25 15.1096C14.25 15.1104 14.25 15.1112 14.25 15.112C14.25 15.1129 14.25 15.1137 14.25 15.1146C14.25 15.1154 14.25 15.1163 14.25 15.1171C14.25 15.118 14.25 15.1189 14.25 15.1197C14.25 15.1206 14.25 15.1215 14.25 15.1224C14.25 15.1233 14.25 15.1242 14.25 15.1251C14.25 15.126 14.25 15.1269 14.25 15.1278C14.25 15.1287 14.25 15.1296 14.25 15.1305C14.25 15.1315 14.25 15.1324 14.25 15.1333C14.25 15.1343 14.25 15.1352 14.25 15.1362C14.25 15.1371 14.25 15.1381 14.25 15.139C14.25 15.14 14.25 15.141 14.25 15.142C14.25 15.1429 14.25 15.1439 14.25 15.1449C14.25 15.1459 14.25 15.1469 14.25 15.1479C14.25 15.1489 14.25 15.1499 14.25 15.151C14.25 15.152 14.25 15.153 14.25 15.154C14.25 15.1551 14.25 15.1561 14.25 15.1572C14.25 15.1582 14.25 15.1593 14.25 15.1603C14.25 15.1614 14.25 15.1625 14.25 15.1635C14.25 15.1646 14.25 15.1657 14.25 15.1668C14.25 15.1679 14.25 15.169 14.25 15.1701C14.25 15.1712 14.25 15.1723 14.25 15.1734C14.25 15.1745 14.25 15.1757 14.25 15.1768C14.25 15.1779 14.25 15.1791 14.25 15.1802C14.25 15.1814 14.25 15.1825 14.25 15.1837C14.25 15.1848 14.25 15.186 14.25 15.1872C14.25 15.1884 14.25 15.1895 14.25 15.1907C14.25 15.1919 14.25 15.1931 14.25 15.1943C14.25 15.1955 14.25 15.1968 14.25 15.198C14.25 15.1992 14.25 15.2004 14.25 15.2017C14.25 15.2029 14.25 15.2041 14.25 15.2054C14.25 15.2067 14.25 15.2079 14.25 15.2092C14.25 15.2104 14.25 15.2117 14.25 15.213C14.25 15.2143 14.25 15.2156 14.25 15.2169C14.25 15.2182 14.25 15.2195 14.25 15.2208C14.25 15.2221 14.25 15.2234 14.25 15.2248C14.25 15.2261 14.25 15.2274 14.25 15.2288C14.25 15.2301 14.25 15.2315 14.25 15.2328C14.25 15.2342 14.25 15.2356 14.25 15.2369C14.25 15.2383 14.25 15.2397 14.25 15.2411C14.25 15.2425 14.25 15.2439 14.25 15.2453C14.25 15.2467 14.25 15.2481 14.25 15.2496C14.25 15.251 14.25 15.2524 14.25 15.2539C14.25 15.2553 14.25 15.2568 14.25 15.2582C14.25 15.2597 14.25 15.2611 14.25 15.2626C14.25 15.2641 14.25 15.2656 14.25 15.2671C14.25 15.2686 14.25 15.2701 14.25 15.2716C14.25 15.2731 14.25 15.2746 14.25 15.2761C14.25 15.2777 14.25 15.2792 14.25 15.2807C14.25 15.2823 14.25 15.2838 14.25 15.2854C14.25 15.2869 14.25 15.2885 14.25 15.2901C14.25 15.2917 14.25 15.2932 14.25 15.2948C14.25 15.2964 14.25 15.298 14.25 15.2996C14.25 15.3013 14.25 15.3029 14.25 15.3045C14.25 15.3061 14.25 15.3078 14.25 15.3094C14.25 15.3111 14.25 15.3127 14.25 15.3144C14.25 15.316 14.25 15.3177 14.25 15.3194C14.25 15.3211 14.25 15.3228 14.25 15.3245C14.25 15.3262 14.25 15.3279 14.25 15.3296C14.25 15.3313 14.25 15.333 14.25 15.3348C14.25 15.3365 14.25 15.3382 14.25 15.34C14.25 15.3417 14.25 15.3435 14.25 15.3453C14.25 15.3471 14.25 15.3488 14.25 15.3506C14.25 15.3524 14.25 15.3542 14.25 15.356C14.25 15.3578 14.25 15.3596 14.25 15.3615C14.25 15.3633 14.25 15.3651 14.25 15.367C14.25 15.3688 14.25 15.3707 14.25 15.3725C14.25 15.3744 14.25 15.3763 14.25 15.3781C14.25 15.38 14.25 15.3819 14.25 15.3838C14.25 15.3857 14.25 15.3876 14.25 15.3895C14.25 15.3915 14.25 15.3934 14.25 15.3953C14.25 15.3973 14.25 15.3992 14.25 15.4012C14.25 15.4031 14.25 15.4051 14.25 15.4071C14.25 15.409 14.25 15.411 14.25 15.413C14.25 15.415 14.25 15.417 14.25 15.419C14.25 15.4211 14.25 15.4231 14.25 15.4251C14.25 15.4272 14.25 15.4292 14.25 15.4312C14.25 15.4333 14.25 15.4354 14.25 15.4374C14.25 15.4395 14.25 15.4416 14.25 15.4437C14.25 15.4458 14.25 15.4479 14.25 15.45C14.25 15.4521 14.25 15.4542 14.25 15.4564C14.25 15.4585 14.25 15.4606 14.25 15.4628C14.25 15.4649 14.25 15.4671 14.25 15.4693C14.25 15.4715 14.25 15.4736 14.25 15.4758C14.25 15.478 14.25 15.4802 14.25 15.4824C14.25 15.4846 14.25 15.4869 14.25 15.4891C14.25 15.4913 14.25 15.4936 14.25 15.4958C14.25 15.4981 14.25 15.5004 14.25 15.5026C14.25 15.5049 14.25 15.5072 14.25 15.5095C14.25 15.5118 14.25 15.5141 14.25 15.5164C14.25 15.5187 14.25 15.521 14.25 15.5234C14.25 15.5257 14.25 15.5281 14.25 15.5304C14.25 15.5328 14.25 15.5351 14.25 15.5375C14.25 15.5399 14.25 15.5423 14.25 15.5447C14.25 15.5471 14.25 15.5495 14.25 15.5519C14.25 15.5543 14.25 15.5568 14.25 15.5592C14.25 15.5617 14.25 15.5641 14.25 15.5666C14.25 15.569 14.25 15.5715 14.25 15.574C14.25 15.5765 14.25 15.579 14.25 15.5815C14.25 15.584 14.25 15.5865 14.25 15.589C14.25 15.5916 14.25 15.5941 14.25 15.5966C14.25 15.5992 14.25 15.6018 14.25 15.6043C14.25 15.6069 14.25 15.6095 14.25 15.6121C14.25 15.6147 14.25 15.6173 14.25 15.6199C14.25 15.6225 14.25 15.6251 14.25 15.6278C14.25 15.6304 14.25 15.6331 14.25 15.6357C14.25 15.6384 14.25 15.641 14.25 15.6437C14.25 15.6464 14.25 15.6491 14.25 15.6518C14.25 15.6545 14.25 15.6572 14.25 15.66C14.25 15.6627 14.25 15.6654 14.25 15.6682C14.25 15.6709 14.25 15.6737 14.25 15.6765C14.25 15.6792 14.25 15.682 14.25 15.6848C14.25 15.6876 14.25 15.6904 14.25 15.6932C14.25 15.696 14.25 15.6989 14.25 15.7017C14.25 15.7046 14.25 15.7074 14.25 15.7103C14.25 15.7131 14.25 15.716 14.25 15.7189C14.25 15.7218 14.25 15.7247 14.25 15.7276C14.25 15.7305 14.25 15.7334 14.25 15.7364C14.25 15.7393 14.25 15.7422 14.25 15.7452C14.25 15.7482 14.25 15.7511 14.25 15.7541C14.25 15.7571 14.25 15.7601 14.25 15.7631C14.25 15.7661 14.25 15.7691 14.25 15.7721C14.25 15.7752 14.25 15.7782 14.25 15.7812C14.25 15.7843 14.25 15.7874 14.25 15.7904C14.25 15.7935 14.25 15.7966 14.25 15.7997C14.25 15.8028 14.25 15.8059 14.25 15.809C14.25 15.8122 14.25 15.8153 14.25 15.8184C14.25 15.8216 14.25 15.8248 14.25 15.8279C14.25 15.8311 14.25 15.8343 14.25 15.8375C14.25 15.8407 14.25 15.8439 14.25 15.8471C14.25 15.8503 14.25 15.8536 14.25 15.8568C14.25 15.8601 14.25 15.8633 14.25 15.8666C14.25 15.8698 14.25 15.8731 14.25 15.8764C14.25 15.8797 14.25 15.883 14.25 15.8863C14.25 15.8897 14.25 15.893 14.25 15.8963C14.25 15.8997 14.25 15.903 14.25 15.9064C14.25 15.9098 14.25 15.9132 14.25 15.9166C14.25 15.92 14.25 15.9234 14.25 15.9268C14.25 15.9302 14.25 15.9336 14.25 15.9371C14.25 15.9405 14.25 15.944 14.25 15.9475C14.25 15.9509 14.25 15.9544 14.25 15.9579C14.25 15.9614 14.25 15.9649 14.25 15.9684C14.25 15.972 14.25 15.9755 14.25 15.979C14.25 15.9826 14.25 15.9861 14.25 15.9897C14.25 15.9933 14.25 15.9969 14.25 16.0005C14.25 16.0041 14.25 16.0077 14.25 16.0113C14.25 16.0149 14.25 16.0186 14.25 16.0222C14.25 16.0259 14.25 16.0295 14.25 16.0332C14.25 16.0369 14.25 16.0406 14.25 16.0443C14.25 16.048 14.25 16.0517 14.25 16.0554C14.25 16.0592 14.25 16.0629 14.25 16.0667C14.25 16.0704 14.25 16.0742 14.25 16.078C14.25 16.0817 14.25 16.0855 14.25 16.0894C14.25 16.0932 14.25 16.097 14.25 16.1008C14.25 16.1047 14.25 16.1085 14.25 16.1124C14.25 16.1162 14.25 16.1201 14.25 16.124C14.25 16.1279 14.25 16.1318 14.25 16.1357C14.25 16.1396 14.25 16.1435 14.25 16.1475C14.25 16.1514 14.25 16.1554 14.25 16.1594C14.25 16.1633 14.25 16.1673 14.25 16.1713C14.25 16.1753 14.25 16.1793 14.25 16.1833C14.25 16.1874 14.25 16.1914 14.25 16.1955C14.25 16.1995 14.25 16.2036 14.25 16.2077C14.25 16.2117 14.25 16.2158 14.25 16.2199C14.25 16.2241 14.25 16.2282 14.25 16.2323C14.25 16.2364 14.25 16.2406 14.25 16.2448C14.25 16.2489 14.25 16.2531 14.25 16.2573C14.25 16.2615 14.25 16.2657 14.25 16.2699C14.25 16.2741 14.25 16.2784 14.25 16.2826C14.25 16.2868 14.25 16.2911 14.25 16.2954C14.25 16.2997 14.25 16.3039 14.25 16.3083C14.25 16.3126 14.25 16.3169 14.25 16.3212C14.25 16.3255 14.25 16.3299 14.25 16.3342C14.25 16.3386 14.25 16.343 14.25 16.3474C14.25 16.3518 14.25 16.3562 14.25 16.3606C14.25 16.365 14.25 16.3694 14.25 16.3739C14.25 16.3783 14.25 16.3828 14.25 16.3873C14.25 16.3917 14.25 16.3962 14.25 16.4007C14.25 16.4052 14.25 16.4097 14.25 16.4143C14.25 16.4188 14.25 16.4234 14.25 16.4279C14.25 16.4325 14.25 16.4371 14.25 16.4416C14.25 16.4462 14.25 16.4508 14.25 16.4555C14.25 16.4601 14.25 16.4647 14.25 16.4694C14.25 16.474 14.25 16.4787 14.25 16.4834C14.25 16.488 14.25 16.4927 14.25 16.4974C14.25 16.5022 14.25 16.5069 14.25 16.5116C14.25 16.5164 14.25 16.5211 14.25 16.5259C14.25 16.5306 14.25 16.5354 14.25 16.5402C14.25 16.545 14.25 16.5498 14.25 16.5547C14.25 16.5595 14.25 16.5643 14.25 16.5692C14.25 16.5741 14.25 16.5789 14.25 16.5838C14.25 16.5887 14.25 16.5936 14.25 16.5985C14.25 16.6034 14.25 16.6084 14.25 16.6133C14.25 16.6183 14.25 16.6232 14.25 16.6282C14.25 16.6332 14.25 16.6382 14.25 16.6432C14.25 16.6482 14.25 16.6532 14.25 16.6583C14.25 16.6633 14.25 16.6684 14.25 16.6734C14.25 16.6785 14.25 16.6836 14.25 16.6887C14.25 16.6938 14.25 16.6989 14.25 16.7041C14.25 16.7092 14.25 16.7143 14.25 16.7195C14.25 16.7247 14.25 16.7298 14.25 16.735C14.25 16.7402 14.25 16.7454 14.25 16.7507C14.25 16.7559 14.25 16.7611 14.25 16.7664C14.25 16.7717 14.25 16.7769 14.25 16.7822C14.25 16.7875 14.25 16.7928 14.25 16.7981C14.25 16.8034 14.25 16.8088 14.25 16.8141C14.25 16.8195 14.25 16.8249 14.25 16.8302C14.25 16.8356 14.25 16.841 14.25 16.8464C14.25 16.8518 14.25 16.8573 14.25 16.8627C14.25 16.8682 14.25 16.8736 14.25 16.8791C14.25 16.8846 14.25 16.8901 14.25 16.8956C14.25 16.9011 14.25 16.9066 14.25 16.9122C14.25 16.9177 14.25 16.9233 14.25 16.9289C14.25 16.9344 14.25 16.94 14.25 16.9456C14.25 16.9512 14.25 16.9569 14.25 16.9625C14.25 16.9681 14.25 16.9738 14.25 16.9795C14.25 16.9851 14.25 16.9908 14.25 16.9965C14.25 17.0022 14.25 17.0079 14.25 17.0137C14.25 17.0194 14.25 17.0252 14.25 17.0309C14.25 17.0367 14.25 17.0425 14.25 17.0483C14.25 17.0541 14.25 17.0599 14.25 17.0658C14.25 17.0716 14.25 17.0774 14.25 17.0833C14.25 17.0892 14.25 17.0951 14.25 17.101C14.25 17.1069 14.25 17.1128 14.25 17.1187C14.25 17.1247 14.25 17.1306 14.25 17.1366C14.25 17.1425 14.25 17.1485 14.25 17.1545C14.25 17.1605 14.25 17.1666 14.25 17.1726C14.25 17.1786 14.25 17.1847 14.25 17.1907C14.25 17.1968 14.25 17.2029 14.25 17.209C14.25 17.2151 14.25 17.2212 14.25 17.2274C14.25 17.2335 14.25 17.2396 14.25 17.2458C14.25 17.252 14.25 17.2582 14.25 17.2644C14.25 17.2706 14.25 17.2768 14.25 17.283C14.25 17.2893 14.25 17.2955 14.25 17.3018C14.25 17.3081 14.25 17.3144 14.25 17.3207C14.25 17.327 14.25 17.3333 14.25 17.3396C14.25 17.346 14.25 17.3523 14.25 17.3587C14.25 17.3651 14.25 17.3715 14.25 17.3779C14.25 17.3843 14.25 17.3907 14.25 17.3972C14.25 17.4036 14.25 17.4101 14.25 17.4166C14.25 17.423 14.25 17.4295 14.25 17.436C14.25 17.4426 14.25 17.4491 14.25 17.4556C14.25 17.4622 14.25 17.4688 14.25 17.4753C14.25 17.4819 14.25 17.4885 14.25 17.4951C14.25 17.5018 14.25 17.5084 14.25 17.515C14.25 17.5217 14.25 17.5284 14.25 17.5351C14.25 17.5417 14.25 17.5485 14.25 17.5552C14.25 17.5619 14.25 17.5686 14.25 17.5754C14.25 17.5822 14.25 17.5889 14.25 17.5957C14.25 17.6025 14.25 17.6093 14.25 17.6162C14.25 17.623 14.25 17.6299 14.25 17.6367C14.25 17.6436 14.25 17.6505 14.25 17.6574C14.25 17.6643 14.25 17.6712 14.25 17.6781C14.25 17.6851 14.25 17.692 14.25 17.699C14.25 17.706 14.25 17.713 14.25 17.72C14.25 17.727 14.25 17.734 14.25 17.7411C14.25 17.7481 14.25 17.7552 14.25 17.7623C14.25 17.7693 14.25 17.7764 14.25 17.7836C14.25 17.7907 14.25 17.7978 14.25 17.805C14.25 17.8121 14.25 17.8193 14.25 17.8265C14.25 17.8337 14.25 17.8409 14.25 17.8481C14.25 17.8554 14.25 17.8626 14.25 17.8699C14.25 17.8771 14.25 17.8844 14.25 17.8917C14.25 17.899 14.25 17.9063 14.25 17.9137C14.25 17.921 14.25 17.9284 14.25 17.9358C14.25 17.9431 14.25 17.9505 14.25 17.9579C14.25 17.9654 14.25 17.9728 14.25 17.9802C14.25 17.9877 14.25 17.9952 14.25 18.0026C14.25 18.0101 14.25 18.0176 14.25 18.0252C14.25 18.0327 14.25 18.0402 14.25 18.0478C14.25 18.0554 14.25 18.0629 14.25 18.0705C14.25 18.0781 14.25 18.0858 14.25 18.0934C14.25 18.101 14.25 18.1087 14.25 18.1164C14.25 18.124 14.25 18.1317 14.25 18.1394C14.25 18.1472 14.25 18.1549 14.25 18.1626C14.25 18.1704 14.25 18.1782 14.25 18.186C14.25 18.1937 14.25 18.2016 14.25 18.2094C14.25 18.2172 14.25 18.2251 14.25 18.2329C14.25 18.2408 14.25 18.2487 14.25 18.2566C14.25 18.2645 14.25 18.2724 14.25 18.2804C14.25 18.2883 14.25 18.2963 14.25 18.3042C14.25 18.3122 14.25 18.3202 14.25 18.3282C14.25 18.3363 14.25 18.3443 14.25 18.3524C14.25 18.3604 14.25 18.3685 14.25 18.3766C14.25 18.3847 14.25 18.3928 14.25 18.4009C14.25 18.4091 14.25 18.4172 14.25 18.4254C14.25 18.4336 14.25 18.4418 14.25 18.45C14.25 18.4582 14.25 18.4664 14.25 18.4747C14.25 18.4829 14.25 18.4912 14.25 18.4995C14.25 18.5078 14.25 18.5161 14.25 18.5244C14.25 18.5328 14.25 18.5411 14.25 18.5495C14.25 18.5579 14.25 18.5663 14.25 18.5747C14.25 18.5831 14.25 18.5915 14.25 18.6C14.25 18.6084 14.25 18.6169 14.25 18.6254C14.25 18.6339 14.25 18.6424 14.25 18.6509C14.25 18.6594 14.25 18.668 14.25 18.6766C14.25 18.6851 14.25 18.6937 14.25 18.7023C14.25 18.7109 14.25 18.7196 14.25 18.7282C14.25 18.7369 14.25 18.7455 14.25 18.7542C14.25 18.7629 14.25 18.7716 14.25 18.7804C14.25 18.7891 14.25 18.7978 14.25 18.8066C14.25 18.8154 14.25 18.8242 14.25 18.833C14.25 18.8418 14.25 18.8506 14.25 18.8595C14.25 18.8683 14.25 18.8772 14.25 18.8861C14.25 18.895 14.25 18.9039 14.25 18.9128C14.25 18.9218 14.25 18.9307 14.25 18.9397C14.25 18.9487 14.25 18.9577 14.25 18.9667C14.25 18.9757 14.25 18.9847 14.25 18.9938C14.25 19.0029 14.25 19.0119 14.25 19.021C14.25 19.0301 14.25 19.0392 14.25 19.0484C14.25 19.0575 14.25 19.0667 14.25 19.0759C14.25 19.085 14.25 19.0942 14.25 19.1035C14.25 19.1127 14.25 19.1219 14.25 19.1312C14.25 19.1404 14.25 19.1497 14.25 19.159C14.25 19.1683 14.25 19.1777 14.25 19.187C14.25 19.1964 14.25 19.2057 14.25 19.2151C14.25 19.2245 14.25 19.2339 14.25 19.2433C14.25 19.2528 14.25 19.2622 14.25 19.2717C14.25 19.2812 14.25 19.2907 14.25 19.3002C14.25 19.3097 14.25 19.3192 14.25 19.3288C14.25 19.3383 14.25 19.3479 14.25 19.3575C14.25 19.3671 14.25 19.3767 14.25 19.3864C14.25 19.396 14.25 19.4057 14.25 19.4153C14.25 19.425 14.25 19.4347 14.25 19.4445C14.25 19.4542 14.25 19.4639 14.25 19.4737C14.25 19.4835 14.25 19.4933 14.25 19.5031C14.25 19.5129 14.25 19.5227 14.25 19.5326C14.25 19.5424 14.25 19.5523 14.25 19.5622C14.25 19.5721 14.25 19.582 14.25 19.5919C14.25 19.6019 14.25 19.6118 14.25 19.6218C14.25 19.6318 14.25 19.6418 14.25 19.6518C14.25 19.6619 14.25 19.6719 14.25 19.682C14.25 19.692 14.25 19.7021 14.25 19.7122C14.25 19.7224 14.25 19.7325 14.25 19.7426C14.25 19.7528 14.25 19.763 14.25 19.7732C14.25 19.7834 14.25 19.7936 14.25 19.8038C14.25 19.8141 14.25 19.8243 14.25 19.8346C14.25 19.8449 14.25 19.8552 14.25 19.8656C14.25 19.8759 14.25 19.8862 14.25 19.8966C14.25 19.907 14.25 19.9174 14.25 19.9278C14.25 19.9382 14.25 19.9487 14.25 19.9591C14.25 19.9696 14.25 19.9801 14.25 19.9906C14.25 20.0011 14.25 20.0116 14.25 20.0222C14.25 20.0327 14.25 20.0433 14.25 20.0539C14.25 20.0645 14.25 20.0751 14.25 20.0857C14.25 20.0964 14.25 20.107 14.25 20.1177C14.25 20.1284 14.25 20.1391 14.25 20.1498C14.25 20.1606 14.25 20.1713 14.25 20.1821C14.25 20.1929 14.25 20.2037 14.25 20.2145C14.25 20.2253 14.25 20.2361 14.25 20.247C14.25 20.2579 14.25 20.2688 14.25 20.2797C14.25 20.2906 14.25 20.3015 14.25 20.3125C14.25 20.3234 14.25 20.3344 14.25 20.3454C14.25 20.3564 14.25 20.3674 14.25 20.3784C14.25 20.3895 14.25 20.4006 14.25 20.4116C14.25 20.4227 14.25 20.4339 14.25 20.445C14.25 20.4561 14.25 20.4673 14.25 20.4785C14.25 20.4896 14.25 20.5008 14.25 20.5121C14.25 20.5233 14.25 20.5345 14.25 20.5458C14.25 20.5571 14.25 20.5684 14.25 20.5797C14.25 20.591 14.25 20.6024 14.25 20.6137C14.25 20.6251 14.25 20.6365 14.25 20.6479C14.25 20.6593 14.25 20.6707 14.25 20.6822C14.25 20.6936 14.25 20.7051 14.25 20.7166C14.25 20.7281 14.25 20.7396 14.25 20.7512C14.25 20.7627 14.25 20.7743 14.25 20.7859C14.25 20.7975 14.25 20.8091 14.25 20.8208C14.25 20.8324 14.25 20.8441 14.25 20.8558C14.25 20.8674 14.25 20.8792 14.25 20.8909C14.25 20.9026 14.25 20.9144 14.25 20.9262C14.25 20.938 14.25 20.9498 14.25 20.9616C14.25 20.9734 14.25 20.9853 14.25 20.9971C14.25 21.009 14.25 21.0209 14.25 21.0328C14.25 21.0448 14.25 21.0567 14.25 21.0687C14.25 21.0806 14.25 21.0926 14.25 21.1047C14.25 21.1167 14.25 21.1287 14.25 21.1408C14.25 21.1528 14.25 21.1649 14.25 21.177C14.25 21.1892 14.25 21.2013 14.25 21.2135C14.25 21.2256 14.25 21.2378 14.25 21.25H15.75C15.75 21.2378 15.75 21.2256 15.75 21.2135C15.75 21.2013 15.75 21.1892 15.75 21.177C15.75 21.1649 15.75 21.1528 15.75 21.1408C15.75 21.1287 15.75 21.1167 15.75 21.1047C15.75 21.0926 15.75 21.0806 15.75 21.0687C15.75 21.0567 15.75 21.0448 15.75 21.0328C15.75 21.0209 15.75 21.009 15.75 20.9971C15.75 20.9853 15.75 20.9734 15.75 20.9616C15.75 20.9498 15.75 20.938 15.75 20.9262C15.75 20.9144 15.75 20.9026 15.75 20.8909C15.75 20.8792 15.75 20.8674 15.75 20.8558C15.75 20.8441 15.75 20.8324 15.75 20.8208C15.75 20.8091 15.75 20.7975 15.75 20.7859C15.75 20.7743 15.75 20.7627 15.75 20.7512C15.75 20.7396 15.75 20.7281 15.75 20.7166C15.75 20.7051 15.75 20.6936 15.75 20.6822C15.75 20.6707 15.75 20.6593 15.75 20.6479C15.75 20.6365 15.75 20.6251 15.75 20.6137C15.75 20.6024 15.75 20.591 15.75 20.5797C15.75 20.5684 15.75 20.5571 15.75 20.5458C15.75 20.5345 15.75 20.5233 15.75 20.5121C15.75 20.5008 15.75 20.4896 15.75 20.4785C15.75 20.4673 15.75 20.4561 15.75 20.445C15.75 20.4339 15.75 20.4227 15.75 20.4116C15.75 20.4006 15.75 20.3895 15.75 20.3784C15.75 20.3674 15.75 20.3564 15.75 20.3454C15.75 20.3344 15.75 20.3234 15.75 20.3125C15.75 20.3015 15.75 20.2906 15.75 20.2797C15.75 20.2688 15.75 20.2579 15.75 20.247C15.75 20.2361 15.75 20.2253 15.75 20.2145C15.75 20.2037 15.75 20.1929 15.75 20.1821C15.75 20.1713 15.75 20.1606 15.75 20.1498C15.75 20.1391 15.75 20.1284 15.75 20.1177C15.75 20.107 15.75 20.0964 15.75 20.0857C15.75 20.0751 15.75 20.0645 15.75 20.0539C15.75 20.0433 15.75 20.0327 15.75 20.0222C15.75 20.0116 15.75 20.0011 15.75 19.9906C15.75 19.9801 15.75 19.9696 15.75 19.9591C15.75 19.9487 15.75 19.9382 15.75 19.9278C15.75 19.9174 15.75 19.907 15.75 19.8966C15.75 19.8862 15.75 19.8759 15.75 19.8656C15.75 19.8552 15.75 19.8449 15.75 19.8346C15.75 19.8243 15.75 19.8141 15.75 19.8038C15.75 19.7936 15.75 19.7834 15.75 19.7732C15.75 19.763 15.75 19.7528 15.75 19.7426C15.75 19.7325 15.75 19.7224 15.75 19.7122C15.75 19.7021 15.75 19.692 15.75 19.682C15.75 19.6719 15.75 19.6619 15.75 19.6518C15.75 19.6418 15.75 19.6318 15.75 19.6218C15.75 19.6118 15.75 19.6019 15.75 19.5919C15.75 19.582 15.75 19.5721 15.75 19.5622C15.75 19.5523 15.75 19.5424 15.75 19.5326C15.75 19.5227 15.75 19.5129 15.75 19.5031C15.75 19.4933 15.75 19.4835 15.75 19.4737C15.75 19.4639 15.75 19.4542 15.75 19.4445C15.75 19.4347 15.75 19.425 15.75 19.4153C15.75 19.4057 15.75 19.396 15.75 19.3864C15.75 19.3767 15.75 19.3671 15.75 19.3575C15.75 19.3479 15.75 19.3383 15.75 19.3288C15.75 19.3192 15.75 19.3097 15.75 19.3002C15.75 19.2907 15.75 19.2812 15.75 19.2717C15.75 19.2622 15.75 19.2528 15.75 19.2433C15.75 19.2339 15.75 19.2245 15.75 19.2151C15.75 19.2057 15.75 19.1964 15.75 19.187C15.75 19.1777 15.75 19.1683 15.75 19.159C15.75 19.1497 15.75 19.1404 15.75 19.1312C15.75 19.1219 15.75 19.1127 15.75 19.1035C15.75 19.0942 15.75 19.085 15.75 19.0759C15.75 19.0667 15.75 19.0575 15.75 19.0484C15.75 19.0392 15.75 19.0301 15.75 19.021C15.75 19.0119 15.75 19.0029 15.75 18.9938C15.75 18.9847 15.75 18.9757 15.75 18.9667C15.75 18.9577 15.75 18.9487 15.75 18.9397C15.75 18.9307 15.75 18.9218 15.75 18.9128C15.75 18.9039 15.75 18.895 15.75 18.8861C15.75 18.8772 15.75 18.8683 15.75 18.8595C15.75 18.8506 15.75 18.8418 15.75 18.833C15.75 18.8242 15.75 18.8154 15.75 18.8066C15.75 18.7978 15.75 18.7891 15.75 18.7804C15.75 18.7716 15.75 18.7629 15.75 18.7542C15.75 18.7455 15.75 18.7369 15.75 18.7282C15.75 18.7196 15.75 18.7109 15.75 18.7023C15.75 18.6937 15.75 18.6851 15.75 18.6766C15.75 18.668 15.75 18.6594 15.75 18.6509C15.75 18.6424 15.75 18.6339 15.75 18.6254C15.75 18.6169 15.75 18.6084 15.75 18.6C15.75 18.5915 15.75 18.5831 15.75 18.5747C15.75 18.5663 15.75 18.5579 15.75 18.5495C15.75 18.5411 15.75 18.5328 15.75 18.5244C15.75 18.5161 15.75 18.5078 15.75 18.4995C15.75 18.4912 15.75 18.4829 15.75 18.4747C15.75 18.4664 15.75 18.4582 15.75 18.45C15.75 18.4418 15.75 18.4336 15.75 18.4254C15.75 18.4172 15.75 18.4091 15.75 18.4009C15.75 18.3928 15.75 18.3847 15.75 18.3766C15.75 18.3685 15.75 18.3604 15.75 18.3524C15.75 18.3443 15.75 18.3363 15.75 18.3282C15.75 18.3202 15.75 18.3122 15.75 18.3042C15.75 18.2963 15.75 18.2883 15.75 18.2804C15.75 18.2724 15.75 18.2645 15.75 18.2566C15.75 18.2487 15.75 18.2408 15.75 18.2329C15.75 18.2251 15.75 18.2172 15.75 18.2094C15.75 18.2016 15.75 18.1937 15.75 18.186C15.75 18.1782 15.75 18.1704 15.75 18.1626C15.75 18.1549 15.75 18.1472 15.75 18.1394C15.75 18.1317 15.75 18.124 15.75 18.1164C15.75 18.1087 15.75 18.101 15.75 18.0934C15.75 18.0858 15.75 18.0781 15.75 18.0705C15.75 18.0629 15.75 18.0554 15.75 18.0478C15.75 18.0402 15.75 18.0327 15.75 18.0252C15.75 18.0176 15.75 18.0101 15.75 18.0026C15.75 17.9952 15.75 17.9877 15.75 17.9802C15.75 17.9728 15.75 17.9654 15.75 17.9579C15.75 17.9505 15.75 17.9431 15.75 17.9358C15.75 17.9284 15.75 17.921 15.75 17.9137C15.75 17.9063 15.75 17.899 15.75 17.8917C15.75 17.8844 15.75 17.8771 15.75 17.8699C15.75 17.8626 15.75 17.8554 15.75 17.8481C15.75 17.8409 15.75 17.8337 15.75 17.8265C15.75 17.8193 15.75 17.8121 15.75 17.805C15.75 17.7978 15.75 17.7907 15.75 17.7836C15.75 17.7764 15.75 17.7693 15.75 17.7623C15.75 17.7552 15.75 17.7481 15.75 17.7411C15.75 17.734 15.75 17.727 15.75 17.72C15.75 17.713 15.75 17.706 15.75 17.699C15.75 17.692 15.75 17.6851 15.75 17.6781C15.75 17.6712 15.75 17.6643 15.75 17.6574C15.75 17.6505 15.75 17.6436 15.75 17.6367C15.75 17.6299 15.75 17.623 15.75 17.6162C15.75 17.6093 15.75 17.6025 15.75 17.5957C15.75 17.5889 15.75 17.5822 15.75 17.5754C15.75 17.5686 15.75 17.5619 15.75 17.5552C15.75 17.5485 15.75 17.5417 15.75 17.5351C15.75 17.5284 15.75 17.5217 15.75 17.515C15.75 17.5084 15.75 17.5018 15.75 17.4951C15.75 17.4885 15.75 17.4819 15.75 17.4753C15.75 17.4688 15.75 17.4622 15.75 17.4556C15.75 17.4491 15.75 17.4426 15.75 17.436C15.75 17.4295 15.75 17.423 15.75 17.4166C15.75 17.4101 15.75 17.4036 15.75 17.3972C15.75 17.3907 15.75 17.3843 15.75 17.3779C15.75 17.3715 15.75 17.3651 15.75 17.3587C15.75 17.3523 15.75 17.346 15.75 17.3396C15.75 17.3333 15.75 17.327 15.75 17.3207C15.75 17.3144 15.75 17.3081 15.75 17.3018C15.75 17.2955 15.75 17.2893 15.75 17.283C15.75 17.2768 15.75 17.2706 15.75 17.2644C15.75 17.2582 15.75 17.252 15.75 17.2458C15.75 17.2396 15.75 17.2335 15.75 17.2274C15.75 17.2212 15.75 17.2151 15.75 17.209C15.75 17.2029 15.75 17.1968 15.75 17.1907C15.75 17.1847 15.75 17.1786 15.75 17.1726C15.75 17.1666 15.75 17.1605 15.75 17.1545C15.75 17.1485 15.75 17.1425 15.75 17.1366C15.75 17.1306 15.75 17.1247 15.75 17.1187C15.75 17.1128 15.75 17.1069 15.75 17.101C15.75 17.0951 15.75 17.0892 15.75 17.0833C15.75 17.0774 15.75 17.0716 15.75 17.0658C15.75 17.0599 15.75 17.0541 15.75 17.0483C15.75 17.0425 15.75 17.0367 15.75 17.0309C15.75 17.0252 15.75 17.0194 15.75 17.0137C15.75 17.0079 15.75 17.0022 15.75 16.9965C15.75 16.9908 15.75 16.9851 15.75 16.9795C15.75 16.9738 15.75 16.9681 15.75 16.9625C15.75 16.9569 15.75 16.9512 15.75 16.9456C15.75 16.94 15.75 16.9344 15.75 16.9289C15.75 16.9233 15.75 16.9177 15.75 16.9122C15.75 16.9066 15.75 16.9011 15.75 16.8956C15.75 16.8901 15.75 16.8846 15.75 16.8791C15.75 16.8736 15.75 16.8682 15.75 16.8627C15.75 16.8573 15.75 16.8518 15.75 16.8464C15.75 16.841 15.75 16.8356 15.75 16.8302C15.75 16.8249 15.75 16.8195 15.75 16.8141C15.75 16.8088 15.75 16.8034 15.75 16.7981C15.75 16.7928 15.75 16.7875 15.75 16.7822C15.75 16.7769 15.75 16.7717 15.75 16.7664C15.75 16.7611 15.75 16.7559 15.75 16.7507C15.75 16.7454 15.75 16.7402 15.75 16.735C15.75 16.7298 15.75 16.7247 15.75 16.7195C15.75 16.7143 15.75 16.7092 15.75 16.7041C15.75 16.6989 15.75 16.6938 15.75 16.6887C15.75 16.6836 15.75 16.6785 15.75 16.6734C15.75 16.6684 15.75 16.6633 15.75 16.6583C15.75 16.6532 15.75 16.6482 15.75 16.6432C15.75 16.6382 15.75 16.6332 15.75 16.6282C15.75 16.6232 15.75 16.6183 15.75 16.6133C15.75 16.6084 15.75 16.6034 15.75 16.5985C15.75 16.5936 15.75 16.5887 15.75 16.5838C15.75 16.5789 15.75 16.5741 15.75 16.5692C15.75 16.5643 15.75 16.5595 15.75 16.5547C15.75 16.5498 15.75 16.545 15.75 16.5402C15.75 16.5354 15.75 16.5306 15.75 16.5259C15.75 16.5211 15.75 16.5164 15.75 16.5116C15.75 16.5069 15.75 16.5022 15.75 16.4974C15.75 16.4927 15.75 16.488 15.75 16.4834C15.75 16.4787 15.75 16.474 15.75 16.4694C15.75 16.4647 15.75 16.4601 15.75 16.4555C15.75 16.4508 15.75 16.4462 15.75 16.4416C15.75 16.4371 15.75 16.4325 15.75 16.4279C15.75 16.4234 15.75 16.4188 15.75 16.4143C15.75 16.4097 15.75 16.4052 15.75 16.4007C15.75 16.3962 15.75 16.3917 15.75 16.3873C15.75 16.3828 15.75 16.3783 15.75 16.3739C15.75 16.3694 15.75 16.365 15.75 16.3606C15.75 16.3562 15.75 16.3518 15.75 16.3474C15.75 16.343 15.75 16.3386 15.75 16.3342C15.75 16.3299 15.75 16.3255 15.75 16.3212C15.75 16.3169 15.75 16.3126 15.75 16.3083C15.75 16.3039 15.75 16.2997 15.75 16.2954C15.75 16.2911 15.75 16.2868 15.75 16.2826C15.75 16.2784 15.75 16.2741 15.75 16.2699C15.75 16.2657 15.75 16.2615 15.75 16.2573C15.75 16.2531 15.75 16.2489 15.75 16.2448C15.75 16.2406 15.75 16.2364 15.75 16.2323C15.75 16.2282 15.75 16.2241 15.75 16.2199C15.75 16.2158 15.75 16.2117 15.75 16.2077C15.75 16.2036 15.75 16.1995 15.75 16.1955C15.75 16.1914 15.75 16.1874 15.75 16.1833C15.75 16.1793 15.75 16.1753 15.75 16.1713C15.75 16.1673 15.75 16.1633 15.75 16.1594C15.75 16.1554 15.75 16.1514 15.75 16.1475C15.75 16.1435 15.75 16.1396 15.75 16.1357C15.75 16.1318 15.75 16.1279 15.75 16.124C15.75 16.1201 15.75 16.1162 15.75 16.1124C15.75 16.1085 15.75 16.1047 15.75 16.1008C15.75 16.097 15.75 16.0932 15.75 16.0894C15.75 16.0855 15.75 16.0817 15.75 16.078C15.75 16.0742 15.75 16.0704 15.75 16.0667C15.75 16.0629 15.75 16.0592 15.75 16.0554C15.75 16.0517 15.75 16.048 15.75 16.0443C15.75 16.0406 15.75 16.0369 15.75 16.0332C15.75 16.0295 15.75 16.0259 15.75 16.0222C15.75 16.0186 15.75 16.0149 15.75 16.0113C15.75 16.0077 15.75 16.0041 15.75 16.0005C15.75 15.9969 15.75 15.9933 15.75 15.9897C15.75 15.9861 15.75 15.9826 15.75 15.979C15.75 15.9755 15.75 15.972 15.75 15.9684C15.75 15.9649 15.75 15.9614 15.75 15.9579C15.75 15.9544 15.75 15.9509 15.75 15.9475C15.75 15.944 15.75 15.9405 15.75 15.9371C15.75 15.9336 15.75 15.9302 15.75 15.9268C15.75 15.9234 15.75 15.92 15.75 15.9166C15.75 15.9132 15.75 15.9098 15.75 15.9064C15.75 15.903 15.75 15.8997 15.75 15.8963C15.75 15.893 15.75 15.8897 15.75 15.8863C15.75 15.883 15.75 15.8797 15.75 15.8764C15.75 15.8731 15.75 15.8698 15.75 15.8666C15.75 15.8633 15.75 15.8601 15.75 15.8568C15.75 15.8536 15.75 15.8503 15.75 15.8471C15.75 15.8439 15.75 15.8407 15.75 15.8375C15.75 15.8343 15.75 15.8311 15.75 15.8279C15.75 15.8248 15.75 15.8216 15.75 15.8184C15.75 15.8153 15.75 15.8122 15.75 15.809C15.75 15.8059 15.75 15.8028 15.75 15.7997C15.75 15.7966 15.75 15.7935 15.75 15.7904C15.75 15.7874 15.75 15.7843 15.75 15.7812C15.75 15.7782 15.75 15.7752 15.75 15.7721C15.75 15.7691 15.75 15.7661 15.75 15.7631C15.75 15.7601 15.75 15.7571 15.75 15.7541C15.75 15.7511 15.75 15.7482 15.75 15.7452C15.75 15.7422 15.75 15.7393 15.75 15.7364C15.75 15.7334 15.75 15.7305 15.75 15.7276C15.75 15.7247 15.75 15.7218 15.75 15.7189C15.75 15.716 15.75 15.7131 15.75 15.7103C15.75 15.7074 15.75 15.7046 15.75 15.7017C15.75 15.6989 15.75 15.696 15.75 15.6932C15.75 15.6904 15.75 15.6876 15.75 15.6848C15.75 15.682 15.75 15.6792 15.75 15.6765C15.75 15.6737 15.75 15.6709 15.75 15.6682C15.75 15.6654 15.75 15.6627 15.75 15.66C15.75 15.6572 15.75 15.6545 15.75 15.6518C15.75 15.6491 15.75 15.6464 15.75 15.6437C15.75 15.641 15.75 15.6384 15.75 15.6357C15.75 15.6331 15.75 15.6304 15.75 15.6278C15.75 15.6251 15.75 15.6225 15.75 15.6199C15.75 15.6173 15.75 15.6147 15.75 15.6121C15.75 15.6095 15.75 15.6069 15.75 15.6043C15.75 15.6018 15.75 15.5992 15.75 15.5966C15.75 15.5941 15.75 15.5916 15.75 15.589C15.75 15.5865 15.75 15.584 15.75 15.5815C15.75 15.579 15.75 15.5765 15.75 15.574C15.75 15.5715 15.75 15.569 15.75 15.5666C15.75 15.5641 15.75 15.5617 15.75 15.5592C15.75 15.5568 15.75 15.5543 15.75 15.5519C15.75 15.5495 15.75 15.5471 15.75 15.5447C15.75 15.5423 15.75 15.5399 15.75 15.5375C15.75 15.5351 15.75 15.5328 15.75 15.5304C15.75 15.5281 15.75 15.5257 15.75 15.5234C15.75 15.521 15.75 15.5187 15.75 15.5164C15.75 15.5141 15.75 15.5118 15.75 15.5095C15.75 15.5072 15.75 15.5049 15.75 15.5026C15.75 15.5004 15.75 15.4981 15.75 15.4958C15.75 15.4936 15.75 15.4913 15.75 15.4891C15.75 15.4869 15.75 15.4846 15.75 15.4824C15.75 15.4802 15.75 15.478 15.75 15.4758C15.75 15.4736 15.75 15.4715 15.75 15.4693C15.75 15.4671 15.75 15.4649 15.75 15.4628C15.75 15.4606 15.75 15.4585 15.75 15.4564C15.75 15.4542 15.75 15.4521 15.75 15.45C15.75 15.4479 15.75 15.4458 15.75 15.4437C15.75 15.4416 15.75 15.4395 15.75 15.4374C15.75 15.4354 15.75 15.4333 15.75 15.4312C15.75 15.4292 15.75 15.4272 15.75 15.4251C15.75 15.4231 15.75 15.4211 15.75 15.419C15.75 15.417 15.75 15.415 15.75 15.413C15.75 15.411 15.75 15.409 15.75 15.4071C15.75 15.4051 15.75 15.4031 15.75 15.4012C15.75 15.3992 15.75 15.3973 15.75 15.3953C15.75 15.3934 15.75 15.3915 15.75 15.3895C15.75 15.3876 15.75 15.3857 15.75 15.3838C15.75 15.3819 15.75 15.38 15.75 15.3781C15.75 15.3763 15.75 15.3744 15.75 15.3725C15.75 15.3707 15.75 15.3688 15.75 15.367C15.75 15.3651 15.75 15.3633 15.75 15.3615C15.75 15.3596 15.75 15.3578 15.75 15.356C15.75 15.3542 15.75 15.3524 15.75 15.3506C15.75 15.3488 15.75 15.3471 15.75 15.3453C15.75 15.3435 15.75 15.3417 15.75 15.34C15.75 15.3382 15.75 15.3365 15.75 15.3348C15.75 15.333 15.75 15.3313 15.75 15.3296C15.75 15.3279 15.75 15.3262 15.75 15.3245C15.75 15.3228 15.75 15.3211 15.75 15.3194C15.75 15.3177 15.75 15.316 15.75 15.3144C15.75 15.3127 15.75 15.3111 15.75 15.3094C15.75 15.3078 15.75 15.3061 15.75 15.3045C15.75 15.3029 15.75 15.3013 15.75 15.2996C15.75 15.298 15.75 15.2964 15.75 15.2948C15.75 15.2932 15.75 15.2917 15.75 15.2901C15.75 15.2885 15.75 15.2869 15.75 15.2854C15.75 15.2838 15.75 15.2823 15.75 15.2807C15.75 15.2792 15.75 15.2777 15.75 15.2761C15.75 15.2746 15.75 15.2731 15.75 15.2716C15.75 15.2701 15.75 15.2686 15.75 15.2671C15.75 15.2656 15.75 15.2641 15.75 15.2626C15.75 15.2611 15.75 15.2597 15.75 15.2582C15.75 15.2568 15.75 15.2553 15.75 15.2539C15.75 15.2524 15.75 15.251 15.75 15.2496C15.75 15.2481 15.75 15.2467 15.75 15.2453C15.75 15.2439 15.75 15.2425 15.75 15.2411C15.75 15.2397 15.75 15.2383 15.75 15.2369C15.75 15.2356 15.75 15.2342 15.75 15.2328C15.75 15.2315 15.75 15.2301 15.75 15.2288C15.75 15.2274 15.75 15.2261 15.75 15.2248C15.75 15.2234 15.75 15.2221 15.75 15.2208C15.75 15.2195 15.75 15.2182 15.75 15.2169C15.75 15.2156 15.75 15.2143 15.75 15.213C15.75 15.2117 15.75 15.2104 15.75 15.2092C15.75 15.2079 15.75 15.2067 15.75 15.2054C15.75 15.2041 15.75 15.2029 15.75 15.2017C15.75 15.2004 15.75 15.1992 15.75 15.198C15.75 15.1968 15.75 15.1955 15.75 15.1943C15.75 15.1931 15.75 15.1919 15.75 15.1907C15.75 15.1895 15.75 15.1884 15.75 15.1872C15.75 15.186 15.75 15.1848 15.75 15.1837C15.75 15.1825 15.75 15.1814 15.75 15.1802C15.75 15.1791 15.75 15.1779 15.75 15.1768C15.75 15.1757 15.75 15.1745 15.75 15.1734C15.75 15.1723 15.75 15.1712 15.75 15.1701C15.75 15.169 15.75 15.1679 15.75 15.1668C15.75 15.1657 15.75 15.1646 15.75 15.1635C15.75 15.1625 15.75 15.1614 15.75 15.1603C15.75 15.1593 15.75 15.1582 15.75 15.1572C15.75 15.1561 15.75 15.1551 15.75 15.154C15.75 15.153 15.75 15.152 15.75 15.151C15.75 15.1499 15.75 15.1489 15.75 15.1479C15.75 15.1469 15.75 15.1459 15.75 15.1449C15.75 15.1439 15.75 15.1429 15.75 15.142C15.75 15.141 15.75 15.14 15.75 15.139C15.75 15.1381 15.75 15.1371 15.75 15.1362C15.75 15.1352 15.75 15.1343 15.75 15.1333C15.75 15.1324 15.75 15.1315 15.75 15.1305C15.75 15.1296 15.75 15.1287 15.75 15.1278C15.75 15.1269 15.75 15.126 15.75 15.1251C15.75 15.1242 15.75 15.1233 15.75 15.1224C15.75 15.1215 15.75 15.1206 15.75 15.1197C15.75 15.1189 15.75 15.118 15.75 15.1171C15.75 15.1163 15.75 15.1154 15.75 15.1146C15.75 15.1137 15.75 15.1129 15.75 15.112C15.75 15.1112 15.75 15.1104 15.75 15.1096C15.75 15.1087 15.75 15.1079 15.75 15.1071C15.75 15.1063 15.75 15.1055 15.75 15.1047C15.75 15.1039 15.75 15.1031 15.75 15.1023C15.75 15.1015 15.75 15.1007 15.75 15.1C15.75 15.0992 15.75 15.0984 15.75 15.0977C15.75 15.0969 15.75 15.0961 15.75 15.0954C15.75 15.0946 15.75 15.0939 15.75 15.0931C15.75 15.0924 15.75 15.0917 15.75 15.0909C15.75 15.0902 15.75 15.0895 15.75 15.0888C15.75 15.0881 15.75 15.0874 15.75 15.0867C15.75 15.0859 15.75 15.0852 15.75 15.0846C15.75 15.0839 15.75 15.0832 15.75 15.0825C15.75 15.0818 15.75 15.0811 15.75 15.0805C15.75 15.0798 15.75 15.0791 15.75 15.0785C15.75 15.0778 15.75 15.0772 15.75 15.0765C15.75 15.0759 15.75 15.0752 15.75 15.0746C15.75 15.0739 15.75 15.0733 15.75 15.0727C15.75 15.0721 15.75 15.0714 15.75 15.0708C15.75 15.0702 15.75 15.0696 15.75 15.069C15.75 15.0684 15.75 15.0678 15.75 15.0672C15.75 15.0666 15.75 15.066 15.75 15.0654C15.75 15.0648 15.75 15.0643 15.75 15.0637C15.75 15.0631 15.75 15.0625 15.75 15.062C15.75 15.0614 15.75 15.0609 15.75 15.0603C15.75 15.0598 15.75 15.0592 15.75 15.0587C15.75 15.0581 15.75 15.0576 15.75 15.057C15.75 15.0565 15.75 15.056 15.75 15.0555C15.75 15.0549 15.75 15.0544 15.75 15.0539C15.75 15.0534 15.75 15.0529 15.75 15.0524C15.75 15.0519 15.75 15.0514 15.75 15.0509C15.75 15.0504 15.75 15.0499 15.75 15.0494C15.75 15.0489 15.75 15.0485 15.75 15.048C15.75 15.0475 15.75 15.047 15.75 15.0466C15.75 15.0461 15.75 15.0456 15.75 15.0452C15.75 15.0447 15.75 15.0443 15.75 15.0438C15.75 15.0434 15.75 15.0429 15.75 15.0425C15.75 15.0421 15.75 15.0416 15.75 15.0412C15.75 15.0408 15.75 15.0403 15.75 15.0399C15.75 15.0395 15.75 15.0391 15.75 15.0387C15.75 15.0383 15.75 15.0379 15.75 15.0375C15.75 15.0371 15.75 15.0367 15.75 15.0363C15.75 15.0359 15.75 15.0355 15.75 15.0351C15.75 15.0347 15.75 15.0343 15.75 15.0339C15.75 15.0336 15.75 15.0332 15.75 15.0328C15.75 15.0325 15.75 15.0321 15.75 15.0317C15.75 15.0314 15.75 15.031 15.75 15.0307C15.75 15.0303 15.75 15.03 15.75 15.0296C15.75 15.0293 15.75 15.0289 15.75 15.0286C15.75 15.0283 15.75 15.0279 15.75 15.0276C15.75 15.0273 15.75 15.0269 15.75 15.0266C15.75 15.0263 15.75 15.026 15.75 15.0257C15.75 15.0254 15.75 15.0251 15.75 15.0247C15.75 15.0244 15.75 15.0241 15.75 15.0238C15.75 15.0235 15.75 15.0232 15.75 15.023C15.75 15.0227 15.75 15.0224 15.75 15.0221C15.75 15.0218 15.75 15.0215 15.75 15.0213C15.75 15.021 15.75 15.0207 15.75 15.0204C15.75 15.0202 15.75 15.0199 15.75 15.0196C15.75 15.0194 15.75 15.0191 15.75 15.0189C15.75 15.0186 15.75 15.0184 15.75 15.0181C15.75 15.0179 15.75 15.0176 15.75 15.0174C15.75 15.0171 15.75 15.0169 15.75 15.0167C15.75 15.0164 15.75 15.0162 15.75 15.016C15.75 15.0157 15.75 15.0155 15.75 15.0153C15.75 15.0151 15.75 15.0149 15.75 15.0146C15.75 15.0144 15.75 15.0142 15.75 15.014C15.75 15.0138 15.75 15.0136 15.75 15.0134C15.75 15.0132 15.75 15.013 15.75 15.0128C15.75 15.0126 15.75 15.0124 15.75 15.0122C15.75 15.012 15.75 15.0118 15.75 15.0116C15.75 15.0115 15.75 15.0113 15.75 15.0111C15.75 15.0109 15.75 15.0107 15.75 15.0106C15.75 15.0104 15.75 15.0102 15.75 15.0101C15.75 15.0099 15.75 15.0097 15.75 15.0096C15.75 15.0094 15.75 15.0092 15.75 15.0091C15.75 15.0089 15.75 15.0088 15.75 15.0086C15.75 15.0085 15.75 15.0083 15.75 15.0082C15.75 15.008 15.75 15.0079 15.75 15.0077C15.75 15.0076 15.75 15.0075 15.75 15.0073C15.75 15.0072 15.75 15.0071 15.75 15.0069C15.75 15.0068 15.75 15.0067 15.75 15.0065C15.75 15.0064 15.75 15.0063 15.75 15.0062C15.75 15.0061 15.75 15.0059 15.75 15.0058C15.75 15.0057 15.75 15.0056 15.75 15.0055C15.75 15.0054 15.75 15.0053 15.75 15.0051C15.75 15.005 15.75 15.0049 15.75 15.0048C15.75 15.0047 15.75 15.0046 15.75 15.0045C15.75 15.0044 15.75 15.0043 15.75 15.0042C15.75 15.0041 15.75 15.0041 15.75 15.004C15.75 15.0039 15.75 15.0038 15.75 15.0037C15.75 15.0036 15.75 15.0035 15.75 15.0034C15.75 15.0034 15.75 15.0033 15.75 15.0032C15.75 15.0031 15.75 15.0031 15.75 15.003C15.75 15.0029 15.75 15.0028 15.75 15.0028C15.75 15.0027 15.75 15.0026 15.75 15.0026C15.75 15.0025 15.75 15.0024 15.75 15.0024C15.75 15.0023 15.75 15.0022 15.75 15.0022C15.75 15.0021 15.75 15.0021 15.75 15.002C15.75 15.0019 15.75 15.0019 15.75 15.0018C15.75 15.0018 15.75 15.0017 15.75 15.0017C15.75 15.0016 15.75 15.0016 15.75 15.0015C15.75 15.0015 15.75 15.0014 15.75 15.0014C15.75 15.0013 15.75 15.0013 15.75 15.0013C15.75 15.0012 15.75 15.0012 15.75 15.0011C15.75 15.0011 15.75 15.0011 15.75 15.001C15.75 15.001 15.75 15.001 15.75 15.0009C15.75 15.0009 15.75 15.0008 15.75 15.0008C15.75 15.0008 15.75 15.0008 15.75 15.0007C15.75 15.0007 15.75 15.0007 15.75 15.0006C15.75 15.0006 15.75 15.0006 15.75 15.0006C15.75 15.0005 15.75 15.0005 15.75 15.0005C15.75 15.0005 15.75 15.0005 15.75 15.0004C15.75 15.0004 15.75 15.0004 15.75 15.0004C15.75 15.0004 15.75 15.0003 15.75 15.0003C15.75 15.0003 15.75 15.0003 15.75 15.0003C15.75 15.0003 15.75 15.0002 15.75 15.0002C15.75 15.0002 15.75 15.0002 15.75 15.0002C15.75 15.0002 15.75 15.0002 15.75 15.0002C15.75 15.0001 15.75 15.0001 15.75 15.0001C15.75 15.0001 15.75 15.0001 15.75 15.0001C15.75 15.0001 15.75 15.0001 15.75 15.0001C15.75 15.0001 15.75 15.0001 15.75 15.0001C15.75 15.0001 15.75 15.0001 15.75 15C15.75 15 15.75 15 15.75 15C15.75 15 15.75 15 15.75 15C15.75 15 15.75 15 15.75 15C15.75 15 15.75 15 15.75 15C15.75 15 15.75 15 15.75 15C15.75 15 15.75 15 15.75 15C15.75 15 15.75 15 15.75 15C15.75 15 15.75 15 15.75 15C15.75 15 15.75 15 15.75 15H15ZM15.75 15V8.75H14.25V15H15.75Z" fill="black"/>
</svg>
