<svg width="24" height="24" viewBox="0 0 24 24" fill="none" xmlns="http://www.w3.org/2000/svg">
<path d="M7 13.5C6.60218 13.5 6.22064 13.342 5.93934 13.0607C5.65804 12.7794 5.5 12.3978 5.5 12C5.5 11.6022 5.65804 11.2206 5.93934 10.9393C6.22064 10.658 6.60218 10.5 7 10.5C7.39782 10.5 7.77936 10.658 8.06066 10.9393C8.34196 11.2206 8.5 11.6022 8.5 12C8.5 12.3978 8.34196 12.7794 8.06066 13.0607C7.77936 13.342 7.39782 13.5 7 13.5ZM12 13.5C11.6022 13.5 11.2206 13.342 10.9393 13.0607C10.658 12.7794 10.5 12.3978 10.5 12C10.5 11.6022 10.658 11.2206 10.9393 10.9393C11.2206 10.658 11.6022 10.5 12 10.5C12.3978 10.5 12.7794 10.658 13.0607 10.9393C13.342 11.2206 13.5 11.6022 13.5 12C13.5 12.3978 13.342 12.7794 13.0607 13.0607C12.7794 13.342 12.3978 13.5 12 13.5ZM17 13.5C16.6022 13.5 16.2206 13.342 15.9393 13.0607C15.658 12.7794 15.5 12.3978 15.5 12C15.5 11.6022 15.658 11.2206 15.9393 10.9393C16.2206 10.658 16.6022 10.5 17 10.5C17.3978 10.5 17.7794 10.658 18.0607 10.9393C18.342 11.2206 18.5 11.6022 18.5 12C18.5 12.3978 18.342 12.7794 18.0607 13.0607C17.7794 13.342 17.3978 13.5 17 13.5Z" fill="black"/>
</svg>
