<svg width="20" height="20" viewBox="0 0 20 20" fill="none" xmlns="http://www.w3.org/2000/svg">
<circle cx="10" cy="10" r="10" fill="#030303" fill-opacity="0.5"/>
<path fill-rule="evenodd" clip-rule="evenodd" d="M11.6054 14.6378H8.54016C7.16262 14.6144 6.06466 13.4792 6.08726 12.1016V9.56538C6.0747 8.42501 6.82864 7.41798 7.92639 7.10886V6.77553C7.8898 5.55289 8.85019 4.53155 10.0728 4.49292C11.2953 4.53155 12.2557 5.55289 12.2191 6.77553V7.10886C13.3169 7.41798 14.0708 8.42501 14.0583 9.56538V12.1016C14.0809 13.4792 12.9829 14.6144 11.6054 14.6378Z" stroke="white" stroke-linecap="round" stroke-linejoin="round"/>
<path d="M9.57265 12.1015C9.57265 12.3777 9.79651 12.6015 10.0727 12.6015C10.3488 12.6015 10.5727 12.3777 10.5727 12.1015H9.57265ZM10.5727 10.8334C10.5727 10.5573 10.3488 10.3334 10.0727 10.3334C9.79651 10.3334 9.57265 10.5573 9.57265 10.8334H10.5727ZM12.0907 7.59202C12.3576 7.66288 12.6314 7.50397 12.7023 7.23707C12.7731 6.97018 12.6142 6.69637 12.3473 6.62551L12.0907 7.59202ZM11.606 7.02905L11.606 7.52905L11.6064 7.52905L11.606 7.02905ZM8.54005 7.02905L8.53959 7.52905H8.54005V7.02905ZM7.7987 6.62551C7.5318 6.69637 7.37288 6.97018 7.44374 7.23707C7.51461 7.50397 7.78841 7.66288 8.05531 7.59202L7.7987 6.62551ZM10.5727 12.1015V10.8334H9.57265V12.1015H10.5727ZM12.3473 6.62551C12.1053 6.56125 11.8559 6.52882 11.6055 6.52905L11.6064 7.52905C11.7699 7.5289 11.9327 7.55007 12.0907 7.59202L12.3473 6.62551ZM11.606 6.52905H8.54005V7.52905H11.606V6.52905ZM8.54051 6.52905C8.29009 6.52882 8.04072 6.56125 7.7987 6.62551L8.05531 7.59202C8.21331 7.55007 8.37611 7.5289 8.53959 7.52905L8.54051 6.52905Z" fill="white"/>
</svg>
