<svg width="20" height="20" viewBox="0 0 20 20" fill="none" xmlns="http://www.w3.org/2000/svg">
<path fill-rule="evenodd" clip-rule="evenodd" d="M12.7511 8.05583C12.0944 6.47094 10.4095 5.57066 8.72697 5.90559C7.04441 6.24051 5.83275 7.71736 5.83301 9.43294V9.43297C5.83309 10.3866 6.21205 11.3012 6.8865 11.9754L6.88652 11.9754C8.09975 13.1884 10.0009 13.3754 11.4272 12.4221C12.8535 11.4688 13.4078 9.64073 12.7511 8.05583ZM8.53174 4.92483C10.6822 4.49676 12.8356 5.64739 13.6749 7.67303C14.5143 9.69867 13.8058 12.0351 11.9829 13.2535C10.1599 14.4719 7.7301 14.2329 6.17949 12.6826C5.31747 11.8209 4.83312 10.652 4.83301 9.43309M8.53174 4.92483C6.38129 5.35289 4.83269 7.24041 4.83301 9.43305Z" fill="black"/>
<path fill-rule="evenodd" clip-rule="evenodd" d="M11.9721 11.9785C12.1674 11.7832 12.484 11.7832 12.6792 11.9785L15.0199 14.3191C15.2152 14.5144 15.2152 14.831 15.0199 15.0263C14.8246 15.2215 14.5081 15.2215 14.3128 15.0263L11.9721 12.6856C11.7769 12.4903 11.7769 12.1737 11.9721 11.9785Z" fill="black"/>
</svg>
