<svg width="20" height="21" viewBox="0 0 20 21" fill="none" xmlns="http://www.w3.org/2000/svg">
<path d="M4.04746 6.01266H15.9522C16.5837 6.01266 17.1893 6.2828 17.6358 6.76367C18.0823 7.24453 18.3332 7.89672 18.3332 8.57676V12.4229C18.3332 13.103 18.0823 13.7551 17.6358 14.236C17.1893 14.7169 16.5837 14.987 15.9522 14.987H4.04746C3.41599 14.987 2.81038 14.7169 2.36387 14.236C1.91735 13.7551 1.6665 13.103 1.6665 12.4229V8.57676C1.6665 7.89672 1.91735 7.24453 2.36387 6.76367C2.81038 6.2828 3.41599 6.01266 4.04746 6.01266ZM4.04746 7.29471C3.73172 7.29471 3.42892 7.42978 3.20566 7.67021C2.9824 7.91064 2.85698 8.23674 2.85698 8.57676V12.4229C2.85698 12.7629 2.9824 13.089 3.20566 13.3295C3.42892 13.5699 3.73172 13.705 4.04746 13.705H15.9522C16.268 13.705 16.5708 13.5699 16.794 13.3295C17.0173 13.089 17.1427 12.7629 17.1427 12.4229V8.57676C17.1427 8.23674 17.0173 7.91064 16.794 7.67021C16.5708 7.42978 16.268 7.29471 15.9522 7.29471H4.04746ZM1.6665 2.80753C1.6665 2.63752 1.72922 2.47447 1.84085 2.35426C1.95247 2.23404 2.10388 2.1665 2.26174 2.1665H17.7379C17.8958 2.1665 18.0472 2.23404 18.1588 2.35426C18.2705 2.47447 18.3332 2.63752 18.3332 2.80753C18.3332 2.97754 18.2705 3.14059 18.1588 3.2608C18.0472 3.38102 17.8958 3.44856 17.7379 3.44856H2.26174C2.10388 3.44856 1.95247 3.38102 1.84085 3.2608C1.72922 3.14059 1.6665 2.97754 1.6665 2.80753ZM1.6665 18.1921C1.6665 18.0221 1.72922 17.8591 1.84085 17.7389C1.95247 17.6187 2.10388 17.5511 2.26174 17.5511H17.7379C17.8958 17.5511 18.0472 17.6187 18.1588 17.7389C18.2705 17.8591 18.3332 18.0221 18.3332 18.1921C18.3332 18.3622 18.2705 18.5252 18.1588 18.6454C18.0472 18.7656 17.8958 18.8332 17.7379 18.8332H2.26174C2.10388 18.8332 1.95247 18.7656 1.84085 18.6454C1.72922 18.5252 1.6665 18.3622 1.6665 18.1921Z" fill="#999999"/>
</svg>
