<svg width="126" height="56" viewBox="0 0 126 56" fill="none" xmlns="http://www.w3.org/2000/svg">
<g filter="url(#filter0_d_1519_93681)">
<rect x="5" y="5" width="116" height="46" rx="23" fill="#0059FF" shape-rendering="crispEdges"/>
<path d="M41 18H27.7666C24.0387 18 21.0163 20.9822 21 24.6672H34.235C37.9629 24.6672 40.9853 27.6494 41 31.3344V18Z" fill="white"/>
<path d="M21 24.6934V38.0004H34.2888C37.9955 38.0004 41 35.0279 41 31.3606C41 31.3509 41 31.3429 41 31.3332H27.7128C24.0061 31.3332 21 28.3607 21 24.6934Z" fill="white"/>
<path d="M27.7112 31.3332H40.9984C40.9837 27.6482 37.9613 24.666 34.2334 24.666H21C21 24.6757 21 24.6837 21 24.6934C21 28.3607 24.0045 31.3332 27.7112 31.3332Z" fill="white"/>
<path d="M40.3471 18.6611H27.9887C24.5072 18.6611 21.6846 21.4462 21.6694 24.8876H34.0294C37.5109 24.8876 40.3335 27.6726 40.3471 31.114V18.6611Z" fill="#8AB7FF"/>
<path d="M21.6689 24.9111V37.3384H34.0792C37.5408 37.3384 40.3467 34.5624 40.3467 31.1376C40.3467 31.1285 40.3467 31.121 40.3467 31.112H27.938C24.4763 31.112 21.6689 28.336 21.6689 24.9111Z" fill="#8AB7FF"/>
<path d="M27.936 31.1122H40.3446C40.331 27.6708 37.5084 24.8857 34.0269 24.8857H21.6685C21.6685 24.8948 21.6685 24.9023 21.6685 24.9113C21.6685 28.3362 24.4743 31.1122 27.936 31.1122Z" fill="#0059FF"/>
<path d="M35.6401 27.9055L28.7494 31.8349L28.7494 23.976L35.6401 27.9055Z" fill="white"/>
<path d="M62.3438 29.5938H49.4688V28.2031H52.875V26.5156H54.5938V28.2031H57.2188V26.5156H58.9219V28.2031H62.3438V29.5938ZM56.7656 30.6719C56.7656 31.2031 56.9479 31.7005 57.3125 32.1641C57.6823 32.6224 58.2161 33.0104 58.9141 33.3281C59.6172 33.6458 60.4479 33.8646 61.4062 33.9844L60.7812 35.3281C59.6302 35.1615 58.6302 34.8516 57.7812 34.3984C56.9323 33.9505 56.2943 33.388 55.8672 32.7109C55.4401 33.388 54.8047 33.9505 53.9609 34.3984C53.1172 34.8516 52.125 35.1615 50.9844 35.3281L50.3594 33.9844C51.3125 33.8646 52.138 33.6458 52.8359 33.3281C53.5339 33.0104 54.0651 32.6224 54.4297 32.1641C54.7995 31.7005 54.9844 31.2031 54.9844 30.6719V30.3594H56.7656V30.6719ZM56.7656 21.9531C56.7656 22.5052 56.9661 23.026 57.3672 23.5156C57.7682 24 58.3385 24.4115 59.0781 24.75C59.8177 25.0833 60.6719 25.3073 61.6406 25.4219L60.9844 26.75C59.8073 26.5885 58.7734 26.2708 57.8828 25.7969C56.9922 25.3229 56.3229 24.7292 55.875 24.0156C55.4219 24.724 54.7526 25.3177 53.8672 25.7969C52.987 26.2708 51.9635 26.5885 50.7969 26.75L50.1406 25.4219C51.1042 25.3021 51.9531 25.0729 52.6875 24.7344C53.4271 24.3958 53.9974 23.9844 54.3984 23.5C54.7995 23.0104 55 22.4948 55 21.9531V21.4219H56.7656V21.9531ZM75.375 29.9062H73.7188V26.2969H72.4219V29.8281H70.7969V21.4688H72.4219V24.875H73.7188V21.2812H75.375V29.9062ZM75.375 35.3906H73.6406V31.9219H65.5V30.5312H75.375V35.3906ZM70.0156 23.875H69V27.6797C69.5312 27.6328 69.9375 27.5885 70.2188 27.5469L70.2969 28.8438C68.6562 29.1458 66.349 29.2969 63.375 29.2969L63.1875 27.875C63.724 27.875 64.1458 27.8724 64.4531 27.8672V23.875H63.4531V22.4375H70.0156V23.875ZM66.0469 27.8359C66.5052 27.8255 66.9635 27.8099 67.4219 27.7891V23.875H66.0469V27.8359ZM90.0312 33.6875H77.125V32.2656H82.6875V29.5156H78.5469V22.2031H80.2812V24.5156H86.8281V22.2031H88.5625V29.5156H84.4062V32.2656H90.0312V33.6875ZM86.8281 28.1094V25.9062H80.2812V28.1094H86.8281ZM102.75 35.3906H101V21.2656H102.75V35.3906ZM98.5312 22.7656C98.5312 25.0104 98.0234 26.9818 97.0078 28.6797C95.9922 30.3724 94.3073 31.776 91.9531 32.8906L91.0469 31.5C92.8646 30.6354 94.2318 29.6016 95.1484 28.3984C96.0703 27.1901 96.6094 25.7708 96.7656 24.1406H91.7656V22.7656H98.5312Z" fill="white"/>
</g>
<defs>
<filter id="filter0_d_1519_93681" x="0" y="0" width="126" height="56" filterUnits="userSpaceOnUse" color-interpolation-filters="sRGB">
<feFlood flood-opacity="0" result="BackgroundImageFix"/>
<feColorMatrix in="SourceAlpha" type="matrix" values="0 0 0 0 0 0 0 0 0 0 0 0 0 0 0 0 0 0 127 0" result="hardAlpha"/>
<feOffset/>
<feGaussianBlur stdDeviation="2.5"/>
<feComposite in2="hardAlpha" operator="out"/>
<feColorMatrix type="matrix" values="0 0 0 0 0 0 0 0 0 0 0 0 0 0 0 0 0 0 0.1 0"/>
<feBlend mode="normal" in2="BackgroundImageFix" result="effect1_dropShadow_1519_93681"/>
<feBlend mode="normal" in="SourceGraphic" in2="effect1_dropShadow_1519_93681" result="shape"/>
</filter>
</defs>
</svg>
