<svg width="10" height="14" viewBox="0 0 10 14" fill="none" xmlns="http://www.w3.org/2000/svg">
<path fill-rule="evenodd" clip-rule="evenodd" d="M1.5 7.75C1.5 8.9925 3.067 10 5 10C6.933 10 8.5 8.9925 8.5 7.75C8.5 6.5075 6.933 5.5 5 5.5C3.067 5.5 1.5 6.5075 1.5 7.75ZM4.68115 7.18233C4.87775 7.06585 5.12222 7.06585 5.31882 7.18233C5.51542 7.29881 5.63285 7.51323 5.62513 7.74161C5.62494 7.74724 5.62494 7.75287 5.62513 7.7585C5.63285 7.98689 5.51542 8.2013 5.31882 8.31778C5.12222 8.43426 4.87775 8.43426 4.68115 8.31778C4.48456 8.2013 4.36712 7.98689 4.37484 7.7585C4.37503 7.75287 4.37503 7.74724 4.37484 7.74161C4.36712 7.51323 4.48456 7.29881 4.68115 7.18233ZM5.57368 6.75216C5.21993 6.54257 4.78004 6.54257 4.42629 6.75216C4.07497 6.96031 3.86414 7.34228 3.87488 7.75006C3.86414 8.15783 4.07497 8.5398 4.42629 8.74795C4.78004 8.95754 5.21993 8.95754 5.57368 8.74795C5.92501 8.5398 6.13583 8.15783 6.1251 7.75006C6.13583 7.34228 5.92501 6.96031 5.57368 6.75216Z" fill="#4D4D4D"/>
</svg>
