<svg width="8" height="6" viewBox="0 0 8 6" fill="none" xmlns="http://www.w3.org/2000/svg">
<rect width="8" height="6" fill="#F5F5F5"/>
<path d="M-3342 -3128C-3342 -3129.1 -3341.1 -3130 -3340 -3130H241C242.104 -3130 243 -3129.1 243 -3128V2054C243 2055.1 242.104 2056 241 2056H-3340C-3341.1 2056 -3342 2055.1 -3342 2054V-3128Z" fill="#E5EEFF"/>
<path d="M-3340 -3129H241V-3131H-3340V-3129ZM242 -3128V2054H244V-3128H242ZM241 2055H-3340V2057H241V2055ZM-3341 2054V-3128H-3343V2054H-3341ZM-3340 2055C-3340.55 2055 -3341 2054.55 -3341 2054H-3343C-3343 2055.66 -3341.66 2057 -3340 2057V2055ZM242 2054C242 2054.55 241.552 2055 241 2055V2057C242.657 2057 244 2055.66 244 2054H242ZM241 -3129C241.552 -3129 242 -3128.55 242 -3128H244C244 -3129.66 242.657 -3131 241 -3131V-3129ZM-3340 -3131C-3341.66 -3131 -3343 -3129.66 -3343 -3128H-3341C-3341 -3128.55 -3340.55 -3129 -3340 -3129V-3131Z" fill="black" fill-opacity="0.1"/>
<g clip-path="url(#clip0_1367_22446)">
<rect width="360" height="2279" transform="translate(-295 -393)" fill="white"/>
<path d="M4 4.92857C3.64399 4.92857 3.29598 4.81546 2.99997 4.60355C2.70396 4.39163 2.47325 4.09043 2.33702 3.73803C2.20078 3.38563 2.16513 2.99786 2.23459 2.62375C2.30404 2.24965 2.47547 1.90601 2.72721 1.63629C2.97894 1.36658 3.29967 1.1829 3.64884 1.10849C3.998 1.03407 4.35992 1.07226 4.68883 1.21823C5.01774 1.3642 5.29886 1.61139 5.49665 1.92854C5.69443 2.24569 5.8 2.61856 5.8 3C5.8 3.51149 5.61036 4.00203 5.27279 4.36371C4.93523 4.72538 4.47739 4.92857 4 4.92857ZM4 0C1.2 0 0 3 0 3C0 3 1.2 6 4 6C6.8 6 8 3 8 3C8 3 6.8 0 4 0Z" fill="black"/>
<path d="M4 4C4.55228 4 5 3.55228 5 3C5 2.44772 4.55228 2 4 2C3.44772 2 3 2.44772 3 3C3 3.55228 3.44772 4 4 4Z" fill="black"/>
</g>
<defs>
<clipPath id="clip0_1367_22446">
<rect width="360" height="2279" fill="white" transform="translate(-295 -393)"/>
</clipPath>
</defs>
</svg>
