<svg width="48" height="24" viewBox="0 0 48 24" fill="none" xmlns="http://www.w3.org/2000/svg">
<path fill-rule="evenodd" clip-rule="evenodd" d="M17 14.2601C17.0149 16.2061 18.603 17.7723 20.549 17.7601H21.03L22.452 19.2601C22.5963 19.4089 22.7947 19.4929 23.002 19.4929C23.2093 19.4929 23.4077 19.4089 23.552 19.2601L24.974 17.7601H25.455C27.3994 17.7701 28.9851 16.2045 29 14.2601V10.0001C28.9851 8.05412 27.397 6.48789 25.451 6.50008H20.551C18.6042 6.48678 17.0149 8.05333 17 10.0001V14.2601Z" stroke="#0059FF" stroke-width="1.5" stroke-linecap="round" stroke-linejoin="round"/>
<path d="M18.75 6.5006C18.75 6.91481 19.0858 7.2506 19.5 7.2506C19.9142 7.2506 20.25 6.91481 20.25 6.5006H18.75ZM27.949 4.0006V4.75073L27.9629 4.75047L27.949 4.0006ZM30.4332 4.97613L29.9128 5.51618L29.9128 5.51618L30.4332 4.97613ZM31.5 7.4226H32.2501L32.2499 7.40875L31.5 7.4226ZM29 14.2506C28.5858 14.2506 28.25 14.5864 28.25 15.0006C28.25 15.4148 28.5858 15.7506 29 15.7506V14.2506ZM20 10.25C19.5858 10.25 19.25 10.5858 19.25 11C19.25 11.4142 19.5858 11.75 20 11.75V10.25ZM25.765 11.75C26.1792 11.75 26.515 11.4142 26.515 11C26.515 10.5858 26.1792 10.25 25.765 10.25V11.75ZM20.7188 12.3594C20.3045 12.3594 19.9688 12.6952 19.9688 13.1094C19.9688 13.5236 20.3045 13.8594 20.7188 13.8594V12.3594ZM25.0417 13.8594C25.456 13.8594 25.7917 13.5236 25.7917 13.1094C25.7917 12.6952 25.456 12.3594 25.0417 12.3594V13.8594ZM20.25 6.5006C20.25 5.81137 20.5157 5.43293 20.9279 5.18347C21.3982 4.89877 22.1233 4.7506 23.049 4.7506V3.2506C22.0147 3.2506 20.9653 3.40742 20.1511 3.90023C19.2788 4.42827 18.75 5.29983 18.75 6.5006H20.25ZM23.049 4.7506H27.949V3.2506H23.049V4.7506ZM27.9629 4.75047C28.6887 4.73702 29.3901 5.01246 29.9128 5.51618L30.9537 4.43609C30.1445 3.6563 29.0587 3.22991 27.9351 3.25073L27.9629 4.75047ZM29.9128 5.51618C30.4355 6.01991 30.7367 6.71065 30.7501 7.43645L32.2499 7.40875C32.2291 6.28518 31.7629 5.21587 30.9537 4.43609L29.9128 5.51618ZM30.75 7.4226V11.5786H32.25V7.4226H30.75ZM30.75 11.5786C30.75 12.4864 30.6243 13.1709 30.3585 13.6099C30.1354 13.9783 29.7701 14.2506 29 14.2506V15.7506C30.2299 15.7506 31.1146 15.2569 31.6415 14.3868C32.1257 13.5873 32.25 12.5608 32.25 11.5786H30.75ZM20 11.75H25.765V10.25H20V11.75ZM20.7188 13.8594H25.0417V12.3594H20.7188V13.8594Z" fill="#0059FF"/>
</svg>
