<svg width="24" height="24" viewBox="0 0 24 24" fill="none" xmlns="http://www.w3.org/2000/svg">
<path fill-rule="evenodd" clip-rule="evenodd" d="M5 14.2601C5.01486 16.2061 6.60302 17.7723 8.549 17.7601H9.03L10.452 19.2601C10.5963 19.4089 10.7947 19.4929 11.002 19.4929C11.2093 19.4929 11.4077 19.4089 11.552 19.2601L12.974 17.7601H13.455C15.3994 17.7701 16.9851 16.2045 17 14.2601V10.0001C16.9851 8.05412 15.397 6.48789 13.451 6.50008H8.551C6.60424 6.48678 5.01486 8.05333 5 10.0001V14.2601Z" stroke="#0059FF" stroke-width="1.5" stroke-linecap="round" stroke-linejoin="round"/>
<path d="M6.75 6.5006C6.75 6.91481 7.08579 7.2506 7.5 7.2506C7.91421 7.2506 8.25 6.91481 8.25 6.5006H6.75ZM15.949 4.0006V4.75073L15.9629 4.75047L15.949 4.0006ZM18.4332 4.97613L17.9128 5.51618L17.9128 5.51618L18.4332 4.97613ZM19.5 7.4226H20.2501L20.2499 7.40875L19.5 7.4226ZM17 14.2506C16.5858 14.2506 16.25 14.5864 16.25 15.0006C16.25 15.4148 16.5858 15.7506 17 15.7506V14.2506ZM8 10.25C7.58579 10.25 7.25 10.5858 7.25 11C7.25 11.4142 7.58579 11.75 8 11.75V10.25ZM13.765 11.75C14.1792 11.75 14.515 11.4142 14.515 11C14.515 10.5858 14.1792 10.25 13.765 10.25V11.75ZM8.71875 12.3594C8.30454 12.3594 7.96875 12.6952 7.96875 13.1094C7.96875 13.5236 8.30454 13.8594 8.71875 13.8594V12.3594ZM13.0417 13.8594C13.456 13.8594 13.7917 13.5236 13.7917 13.1094C13.7917 12.6952 13.456 12.3594 13.0417 12.3594V13.8594ZM8.25 6.5006C8.25 5.81137 8.51573 5.43293 8.92787 5.18347C9.3982 4.89877 10.1233 4.7506 11.049 4.7506V3.2506C10.0147 3.2506 8.9653 3.40742 8.15113 3.90023C7.27877 4.42827 6.75 5.29983 6.75 6.5006H8.25ZM11.049 4.7506H15.949V3.2506H11.049V4.7506ZM15.9629 4.75047C16.6887 4.73702 17.3901 5.01246 17.9128 5.51618L18.9537 4.43609C18.1445 3.6563 17.0587 3.22991 15.9351 3.25073L15.9629 4.75047ZM17.9128 5.51618C18.4355 6.01991 18.7367 6.71065 18.7501 7.43645L20.2499 7.40875C20.2291 6.28518 19.7629 5.21587 18.9537 4.43609L17.9128 5.51618ZM18.75 7.4226V11.5786H20.25V7.4226H18.75ZM18.75 11.5786C18.75 12.4864 18.6243 13.1709 18.3585 13.6099C18.1354 13.9783 17.7701 14.2506 17 14.2506V15.7506C18.2299 15.7506 19.1146 15.2569 19.6415 14.3868C20.1257 13.5873 20.25 12.5608 20.25 11.5786H18.75ZM8 11.75H13.765V10.25H8V11.75ZM8.71875 13.8594H13.0417V12.3594H8.71875V13.8594Z" fill="#0059FF"/>
</svg>
