<svg width="24" height="24" viewBox="0 0 24 24" fill="none" xmlns="http://www.w3.org/2000/svg">
<g id="filter">
<g id="Icon">
<path id="Vector" d="M6 9.91406H18" stroke="#272727" stroke-linecap="round"/>
<path id="Vector_2" d="M6 14.6758H18" stroke="#272727" stroke-linecap="round"/>
<path id="Vector_3" d="M16.2 9.72317C16.2 10.5648 15.4837 11.2471 14.6 11.2471C13.7163 11.2471 13 10.5648 13 9.72317C13 8.88151 13.7163 8.19922 14.6 8.19922C15.4837 8.19922 16.2 8.88151 16.2 9.72317Z" fill="#FEFEFE" stroke="#272727" stroke-linecap="round"/>
<path id="Vector_4" d="M11.2 14.6763C11.2 15.518 10.4837 16.2002 9.6 16.2002C8.71634 16.2002 8 15.518 8 14.6763C8 13.8346 8.71634 13.1523 9.6 13.1523C10.4837 13.1523 11.2 13.8346 11.2 14.6763Z" fill="#FEFEFE" stroke="#272727" stroke-linecap="round"/>
</g>
</g>
</svg>
