<svg width="13" height="13" viewBox="0 0 13 13" fill="none" xmlns="http://www.w3.org/2000/svg">
<path fill-rule="evenodd" clip-rule="evenodd" d="M12.0324 5.08831L1.45169 0.124018C1.17524 -0.0265647 0.836918 -0.0408707 0.546941 0.0857596C0.256965 0.21239 0.0524444 0.463749 0 0.757959C0.00362385 0.855706 0.0289215 0.951699 0.074303 1.0399L2.08884 5.57177C2.18995 5.87269 2.24498 6.18539 2.25231 6.50062C2.245 6.81586 2.18997 7.12856 2.08884 7.42948L0.074303 11.9613C0.0289215 12.0495 0.00362385 12.1455 0 12.2433C0.052822 12.5371 0.257297 12.7879 0.546964 12.9143C0.83663 13.0407 1.1745 13.0266 1.45077 12.8764L12.0324 7.91207C12.6225 7.65686 13 7.10604 13 6.50019C13 5.89434 12.6225 5.34352 12.0324 5.08831V5.08831Z" fill="white"/>
</svg>
