<svg width="40" height="40" viewBox="0 0 40 40" fill="none" xmlns="http://www.w3.org/2000/svg">
<g id="Group 1437255921">
<g id="figma">
<rect id="Rectangle 34646782" x="4" y="4" width="32" height="32" rx="16" fill="#000B1D"/>
<g id="Group">
<g id="5">
<g id="path1_fill-link">
<path id="path1_fill" d="M16.9329 29.6001C18.6266 29.6001 19.9995 28.2271 19.9995 26.5335V23.4668H16.9329C15.2392 23.4668 13.8662 24.8398 13.8662 26.5335C13.8662 28.2271 15.2392 29.6001 16.9329 29.6001Z" fill="#0ACF83"/>
</g>
</g>
<g id="4">
<g id="path2_fill-link">
<path id="path2_fill" d="M13.8662 20.4007C13.8662 18.707 15.2392 17.334 16.9329 17.334H19.9995V23.4673H16.9329C15.2392 23.4673 13.8662 22.0943 13.8662 20.4007Z" fill="#A259FF"/>
</g>
</g>
<g id="3">
<g id="path2_fill-link_2">
<path id="path2_fill_2" d="M13.8662 14.2669C13.8662 12.5732 15.2392 11.2002 16.9329 11.2002H19.9995V17.3335H16.9329C15.2392 17.3335 13.8662 15.9605 13.8662 14.2669Z" fill="#F24E1E"/>
</g>
</g>
<g id="2">
<g id="path3_fill-link">
<path id="path3_fill" d="M19.9995 11.2002H23.0662C24.7599 11.2002 26.1328 12.5732 26.1328 14.2669C26.1328 15.9605 24.7599 17.3335 23.0662 17.3335H19.9995V11.2002Z" fill="#FF7262"/>
</g>
</g>
<g id="1">
<g id="path4_fill-link">
<path id="path4_fill" d="M26.1328 20.4007C26.1328 22.0943 24.7599 23.4673 23.0662 23.4673C21.3725 23.4673 19.9995 22.0943 19.9995 20.4007C19.9995 18.707 21.3725 17.334 23.0662 17.334C24.7599 17.334 26.1328 18.707 26.1328 20.4007Z" fill="#1ABCFE"/>
</g>
</g>
</g>
</g>
<circle id="Ellipse 6996" cx="20" cy="20" r="19.5" stroke="#CCCCCC"/>
</g>
</svg>
