<svg width="40" height="40" viewBox="0 0 40 40" fill="none" xmlns="http://www.w3.org/2000/svg">
<g id="Group 1437255919">
<g id="ai">
<rect id="Rectangle 34646784" x="4" y="4" width="32" height="32" rx="16" fill="#330000"/>
<g id="Outlined Mnemonics Logos">
<g id="Ai">
<path id="Vector" d="M19.7299 23.1481H15.4194L14.5388 25.8959C14.5289 25.946 14.5009 25.9906 14.4601 26.0209C14.4194 26.0512 14.3689 26.065 14.3186 26.0596H12.1402C12.0127 26.0596 11.9779 25.9895 12.0127 25.8492L15.7438 15.0099C15.7786 14.8929 15.8134 14.7643 15.8597 14.624C15.9064 14.3734 15.9296 14.119 15.9292 13.864C15.9258 13.8347 15.9334 13.8052 15.9506 13.7813C15.9678 13.7575 15.9933 13.741 16.0219 13.7354H19.0231C19.1158 13.7354 19.1621 13.7704 19.1737 13.8289L23.4031 25.8725C23.4379 26.0012 23.4031 26.0596 23.2873 26.0596H20.8655C20.8245 26.0636 20.7835 26.0529 20.7496 26.0294C20.7157 26.0059 20.6911 25.971 20.6801 25.931L19.7299 23.1481ZM16.0915 20.7745H19.0347C18.9652 20.5289 18.8725 20.2366 18.7682 19.9326C18.6639 19.6286 18.5596 19.2778 18.4553 18.927C18.351 18.5762 18.2351 18.2137 18.1193 17.8512C18.0034 17.4888 17.8991 17.1497 17.8064 16.8106C17.7137 16.4715 17.6326 16.1792 17.5515 15.8985H17.5283C17.4242 16.4082 17.2927 16.9117 17.1343 17.4069C16.9605 17.9682 16.7867 18.5528 16.6013 19.1375C16.4391 19.7338 16.2653 20.2834 16.0915 20.7745Z" fill="#FF9A00"/>
<path id="Vector_2" d="M25.9291 15.7348C25.7389 15.739 25.5497 15.7049 25.3727 15.6347C25.1956 15.5644 25.0342 15.4593 24.8978 15.3255C24.6323 15.0326 24.4909 14.6465 24.5038 14.2498C24.497 14.0565 24.5306 13.8639 24.6024 13.6846C24.6743 13.5053 24.7828 13.3432 24.9209 13.2091C25.1995 12.9435 25.569 12.7968 25.9522 12.7999C26.4041 12.7999 26.7518 12.9402 27.0067 13.2091C27.2634 13.4926 27.4005 13.8659 27.3891 14.2498C27.3961 14.4473 27.3639 14.6443 27.2942 14.8291C27.2246 15.0138 27.1189 15.1826 26.9835 15.3255C26.847 15.4658 26.6822 15.575 26.5003 15.6456C26.3184 15.7162 26.1236 15.7466 25.9291 15.7348ZM24.6313 25.8842V16.8807C24.6313 16.7637 24.6776 16.717 24.7819 16.717H27.0762C27.1805 16.717 27.2268 16.7754 27.2268 16.8807V25.8842C27.2268 26.0128 27.1805 26.0713 27.0762 26.0713H24.8051C24.7807 26.0733 24.7562 26.0697 24.7334 26.0609C24.7106 26.052 24.6901 26.0381 24.6734 26.0201C24.6567 26.0021 24.6442 25.9805 24.6369 25.957C24.6296 25.9334 24.6277 25.9086 24.6313 25.8842Z" fill="#FF9A00"/>
</g>
</g>
</g>
<circle id="Ellipse 6998" cx="20" cy="20" r="19.5" stroke="#CCCCCC"/>
</g>
</svg>
