<svg width="24" height="24" viewBox="0 0 24 24" fill="none" xmlns="http://www.w3.org/2000/svg">
<g id="Social Icons">
<rect width="24" height="24" rx="12" fill="#005CFF"/>
<g id="Vector">
<path d="M10.8457 11.6392C10.8457 11.6392 11.9815 11.5529 11.9815 10.1939C11.9815 8.83594 11.2111 8.16654 10.0337 8.16654L6 8.16016V15.6647H10.1275C10.1275 15.6647 12.1912 15.7299 12.1912 13.4133C12.1912 13.4133 12.3428 11.6392 10.8457 11.6392ZM7.5009 9.28583H9.56464C9.56464 9.28583 10.2708 9.29746 10.2708 10.213C10.2708 11.162 9.56464 11.162 9.56464 11.162H7.5009V9.28583ZM9.75225 14.539H7.5009V12.2876H9.75225C9.75225 12.2876 10.8779 12.2993 10.8779 13.4133C10.8779 14.5273 9.91435 14.539 9.75225 14.539Z" fill="white"/>
<path d="M15.3807 10.0365C12.5617 10.0365 12.5665 12.8506 12.5665 12.8506C12.5665 12.8506 12.3789 15.6648 15.3807 15.6648C15.3807 15.6648 18.0073 15.6648 18.0073 13.4135H16.5064C16.5064 13.4135 16.5064 14.5392 15.3807 14.5392C15.3807 14.5392 14.255 14.5392 14.255 13.0382C14.255 13.0382 17.2568 13.0382 18.0073 13.0382C18.0073 12.2878 18.0073 10.0365 15.3807 10.0365ZM14.255 12.2878C14.255 12.2878 14.2303 11.1621 15.3807 11.1621C16.5308 11.1621 16.5064 12.2878 16.5064 12.2878H14.255Z" fill="white"/>
<path d="M16.8817 8.91067H13.8799V9.66112H16.8817V8.91067Z" fill="white"/>
</g>
</g>
</svg>
