<svg width="40" height="40" viewBox="0 0 40 40" fill="none" xmlns="http://www.w3.org/2000/svg">
<g id="Group 1437255920">
<g id="ps">
<rect id="Rectangle 34646783" x="4" y="4" width="32" height="32" rx="16" fill="#001E36"/>
<g id="Outlined Mnemonics Logos">
<g id="Ps">
<path id="Vector" d="M12 26.4639V13.8087C12 13.7226 12.0366 13.6734 12.1219 13.6734C12.3291 13.6734 12.5241 13.6734 12.8044 13.6611C13.0847 13.6488 13.4016 13.6488 13.7307 13.6365C14.0597 13.6242 14.4132 13.6242 14.791 13.6119C15.1688 13.5996 15.5344 13.5996 15.9001 13.5996C16.8995 13.5996 17.7282 13.7226 18.4107 13.9809C19.0225 14.1905 19.5804 14.535 20.0439 14.9893C20.4366 15.3869 20.74 15.8651 20.9336 16.3914C21.1181 16.9039 21.2129 17.4449 21.2139 17.9902C21.2139 19.0479 20.9701 19.9211 20.4826 20.6098C19.9929 21.2976 19.3091 21.8205 18.5204 22.1102C17.6917 22.4177 16.7776 22.5284 15.7782 22.5284C15.4857 22.5284 15.2907 22.5284 15.1688 22.5161C15.0469 22.5038 14.8763 22.5038 14.6447 22.5038V26.4516C14.6474 26.4719 14.6461 26.4924 14.6408 26.5122C14.6355 26.5319 14.6263 26.5503 14.6138 26.5663C14.6013 26.5824 14.5857 26.5958 14.568 26.6056C14.5503 26.6155 14.5308 26.6217 14.5107 26.6238H12.1463C12.0488 26.6238 12 26.5746 12 26.4639ZM14.6569 16.047V20.1793C14.8275 20.1916 14.986 20.2039 15.1322 20.2039H15.7782C16.254 20.2045 16.7269 20.1298 17.1798 19.9826C17.5683 19.8673 17.9154 19.6409 18.1792 19.3307C18.4351 19.0233 18.557 18.6051 18.557 18.064C18.5684 17.6797 18.4712 17.3 18.2767 16.9694C18.0734 16.6501 17.7746 16.4045 17.4235 16.2684C16.966 16.0876 16.4764 16.0038 15.9854 16.0224C15.6685 16.0224 15.3882 16.0224 15.1566 16.0347C14.99 16.0237 14.8228 16.0279 14.6569 16.047Z" fill="#31A8FF"/>
<path id="Vector_2" d="M28.819 19.4289C28.451 19.2333 28.0569 19.0925 27.649 19.0107C27.2009 18.9084 26.7433 18.8548 26.284 18.8509C26.0373 18.8423 25.7908 18.8713 25.5527 18.9369C25.4009 18.9688 25.2662 19.0565 25.1749 19.1829C25.1133 19.2827 25.0796 19.3974 25.0774 19.515C25.083 19.632 25.1258 19.7441 25.1993 19.8347C25.3148 19.9715 25.4555 20.0842 25.6136 20.1668C25.894 20.3144 26.1865 20.4497 26.479 20.5727C27.1374 20.7963 27.7674 21.0977 28.3559 21.4705C28.7561 21.7244 29.0871 22.0753 29.3187 22.4912C29.5145 22.8836 29.6109 23.3188 29.599 23.758C29.6089 24.3393 29.4431 24.9098 29.1237 25.3937C28.7837 25.8846 28.3094 26.265 27.7587 26.4883C27.1615 26.7465 26.4302 26.8818 25.5527 26.8818C24.9963 26.8841 24.4411 26.8305 23.8952 26.722C23.4653 26.647 23.0473 26.5147 22.652 26.3284C22.6095 26.3069 22.5742 26.2733 22.5504 26.2318C22.5266 26.1903 22.5153 26.1426 22.518 26.0947V23.9548C22.5169 23.9338 22.5208 23.9128 22.5292 23.8936C22.5377 23.8743 22.5505 23.8574 22.5667 23.8441C22.5839 23.834 22.6038 23.8297 22.6236 23.8319C22.6433 23.8342 22.6618 23.8427 22.6764 23.8564C23.1459 24.1357 23.6558 24.339 24.1877 24.459C24.6573 24.5823 25.1406 24.6443 25.6258 24.6435C26.089 24.6435 26.418 24.582 26.6374 24.4713C26.7353 24.4257 26.8182 24.3529 26.8765 24.2614C26.9348 24.1699 26.966 24.0635 26.9665 23.9548C26.9665 23.7826 26.869 23.6227 26.674 23.4628C26.479 23.3029 26.0768 23.1185 25.4796 22.8848C24.8669 22.667 24.2851 22.3693 23.7489 21.9993C23.367 21.7246 23.0506 21.3675 22.8227 20.9539C22.6282 20.5655 22.5319 20.1345 22.5423 19.6995C22.5441 19.1747 22.6874 18.6603 22.9567 18.2113C23.2663 17.7176 23.7107 17.3247 24.2364 17.0799C24.8092 16.7847 25.5283 16.6494 26.3936 16.6494C26.8994 16.6496 27.4045 16.6866 27.9049 16.7601C28.2648 16.8092 28.617 16.9043 28.9531 17.043C29.0066 17.0621 29.0504 17.1019 29.0749 17.1537C29.089 17.2017 29.0972 17.2512 29.0993 17.3012V19.3059C29.0995 19.3298 29.0941 19.3534 29.0835 19.3748C29.0729 19.3962 29.0574 19.4147 29.0384 19.4289C28.9675 19.4546 28.8899 19.4546 28.819 19.4289Z" fill="#31A8FF"/>
</g>
</g>
</g>
<circle id="Ellipse 6997" cx="20" cy="20" r="19.5" stroke="#CCCCCC"/>
</g>
</svg>
