<svg width="24" height="24" viewBox="0 0 24 24" fill="none" xmlns="http://www.w3.org/2000/svg">
<g id="Social Icons">
<rect width="24" height="24" rx="12" fill="url(#paint0_linear_3648_13225)"/>
<g id="Vector">
<path d="M9.89162 12.0725C9.89162 10.8662 10.8699 9.88799 12.0769 9.88799C13.2839 9.88799 14.2627 10.8662 14.2627 12.0725C14.2627 13.2788 13.2839 14.257 12.0769 14.257C10.8699 14.257 9.89162 13.2788 9.89162 12.0725ZM8.71002 12.0725C8.71002 13.9309 10.2174 15.4373 12.0769 15.4373C13.9364 15.4373 15.4438 13.9309 15.4438 12.0725C15.4438 10.2141 13.9364 8.70762 12.0769 8.70762C10.2174 8.70762 8.71002 10.2141 8.71002 12.0725ZM14.7902 8.5742C14.7902 8.72973 14.8363 8.88178 14.9227 9.01113C15.0091 9.14048 15.1319 9.24132 15.2757 9.30089C15.4194 9.36047 15.5776 9.3761 15.7303 9.34582C15.8829 9.31554 16.0231 9.2407 16.1332 9.13077C16.2433 9.02085 16.3183 8.88076 16.3487 8.72824C16.3791 8.57571 16.3636 8.41759 16.3041 8.27388C16.2446 8.13017 16.1438 8.00732 16.0145 7.92086C15.8851 7.8344 15.733 7.78822 15.5774 7.78816H15.5771C15.3685 7.78826 15.1684 7.8711 15.0209 8.01848C14.8734 8.16586 14.7904 8.36573 14.7902 8.5742ZM9.42792 17.4064C8.78865 17.3773 8.44119 17.2709 8.21028 17.181C7.90415 17.0619 7.68573 16.92 7.45608 16.6908C7.22644 16.4616 7.08428 16.2436 6.96563 15.9376C6.87562 15.707 6.76913 15.3596 6.74007 14.7207C6.70828 14.03 6.70194 13.8225 6.70194 12.0725C6.70194 10.3226 6.70881 10.1157 6.74007 9.42436C6.76918 8.78547 6.87645 8.43879 6.96563 8.20745C7.08481 7.9015 7.22675 7.68321 7.45608 7.4537C7.68542 7.22419 7.90363 7.08212 8.21028 6.96354C8.44108 6.87358 8.78865 6.76716 9.42792 6.73812C10.1191 6.70635 10.3267 6.70001 12.0769 6.70001C13.8271 6.70001 14.0349 6.70687 14.7267 6.73812C15.3659 6.76721 15.7128 6.87442 15.9443 6.96354C16.2504 7.08212 16.4689 7.2245 16.6985 7.4537C16.9282 7.6829 17.0698 7.9015 17.189 8.20745C17.279 8.43811 17.3855 8.78547 17.4145 9.42436C17.4463 10.1157 17.4527 10.3226 17.4527 12.0725C17.4527 13.8225 17.4463 14.0294 17.4145 14.7207C17.3854 15.3596 17.2784 15.7069 17.189 15.9376C17.0698 16.2436 16.9278 16.4619 16.6985 16.6908C16.4692 16.9198 16.2504 17.0619 15.9443 17.181C15.7135 17.271 15.3659 17.3774 14.7267 17.4064C14.0355 17.4382 13.8279 17.4445 12.0769 17.4445C10.3259 17.4445 10.1189 17.4382 9.42792 17.4064ZM9.37363 5.55922C8.67561 5.59098 8.19864 5.7016 7.78209 5.86359C7.3507 6.03087 6.98551 6.2553 6.62058 6.61943C6.25565 6.98357 6.03167 7.34912 5.86428 7.78025C5.7022 8.1968 5.59152 8.67323 5.55973 9.37083C5.52742 10.0695 5.52002 10.2929 5.52002 12.0725C5.52002 13.8521 5.52742 14.0754 5.55973 14.7741C5.59152 15.4718 5.7022 15.9482 5.86428 16.3647C6.03167 16.7956 6.2557 17.1616 6.62058 17.5255C6.98546 17.8895 7.3507 18.1136 7.78209 18.2814C8.19942 18.4434 8.67561 18.554 9.37363 18.5857C10.0731 18.6175 10.2963 18.6254 12.0769 18.6254C13.8575 18.6254 14.0811 18.618 14.7802 18.5857C15.4782 18.554 15.9549 18.4434 16.3717 18.2814C16.8028 18.1136 17.1683 17.8897 17.5332 17.5255C17.8982 17.1614 18.1217 16.7956 18.2895 16.3647C18.4516 15.9482 18.5628 15.4717 18.5941 14.7741C18.6259 14.0749 18.6333 13.8521 18.6333 12.0725C18.6333 10.2929 18.6259 10.0695 18.5941 9.37083C18.5623 8.67318 18.4516 8.19654 18.2895 7.78025C18.1217 7.34938 17.8976 6.98414 17.5332 6.61943C17.1689 6.25472 16.8028 6.03087 16.3722 5.86359C15.9549 5.7016 15.4782 5.59046 14.7807 5.55922C14.0816 5.52745 13.8581 5.51953 12.0774 5.51953C10.2968 5.51953 10.0731 5.52692 9.37363 5.55922Z" fill="white"/>
<path d="M9.89162 12.0725C9.89162 10.8662 10.8699 9.88799 12.0769 9.88799C13.2839 9.88799 14.2627 10.8662 14.2627 12.0725C14.2627 13.2788 13.2839 14.257 12.0769 14.257C10.8699 14.257 9.89162 13.2788 9.89162 12.0725ZM8.71002 12.0725C8.71002 13.9309 10.2174 15.4373 12.0769 15.4373C13.9364 15.4373 15.4438 13.9309 15.4438 12.0725C15.4438 10.2141 13.9364 8.70762 12.0769 8.70762C10.2174 8.70762 8.71002 10.2141 8.71002 12.0725ZM14.7902 8.5742C14.7902 8.72973 14.8363 8.88178 14.9227 9.01113C15.0091 9.14048 15.1319 9.24132 15.2757 9.30089C15.4194 9.36047 15.5776 9.3761 15.7303 9.34582C15.8829 9.31554 16.0231 9.2407 16.1332 9.13077C16.2433 9.02085 16.3183 8.88076 16.3487 8.72824C16.3791 8.57571 16.3636 8.41759 16.3041 8.27388C16.2446 8.13017 16.1438 8.00732 16.0145 7.92086C15.8851 7.8344 15.733 7.78822 15.5774 7.78816H15.5771C15.3685 7.78826 15.1684 7.8711 15.0209 8.01848C14.8734 8.16586 14.7904 8.36573 14.7902 8.5742ZM9.42792 17.4064C8.78865 17.3773 8.44119 17.2709 8.21028 17.181C7.90415 17.0619 7.68573 16.92 7.45608 16.6908C7.22644 16.4616 7.08428 16.2436 6.96563 15.9376C6.87562 15.707 6.76913 15.3596 6.74007 14.7207C6.70828 14.03 6.70194 13.8225 6.70194 12.0725C6.70194 10.3226 6.70881 10.1157 6.74007 9.42436C6.76918 8.78547 6.87645 8.43879 6.96563 8.20745C7.08481 7.9015 7.22675 7.68321 7.45608 7.4537C7.68542 7.22419 7.90363 7.08212 8.21028 6.96354C8.44108 6.87358 8.78865 6.76716 9.42792 6.73812C10.1191 6.70635 10.3267 6.70001 12.0769 6.70001C13.8271 6.70001 14.0349 6.70687 14.7267 6.73812C15.3659 6.76721 15.7128 6.87442 15.9443 6.96354C16.2504 7.08212 16.4689 7.2245 16.6985 7.4537C16.9282 7.6829 17.0698 7.9015 17.189 8.20745C17.279 8.43811 17.3855 8.78547 17.4145 9.42436C17.4463 10.1157 17.4527 10.3226 17.4527 12.0725C17.4527 13.8225 17.4463 14.0294 17.4145 14.7207C17.3854 15.3596 17.2784 15.7069 17.189 15.9376C17.0698 16.2436 16.9278 16.4619 16.6985 16.6908C16.4692 16.9198 16.2504 17.0619 15.9443 17.181C15.7135 17.271 15.3659 17.3774 14.7267 17.4064C14.0355 17.4382 13.8279 17.4445 12.0769 17.4445C10.3259 17.4445 10.1189 17.4382 9.42792 17.4064ZM9.37363 5.55922C8.67561 5.59098 8.19864 5.7016 7.78209 5.86359C7.3507 6.03087 6.98551 6.2553 6.62058 6.61943C6.25565 6.98357 6.03167 7.34912 5.86428 7.78025C5.7022 8.1968 5.59152 8.67323 5.55973 9.37083C5.52742 10.0695 5.52002 10.2929 5.52002 12.0725C5.52002 13.8521 5.52742 14.0754 5.55973 14.7741C5.59152 15.4718 5.7022 15.9482 5.86428 16.3647C6.03167 16.7956 6.2557 17.1616 6.62058 17.5255C6.98546 17.8895 7.3507 18.1136 7.78209 18.2814C8.19942 18.4434 8.67561 18.554 9.37363 18.5857C10.0731 18.6175 10.2963 18.6254 12.0769 18.6254C13.8575 18.6254 14.0811 18.618 14.7802 18.5857C15.4782 18.554 15.9549 18.4434 16.3717 18.2814C16.8028 18.1136 17.1683 17.8897 17.5332 17.5255C17.8982 17.1614 18.1217 16.7956 18.2895 16.3647C18.4516 15.9482 18.5628 15.4717 18.5941 14.7741C18.6259 14.0749 18.6333 13.8521 18.6333 12.0725C18.6333 10.2929 18.6259 10.0695 18.5941 9.37083C18.5623 8.67318 18.4516 8.19654 18.2895 7.78025C18.1217 7.34938 17.8976 6.98414 17.5332 6.61943C17.1689 6.25472 16.8028 6.03087 16.3722 5.86359C15.9549 5.7016 15.4782 5.59046 14.7807 5.55922C14.0816 5.52745 13.8581 5.51953 12.0774 5.51953C10.2968 5.51953 10.0731 5.52692 9.37363 5.55922Z" fill="white"/>
</g>
</g>
<defs>
<linearGradient id="paint0_linear_3648_13225" x1="23.5387" y1="24" x2="-0.461279" y2="-6.46012e-07" gradientUnits="userSpaceOnUse">
<stop stop-color="#FBE18A"/>
<stop offset="0.21" stop-color="#FCBB45"/>
<stop offset="0.38" stop-color="#F75274"/>
<stop offset="0.52" stop-color="#D53692"/>
<stop offset="0.74" stop-color="#8F39CE"/>
<stop offset="1" stop-color="#5B4FE9"/>
</linearGradient>
</defs>
</svg>
