<svg width="16" height="16" viewBox="0 0 16 16" fill="none" xmlns="http://www.w3.org/2000/svg">
<g id="Vector">
<path id="Vector-32 (Stroke)" fill-rule="evenodd" clip-rule="evenodd" d="M8.75414 12.9502L4.44204 12.9502C3.32415 12.9441 2.25447 12.4941 1.46834 11.6993C0.682715 10.905 0.244579 9.83136 0.250144 8.71426L0.250144 4.48729C0.244273 3.36999 0.682263 2.29604 1.46791 1.50151C2.25408 0.706439 3.32394 0.256319 4.44204 0.250207L4.44614 0.250196L8.75824 0.250196C9.87614 0.256309 10.9458 0.706272 11.7319 1.50108C12.5176 2.29537 12.9557 3.36904 12.9501 4.48616L12.9501 8.71423C12.9557 9.83135 12.5176 10.905 11.7319 11.6993C10.9458 12.4941 9.87614 12.9441 8.75824 12.9502L8.75414 12.9502ZM8.75197 11.4502C9.47134 11.4458 10.1596 11.156 10.6655 10.6445C11.1719 10.1325 11.4541 9.44038 11.4502 8.72032L11.4501 8.7162L11.4501 4.48007C11.4541 3.76001 11.1719 3.06786 10.6655 2.5559C10.1596 2.04441 9.47136 1.75465 8.752 1.7502L4.44828 1.7502C3.72879 1.75465 3.04045 2.04452 2.53452 2.55618C2.02812 3.06831 1.74596 3.76065 1.75013 4.48086L1.75014 4.4852L1.75014 8.72032C1.74618 9.44039 2.02843 10.1325 2.5348 10.6445C3.04072 11.156 3.72895 11.4458 4.44832 11.4502L8.75197 11.4502Z" fill="#B3B3B3"/>
<path id="Vector-33 (Stroke)" fill-rule="evenodd" clip-rule="evenodd" d="M10.4372 15.75V15.75L5.6672 15.75C5.25298 15.75 4.9172 15.4142 4.9172 15C4.9172 14.5857 5.25298 14.25 5.6672 14.25L10.4327 14.25C12.5654 14.2234 14.274 12.4745 14.2502 10.3413L14.2501 10.333H14.2502L14.2502 5.66595C14.2502 5.25174 14.586 4.91595 15.0002 4.91595C15.4144 4.91595 15.7502 5.25174 15.7502 5.66595L15.7502 10.3289C15.7808 13.2897 13.407 15.7161 10.4458 15.7499L10.4372 15.75Z" fill="#B3B3B3"/>
</g>
</svg>
