<svg width="17" height="16" viewBox="0 0 17 16" fill="none" xmlns="http://www.w3.org/2000/svg">
<g id="Vector">
<path id="Vector (Stroke)" fill-rule="evenodd" clip-rule="evenodd" d="M12.8371 6.20563C11.9805 4.13659 9.78161 2.96079 7.5852 3.39729C5.38879 3.83378 3.80657 5.76101 3.80615 8.00037C3.80592 9.24539 4.30031 10.4395 5.18055 11.32C6.76381 12.9037 9.24528 13.1484 11.1074 11.9046C12.9696 10.6607 13.6938 8.27467 12.8371 6.20563ZM7.29282 1.92606C10.1911 1.35008 13.0927 2.90161 14.223 5.63183C15.3534 8.36204 14.3978 11.5105 11.9406 13.1519C9.4834 14.7932 6.20895 14.4702 4.11975 12.3805C2.95822 11.2187 2.30584 9.64296 2.30615 8.00009C2.30671 5.04512 4.39453 2.50204 7.29282 1.92606Z" fill="#0059FF"/>
<path id="Vector-2 (Stroke)" fill-rule="evenodd" clip-rule="evenodd" d="M9.96264 7.39485C9.6738 6.69707 8.93228 6.30049 8.19156 6.44764C7.45084 6.59478 6.9172 7.24467 6.91699 7.99986C6.91688 8.41974 7.08358 8.82247 7.38043 9.11943C7.91433 9.65354 8.75117 9.73613 9.37918 9.3167C10.0072 8.89727 10.2515 8.09263 9.96264 7.39485ZM7.8993 4.97638C9.34191 4.68981 10.7861 5.46218 11.3486 6.82115C11.9111 8.18012 11.4354 9.74721 10.2123 10.5641C8.98917 11.381 7.35937 11.2201 6.31956 10.1799C5.74144 9.60154 5.41677 8.8172 5.41699 7.99945C5.4174 6.52865 6.45669 5.26295 7.8993 4.97638Z" fill="#0059FF"/>
<path id="Vector-3 (Stroke)" fill-rule="evenodd" clip-rule="evenodd" d="M8.5 0.25C8.91421 0.25 9.25 0.585786 9.25 1V2.556C9.25 2.97021 8.91421 3.306 8.5 3.306C8.08579 3.306 7.75 2.97021 7.75 2.556V1C7.75 0.585786 8.08579 0.25 8.5 0.25ZM0.75 8C0.75 7.58579 1.08579 7.25 1.5 7.25H3.056C3.47021 7.25 3.806 7.58579 3.806 8C3.806 8.41421 3.47021 8.75 3.056 8.75H1.5C1.08579 8.75 0.75 8.41421 0.75 8ZM13.194 8C13.194 7.58579 13.5298 7.25 13.944 7.25H15.5C15.9142 7.25 16.25 7.58579 16.25 8C16.25 8.41421 15.9142 8.75 15.5 8.75H13.944C13.5298 8.75 13.194 8.41421 13.194 8ZM8.5 12.694C8.91421 12.694 9.25 13.0298 9.25 13.444V15C9.25 15.4142 8.91421 15.75 8.5 15.75C8.08579 15.75 7.75 15.4142 7.75 15V13.444C7.75 13.0298 8.08579 12.694 8.5 12.694Z" fill="#0059FF"/>
</g>
</svg>
